<svg width="89" height="80" viewBox="0 0 89 80" fill="none" xmlns="http://www.w3.org/2000/svg">
<g clip-path="url(#clip0_408_820)">
<path d="M88.2713 78.3278C88.0217 78.7608 87.6493 79.1087 87.202 79.3269C86.7547 79.545 86.2528 79.6235 85.7609 79.5522C83.8714 79.4986 81.9819 79.5522 80.0925 79.5522C78.4957 79.5522 77.7772 78.6584 78.0788 77.1122C79.0369 72.2502 80.0126 67.3972 80.9441 62.5351C80.9689 62.3749 80.957 62.2111 80.9094 62.0562C80.8617 61.9013 80.7795 61.7594 80.6691 61.6414C79.8034 61.1759 79.0908 60.4667 78.6182 59.6002C78.1457 58.7337 77.9336 57.7474 78.0079 56.7615C78.0472 55.7907 78.3647 54.8521 78.9219 54.0591C79.4791 53.2661 80.2523 52.6527 81.1481 52.2928C81.2306 52.2498 81.3106 52.202 81.3876 52.1497V19.0452C81.1038 19.1167 80.8642 19.1703 80.6336 19.2507C77.3691 20.3143 74.1136 21.3958 70.8757 22.4236C70.7532 22.4432 70.6358 22.4869 70.5302 22.5523C70.4245 22.6178 70.3328 22.7037 70.2602 22.8051C70.1876 22.9064 70.1357 23.0212 70.1074 23.1429C70.0791 23.2646 70.0749 23.3907 70.0952 23.514C70.0952 30.7176 69.9976 37.9391 70.1572 45.1428C70.2282 48.2709 68.8355 50.1299 66.2896 51.4527C63.4558 52.8405 60.4237 53.7723 57.3035 54.2143C51.566 55.1726 45.7392 55.4725 39.9346 55.1081C34.4702 54.7863 29.0325 54.2143 23.9052 52.0961C22.6412 51.5237 21.4499 50.8006 20.3569 49.9422C19.7672 49.4988 19.2964 48.9145 18.9867 48.242C18.6769 47.5696 18.5381 46.8301 18.5827 46.0901C18.5827 38.6452 18.5827 31.2002 18.5827 23.7463C18.6146 23.5847 18.6137 23.4182 18.5802 23.2568C18.5466 23.0955 18.4811 22.9426 18.3875 22.8074C18.2939 22.6722 18.1741 22.5574 18.0354 22.47C17.8967 22.3825 17.742 22.3242 17.5804 22.2985C12.4265 20.6629 7.29916 18.9558 2.163 17.2756L1.59526 17.0789C1.23431 16.972 0.918965 16.7471 0.698922 16.4396C0.478879 16.1321 0.366657 15.7597 0.379967 15.3808C0.378926 15.0131 0.49831 14.6552 0.719632 14.3627C0.940953 14.0702 1.25186 13.8595 1.60413 13.7632C2.84604 13.3342 4.09682 12.9319 5.34759 12.5208C17.9618 8.40361 30.5701 4.2715 43.1724 0.124491C43.9279 -0.140455 44.75 -0.140455 45.5054 0.124491C59.1427 4.59921 72.7859 9.06797 86.4351 13.5308C87.2129 13.7216 87.885 14.2127 88.3068 14.8982V15.9439C87.7834 16.9896 86.7633 17.2398 85.7698 17.4901C85.0779 17.6599 84.8827 17.9906 84.8827 18.7324C84.8827 29.5468 84.8827 40.3582 84.8827 51.1666C84.8649 51.3688 84.8649 51.5722 84.8827 51.7744C84.8827 51.9174 85.0069 52.114 85.131 52.1587C85.9274 52.5228 86.6288 53.0684 87.1799 53.7524C87.731 54.4364 88.1168 55.2402 88.3068 56.1002V57.8251C88.1431 58.5664 87.8304 59.2661 87.3879 59.881C86.9455 60.4959 86.3827 61.0129 85.7342 61.4001C85.2375 61.6682 85.202 61.9363 85.2996 62.4279C85.9294 65.5024 86.5149 68.5769 87.1358 71.6514C87.4995 73.4389 87.9165 75.2264 88.3068 77.0139L88.2713 78.3278ZM66.6267 23.8804C66.2186 23.9966 65.8904 24.077 65.5622 24.1843C58.8559 26.3829 52.1467 28.5845 45.4345 30.7891C44.7077 31.0438 43.9169 31.0438 43.1902 30.7891C36.4839 28.5607 29.7747 26.3561 23.0625 24.1753C22.7254 24.0681 22.3794 23.9876 21.9714 23.8804V24.7741C21.9714 31.8348 21.9714 38.9044 21.9714 45.9739C21.9326 46.3462 22.0058 46.7216 22.1813 47.0515C22.3569 47.3814 22.6268 47.6505 22.956 47.824C23.8987 48.3623 24.8802 48.8284 25.8922 49.2183C30.216 50.6581 34.719 51.4794 39.2693 51.6582C45.6149 52.1265 51.9942 51.7084 58.2261 50.4159C60.5284 49.8662 62.7947 49.1738 65.0122 48.3424C65.5571 48.1619 66.0221 47.7949 66.3267 47.3052C66.6313 46.8155 66.7562 46.2339 66.6799 45.6612C66.6089 38.7346 66.6799 31.8169 66.6799 24.8903L66.6267 23.8804ZM80.882 15.4702C80.4917 15.3183 80.2699 15.22 79.9949 15.1485C68.3506 11.3232 56.6974 7.50987 45.0353 3.70844C44.5547 3.56542 44.0433 3.56542 43.5627 3.70844C31.8948 7.50987 20.2386 11.3232 8.59429 15.1485C8.36365 15.22 8.14188 15.3272 7.76043 15.4791C8.14188 15.6311 8.3725 15.7294 8.60314 15.8009C20.2475 19.6261 31.9007 23.4395 43.5627 27.2409C44.0433 27.3839 44.5547 27.3839 45.0353 27.2409C56.7033 23.4454 68.3595 19.6321 80.0038 15.8009C80.2344 15.7473 80.4562 15.64 80.882 15.4702ZM84.4303 76.0398C84.0045 73.9395 83.6053 71.9196 83.1972 69.8908H82.9843L81.7691 76.0398H84.4303ZM84.794 57.0028C84.7799 56.6653 84.6674 56.3395 84.4703 56.0662C84.2733 55.7929 84.0006 55.5843 83.6864 55.4665C83.3721 55.3486 83.0304 55.3269 82.704 55.4039C82.3775 55.4809 82.0809 55.6532 81.8513 55.8994C81.6217 56.1455 81.4692 56.4544 81.4131 56.7874C81.357 57.1205 81.3997 57.4628 81.5359 57.7715C81.672 58.0802 81.8955 58.3415 82.1784 58.5228C82.4613 58.704 82.7911 58.7971 83.1263 58.7903C83.5829 58.7696 84.0139 58.5722 84.3295 58.2392C84.6452 57.9062 84.8211 57.4633 84.8206 57.0028H84.794Z" fill="white"/>
<path d="M51.3147 48.182C53.9759 47.6905 56.6371 47.2883 59.2983 46.6627C60.7579 46.283 62.1689 45.7341 63.503 45.0271C63.7048 44.9278 63.883 44.786 64.0257 44.6113C64.1684 44.4366 64.2723 44.2332 64.3303 44.0146C64.3883 43.7961 64.3991 43.5675 64.362 43.3444C64.3249 43.1213 64.2407 42.9088 64.1151 42.7212C63.8784 42.3448 63.5106 42.0711 63.084 41.9538C62.6573 41.8364 62.2025 41.8838 61.8087 42.0867C60.1891 42.7147 58.5332 43.2429 56.85 43.6686C54.996 44.0976 53.0799 44.2942 51.1905 44.5624C50.9528 44.568 50.7187 44.6217 50.502 44.7203C50.2853 44.8189 50.0905 44.9603 49.9292 45.1362C49.7678 45.3121 49.6432 45.5189 49.5627 45.7442C49.4822 45.9696 49.4475 46.209 49.4607 46.4482C49.5184 46.9105 49.7358 47.3377 50.0748 47.6547C50.4138 47.9717 50.8527 48.1584 51.3147 48.182ZM45.9922 46.6359C45.9887 46.2969 45.8856 45.9665 45.696 45.6865C45.5063 45.4065 45.2386 45.1893 44.9265 45.0625C44.6145 44.9356 44.2722 44.9047 43.9427 44.9736C43.6133 45.0426 43.3115 45.2083 43.0754 45.4499C42.8394 45.6915 42.6796 45.998 42.6163 46.331C42.5531 46.6639 42.5891 47.0083 42.7198 47.3207C42.8506 47.633 43.0703 47.8994 43.3511 48.0861C43.632 48.2728 43.9614 48.3715 44.2979 48.3697C44.747 48.3518 45.1726 48.1629 45.4887 47.841C45.8048 47.5192 45.9879 47.0885 46.0011 46.6359H45.9922Z" fill="white"/>
<path d="M51.3138 48.1818C50.8545 48.1588 50.4177 47.9747 50.0791 47.6613C49.7404 47.3478 49.5213 46.9249 49.4597 46.4658C49.4466 46.2266 49.4813 45.9873 49.5618 45.7619C49.6423 45.5365 49.7669 45.3297 49.9282 45.1538C50.0896 44.9779 50.2844 44.8364 50.5011 44.7379C50.7177 44.6393 50.9519 44.5856 51.1895 44.58C53.079 44.294 54.9951 44.0974 56.8491 43.6862C58.5322 43.2605 60.1882 42.7322 61.8078 42.1043C62.2016 41.9014 62.6564 41.854 63.0831 41.9713C63.5097 42.0887 63.8774 42.3625 64.1142 42.7389C64.2398 42.9264 64.324 43.1389 64.3611 43.362C64.3982 43.5852 64.3874 43.8137 64.3294 44.0322C64.2714 44.2508 64.1675 44.4543 64.0248 44.6289C63.8821 44.8036 63.7038 44.9454 63.5021 45.0448C62.1679 45.7517 60.757 46.3005 59.2974 46.6803C56.6628 47.288 53.975 47.6902 51.3138 48.1818Z" fill="white"/>
<path d="M46.0001 46.6367C46.0018 46.9761 45.9037 47.3084 45.718 47.5916C45.5323 47.8747 45.2674 48.0961 44.9569 48.2276C44.6463 48.3591 44.3041 48.3949 43.9734 48.3304C43.6426 48.2659 43.3383 48.1041 43.0989 47.8654C42.8595 47.6266 42.6957 47.3217 42.6282 46.9892C42.5608 46.6567 42.5927 46.3115 42.72 45.9972C42.8473 45.683 43.0642 45.4138 43.3433 45.2238C43.6224 45.0338 43.9512 44.9315 44.288 44.9297C44.7342 44.945 45.1583 45.1292 45.4757 45.4456C45.793 45.762 45.9803 46.1873 46.0001 46.6367Z" fill="white"/>
</g>
<defs>
<clipPath id="clip0_408_820">
<rect width="87.9268" height="79.5528" fill="white" transform="translate(0.34375)"/>
</clipPath>
</defs>
</svg>
