<svg width="90" height="74" viewBox="0 0 90 74" fill="none" xmlns="http://www.w3.org/2000/svg">
<g clip-path="url(#clip0_408_789)">
<path d="M89.3223 70.4807C89.1133 71.2984 88.6857 72.044 88.0854 72.6375C87.4851 73.231 86.7347 73.6502 85.9144 73.8501C85.5162 73.9323 85.1105 73.9728 84.7039 73.9711C61.1155 73.9711 37.5271 73.9711 13.9387 73.9711C12.0631 73.989 10.2034 73.6258 8.47256 72.9034C6.74167 72.1811 5.17566 71.1147 3.86955 69.769C2.56343 68.4233 1.54444 66.8263 0.87443 65.075C0.204418 63.3237 -0.10264 61.4546 -0.0281337 59.5811C0.0146746 57.4343 0.568196 55.3286 1.58664 53.4381C2.60508 51.5476 4.05918 49.9266 5.82863 48.7094L6.53626 48.2068C6.00557 47.8955 5.54854 47.4731 5.19655 46.9686C4.84457 46.4641 4.60596 45.8894 4.4971 45.2841C4.39404 44.7021 4.41939 44.1047 4.57135 43.5335C4.72332 42.9624 4.99824 42.4313 5.37691 41.9774C5.75557 41.5235 6.22883 41.1578 6.76362 40.9058C7.2984 40.6538 7.8818 40.5216 8.47301 40.5184C8.74341 40.5258 9.01119 40.4638 9.2508 40.3384C9.49042 40.2129 9.69388 40.0281 9.84176 39.8017C10.7436 38.647 11.2201 37.2172 11.1913 35.7526C11.1624 34.288 10.63 32.878 9.68346 31.7597C9.39851 31.4608 9.01468 31.2756 8.60335 31.2384C8.04862 31.2437 7.49854 31.1368 6.98617 30.9242C6.4738 30.7116 6.00972 30.3976 5.62182 30.0012C5.23392 29.6047 4.9302 29.134 4.72892 28.6172C4.52764 28.1004 4.43296 27.5483 4.45056 26.994C4.46446 26.4479 4.58854 25.9101 4.81533 25.4131C5.04212 24.916 5.36694 24.4699 5.77038 24.1014C6.17381 23.7329 6.64754 23.4495 7.16314 23.2684C7.67874 23.0873 8.22561 23.0122 8.77098 23.0474H13.8083C13.3707 22.6472 13.0634 22.3866 12.7934 22.1166C9.06891 18.3934 7.86777 13.9722 9.45068 9.01106C11.0336 4.04993 14.6184 1.15514 19.7489 0.205726C20.4937 0.0845072 21.2477 0.0284541 22.0022 0.0381903H70.1505C73.2511 0.0381903 75.2717 2.72818 74.2754 5.50195C73.9964 6.2887 73.4805 6.96975 72.7985 7.45145C72.1166 7.93314 71.3021 8.19184 70.4671 8.19195C70.1958 8.18555 69.9275 8.24894 69.6878 8.37608C69.4481 8.50322 69.2451 8.68983 69.0983 8.91797C68.202 10.0772 67.7298 11.5084 67.7603 12.9732C67.7908 14.4381 68.3222 15.8483 69.2659 16.9693C69.4793 17.228 69.7752 17.4055 70.104 17.472C73.5119 17.8164 74.9178 19.6407 74.3219 23.0567C79.7969 23.941 83.7542 26.8358 85.393 32.2157C87.0317 37.5957 85.3278 42.2125 81.0074 46.0753C82.0316 46.0753 82.8696 46.1311 83.8007 46.0753C86.5196 45.8705 88.4005 46.9316 89.2944 49.5751V51.3156C89.2295 51.4096 89.1734 51.5093 89.1268 51.6135C88.8602 52.559 88.2862 53.3888 87.4955 53.972C86.7047 54.5551 85.7422 54.8584 84.7598 54.834C84.3222 54.8751 83.9132 55.0697 83.6052 55.3832C82.6267 56.5065 82.0257 57.9085 81.8871 59.3915C81.7484 60.8745 82.0791 62.3636 82.8324 63.6487C83.4004 64.5795 83.987 65.5661 85.365 65.3055C85.4816 65.3026 85.5979 65.3183 85.7095 65.352C86.5669 65.5258 87.3579 65.9375 87.992 66.5401C88.626 67.1426 89.0774 67.9115 89.2944 68.7587L89.3223 70.4807ZM56.0999 48.6722H30.7361C25.1494 48.6722 19.5161 48.6722 13.9014 48.6722C12.4121 48.6923 10.9413 49.0056 9.57309 49.5939C8.20485 50.1823 6.96594 51.0343 5.92709 52.1013C3.82904 54.2563 2.67328 57.1561 2.71403 60.1628C2.75477 63.1696 3.98871 66.037 6.14438 68.1344C8.30006 70.2317 11.2009 71.387 14.2087 71.3463H84.4246C84.6572 71.3602 84.8904 71.3602 85.1229 71.3463C85.5503 71.3107 85.9492 71.1179 86.2425 70.8053C86.5358 70.4926 86.7027 70.0823 86.7108 69.6538C86.7189 69.2252 86.5677 68.8089 86.2864 68.4853C86.0051 68.1618 85.6138 67.9541 85.1881 67.9024C84.8968 67.8792 84.6041 67.8792 84.3129 67.9024H67.5527C67.2616 67.9306 66.9685 67.9306 66.6774 67.9024C66.3765 67.8508 66.1035 67.6945 65.9067 67.4612C65.7099 67.2278 65.6019 66.9324 65.6019 66.6272C65.6019 66.3219 65.7099 66.0266 65.9067 65.7932C66.1035 65.5599 66.3765 65.4036 66.6774 65.352C66.934 65.3191 67.1937 65.3191 67.4502 65.352H79.7504C80.0576 65.352 80.3556 65.352 80.7373 65.352C79.7966 63.7878 79.2996 61.9972 79.2996 60.1721C79.2996 58.347 79.7966 56.5564 80.7373 54.9922H74.4895C74.4895 56.4908 74.4895 57.9057 74.4895 59.3298C74.4895 60.7539 73.6049 61.4148 72.2083 60.6888C70.1412 59.637 68.0648 58.5851 66.0256 57.4775C65.8097 57.341 65.5595 57.2685 65.304 57.2685C65.0486 57.2685 64.7983 57.341 64.5824 57.4775C62.5898 58.5479 60.532 59.5066 58.5673 60.6329C57.1241 61.4613 55.9881 60.7167 56.1278 59.1064C56.2395 57.7288 56.1278 56.314 56.1278 54.9085H13.7245C13.0275 54.9333 12.3425 55.0968 11.7095 55.3896C11.0765 55.6823 10.5083 56.0984 10.0382 56.6135C9.56813 57.1285 9.20558 57.7321 8.97179 58.389C8.738 59.0458 8.63769 59.7427 8.67672 60.4388C8.71575 61.1349 8.89333 61.8163 9.19909 62.4429C9.50484 63.0695 9.93263 63.6289 10.4574 64.0882C10.9821 64.5474 11.5932 64.8974 12.2549 65.1176C12.9167 65.3378 13.6157 65.4239 14.3111 65.3706H60.8672C62.2825 65.3706 62.925 65.7802 62.925 66.6737C62.925 67.5673 62.2825 67.9861 60.8765 67.9861H13.5011C12.396 67.927 11.3159 67.6349 10.3317 67.129C9.34754 66.6232 8.48146 65.915 7.79036 65.051C7.09925 64.187 6.59872 63.1866 6.32161 62.1156C6.0445 61.0446 5.99709 59.9271 6.18246 58.8364C6.52688 56.9634 7.53178 55.2759 9.01475 54.0804C10.4977 52.8848 12.3604 52.2605 14.2646 52.3209H56.0626L56.0999 48.6722ZM66.4074 8.18264H29.0601C27.9521 8.18264 27.3655 7.72655 27.3562 6.87953C27.3468 6.03251 27.9055 5.57642 29.0229 5.56711H69.7687C70.1441 5.58472 70.5202 5.55028 70.8861 5.46473C71.2022 5.39159 71.4807 5.20557 71.6693 4.94162C71.8579 4.67767 71.9436 4.35396 71.9103 4.0313C71.9181 3.72188 71.8184 3.41931 71.6283 3.17499C71.4382 2.93067 71.1694 2.75965 70.8675 2.69096C70.5618 2.62482 70.2482 2.60287 69.9363 2.6258H22.1977C21.4402 2.6288 20.6839 2.68791 19.9351 2.80265C17.303 3.27217 14.9588 4.752 13.4034 6.926C11.848 9.1 11.2047 11.7958 11.6109 14.4376C12.542 19.6221 16.6389 23.0288 22.086 23.0288H69.8898C70.15 23.0522 70.4117 23.0522 70.6719 23.0288C71.0213 22.9802 71.3414 22.8069 71.573 22.5409C71.8046 22.2749 71.9322 21.9341 71.9322 21.5814C71.9322 21.2288 71.8046 20.888 71.573 20.622C71.3414 20.356 71.0213 20.1827 70.6719 20.134C70.3619 20.1121 70.0508 20.1121 69.7408 20.134C59.1012 20.134 48.4585 20.134 37.8126 20.134C32.347 20.134 26.8813 20.1992 21.4156 20.134C20.0155 20.1478 18.646 19.7236 17.499 18.9209C16.352 18.1181 15.4848 16.9768 15.0188 15.6569C14.4512 14.3996 14.2782 12.9999 14.5225 11.6423C14.7669 10.2847 15.4171 9.033 16.3875 8.05234C18.2498 5.98598 20.6521 5.49265 23.2965 5.66019C24.1717 5.71604 24.749 6.20006 24.749 6.94469C24.7455 7.12723 24.7053 7.30721 24.6307 7.47386C24.5561 7.64051 24.4487 7.79043 24.3148 7.91466C24.181 8.03889 24.0235 8.13489 23.8517 8.19693C23.68 8.25896 23.4975 8.28576 23.3151 8.27572C22.6726 8.27572 22.0301 8.27572 21.397 8.27572C20.7551 8.27543 20.1201 8.40781 19.5319 8.66457C18.9437 8.92132 18.4149 9.2969 17.9788 9.7677C17.5427 10.2385 17.2087 10.7944 16.9978 11.4004C16.7869 12.0064 16.7036 12.6494 16.7532 13.2891C16.8027 13.9289 16.9841 14.5514 17.2859 15.1177C17.5876 15.684 18.0033 16.1818 18.5067 16.5799C19.0101 16.9779 19.5904 17.2676 20.2112 17.4307C20.832 17.5939 21.4798 17.6269 22.1139 17.5278H66.4446C65.6239 16.1086 65.1887 14.4995 65.1821 12.8602C65.1756 11.2209 65.598 9.60836 66.4074 8.18264ZM74.4895 40.3229C74.8686 40.1708 75.2386 39.9967 75.5976 39.8017C76.4538 39.2932 77.1195 38.518 77.4929 37.595C77.8662 36.6721 77.9266 35.6522 77.6647 34.6917C77.3835 33.6438 76.749 32.7251 75.8685 32.0908C74.988 31.4565 73.9155 31.1456 72.8321 31.2105H13.4452C13.2031 31.2105 12.9703 31.257 12.6537 31.2849C13.4325 32.6807 13.8413 34.2523 13.8413 35.8505C13.8413 37.4487 13.4325 39.0203 12.6537 40.416H56.0906V38.8895H47.5243C46.5931 38.8895 46.0065 38.3776 46.0065 37.5771C46.0065 36.7766 46.5466 36.2833 47.5243 36.2833H72.9811C74.0053 36.2833 74.4616 36.7673 74.4802 37.7912C74.4988 38.5917 74.4895 39.4015 74.4895 40.3229ZM74.4895 45.9077C74.7326 45.9049 74.9752 45.8863 75.2158 45.8519C77.64 45.2651 79.7667 43.814 81.1969 41.7712C82.627 39.7283 83.2622 37.234 82.9834 34.7562C82.7045 32.2784 81.5308 29.9875 79.6824 28.3133C77.834 26.6391 75.4379 25.6967 72.9439 25.6629H9.05962C8.82742 25.6397 8.59348 25.6397 8.36128 25.6629C8.02441 25.6928 7.7105 25.8463 7.48011 26.0938C7.24972 26.3413 7.11916 26.6653 7.11358 27.0033C7.06906 27.3422 7.15481 27.6854 7.35355 27.9635C7.5523 28.2417 7.84923 28.4341 8.18437 28.5019C8.55221 28.5735 8.9276 28.5985 9.30169 28.5763H54.4704C60.7182 28.5763 66.9661 28.5763 73.2139 28.5763C74.9686 28.5714 76.6654 29.2034 77.9891 30.3547C79.3129 31.5061 80.1736 33.0986 80.4114 34.8365C80.6492 36.5744 80.2479 38.3395 79.282 39.8039C78.3162 41.2683 76.8515 42.3325 75.1599 42.7989L74.5175 42.9943L74.4895 45.9077ZM71.8451 38.964H58.8094V57.3937C60.2278 56.7442 61.6109 56.0202 62.9529 55.2249C63.6222 54.6957 64.4506 54.4078 65.304 54.4078C66.1574 54.4078 66.9858 54.6957 67.6551 55.2249C69.0087 56.0366 70.4076 56.77 71.8451 57.4217V38.964ZM56.1092 43.1526C55.7833 43.1526 55.5598 43.1526 55.3271 43.1526H9.02237C8.73589 43.108 8.44266 43.1434 8.17505 43.2549C7.78397 43.5435 7.24393 43.9065 7.18806 44.3254C7.15561 44.5716 7.17801 44.8219 7.25367 45.0585C7.32933 45.295 7.45637 45.5119 7.62569 45.6936C8.05412 45.9791 8.56432 46.1165 9.07823 46.0846C24.4479 46.0846 39.8208 46.0846 55.1967 46.0846H56.1278L56.1092 43.1526ZM74.5268 52.172H84.6387C85.8958 52.172 86.6965 51.4739 86.6965 50.4221C86.6965 49.3703 85.8958 48.6908 84.6295 48.6815H75.2158C74.9923 48.6815 74.7689 48.6815 74.5268 48.7373V52.172Z" fill="white"/>
</g>
<defs>
<clipPath id="clip0_408_789">
<rect width="89.3225" height="73.9702" fill="white"/>
</clipPath>
</defs>
</svg>
