<svg width="50" height="50" viewBox="0 0 50 50" fill="none" xmlns="http://www.w3.org/2000/svg">
<g clip-path="url(#clip0_408_418)">
<path d="M49.2305 25C49.2305 11.6211 38.3809 0.771484 25.002 0.771484C11.623 0.771484 0.773438 11.6211 0.773438 25C0.773438 38.3789 11.623 49.2285 25.002 49.2285C38.3809 49.2285 49.2305 38.3789 49.2305 25Z" fill="url(#paint0_linear_408_418)"/>
<path d="M38.3386 16.8846C37.7722 15.41 36.6101 15.6444 35.3503 15.8983C34.5983 16.0545 31.2487 17.0311 25.9655 22.617C23.7683 24.9315 22.3229 26.7772 21.3659 28.1834C20.78 27.4705 20.1159 26.6991 19.4128 26.0057C17.2546 23.8475 14.8425 22.3631 14.7448 22.3045C13.739 21.6893 12.4206 22.0018 11.7956 23.0174C11.1804 24.0233 11.4929 25.3416 12.4987 25.9666C12.5183 25.9764 14.5886 27.2557 16.3659 29.0428C18.1823 30.8592 19.8327 33.3202 19.8522 33.3494C20.2526 33.9549 20.9265 34.3065 21.6393 34.3065C21.7565 34.3065 21.8835 34.2967 22.0104 34.2772C22.8503 34.1307 23.5143 33.5057 23.7194 32.6854C23.7292 32.6659 24.5788 30.3123 29.0612 25.5858C32.6745 21.7674 35.0866 20.5565 35.9265 20.2244C35.9362 20.2244 35.9362 20.2244 35.9558 20.2244C35.9558 20.2244 35.9851 20.2147 36.0339 20.1854C36.1804 20.1268 36.2585 20.1073 36.2585 20.1073C36.2194 20.117 36.1999 20.117 36.1999 20.117V20.1073C36.5905 19.9412 37.3132 19.6287 37.3229 19.619C38.4069 19.1502 38.7683 17.9784 38.3386 16.8846Z" fill="white"/>
</g>
<defs>
<linearGradient id="paint0_linear_408_418" x1="-5.46036" y1="-4.90427" x2="80.1675" y2="22.7998" gradientUnits="userSpaceOnUse">
<stop stop-color="#257DDE"/>
<stop offset="0.466667" stop-color="#17B6E0"/>
<stop offset="1" stop-color="#68EDDD"/>
</linearGradient>
<clipPath id="clip0_408_418">
<rect width="50" height="50" fill="white"/>
</clipPath>
</defs>
</svg>
