<svg width="64" height="98" viewBox="0 0 64 98" fill="none" xmlns="http://www.w3.org/2000/svg">
<g clip-path="url(#clip0_408_757)">
<path d="M25.1433 97.6961C24.2658 97.3837 23.4115 97.0074 22.5872 96.5703C21.8215 96.0687 21.1705 95.4063 20.678 94.6278C20.1854 93.8492 19.8627 92.9725 19.7315 92.0567C19.6672 91.7095 19.4787 91.3988 19.2023 91.1844C18.5294 90.8002 17.9734 90.2357 17.5948 89.5525C17.2163 88.8692 17.0297 88.0934 17.0555 87.3098C17.0555 83.1816 17.0555 79.0434 17.0555 74.9152C17.081 74.6691 17.035 74.4207 16.9233 74.2009C16.8115 73.981 16.6388 73.7991 16.4265 73.6777C15.8126 73.2838 15.2996 72.7473 14.9298 72.1124C14.5601 71.4776 14.3441 70.7626 14.2997 70.0263C13.8005 64.3767 11.5838 59.3762 8.67824 54.6395C7.61984 52.905 6.53149 51.2011 5.47309 49.4768C1.83243 43.6308 0.125625 36.7562 0.601609 29.8556C1.07759 22.955 3.71147 16.3894 8.11908 11.1163C10.847 7.88735 14.1838 5.24599 17.9327 3.34804C21.6815 1.45008 25.7666 0.333937 29.947 0.0654583C34.1273 -0.20302 38.3183 0.381594 42.2726 1.78481C46.227 3.18803 49.8647 5.38145 52.9711 8.23569C53.8798 9.0674 54.0495 9.83829 53.4704 10.5381C52.8913 11.238 52.0426 11.238 51.104 10.386C45.6015 5.29479 38.3523 2.59982 30.9146 2.88026C24.317 3.1431 18.0102 5.70737 13.0561 10.1413C8.10209 14.5751 4.80346 20.6078 3.71575 27.2232C2.60267 34.5385 4.14641 42.0152 8.05917 48.2596C10.0561 51.6169 12.113 54.9742 13.9403 58.4025C15.6956 61.8232 16.7647 65.5638 17.0855 69.4076C17.0781 69.7287 17.1382 70.0477 17.2616 70.3434C17.3851 70.6391 17.5691 70.9047 17.8015 71.1226C18.0339 71.3404 18.3093 71.5055 18.6094 71.6068C18.9094 71.708 19.2273 71.7432 19.5418 71.71H44.3342C44.6249 71.7466 44.9199 71.7223 45.2011 71.6387C45.4822 71.5551 45.7435 71.4139 45.9689 71.2239C46.1944 71.0339 46.3791 70.799 46.5118 70.5338C46.6445 70.2685 46.7224 69.9784 46.7406 69.6814C47.2898 63.6768 49.5963 58.3518 52.6516 53.2804C54.5946 50.3635 56.3362 47.3134 57.8637 44.1518C62.1473 34.1204 61.3784 24.4035 55.3675 15.2242C55.3076 15.1227 55.2277 15.0213 55.1678 14.9097C55.0394 14.7575 54.9439 14.5795 54.8876 14.3873C54.8313 14.1951 54.8154 13.993 54.841 13.7942C54.8665 13.5953 54.933 13.4042 55.0359 13.2332C55.1389 13.0621 55.2762 12.9149 55.4388 12.8012C55.6014 12.6875 55.7857 12.6099 55.9798 12.5732C56.1738 12.5366 56.3733 12.5418 56.5653 12.5886C56.7572 12.6353 56.9373 12.7226 57.0939 12.8446C57.2506 12.9667 57.3802 13.1208 57.4743 13.297C59.2349 15.7319 60.6157 18.4276 61.5681 21.2896C64.8232 31.3007 63.5651 40.764 58.2032 49.6897C56.2662 52.9558 54.2792 56.1914 52.5019 59.5385C50.8666 62.7372 49.869 66.2323 49.5663 69.8234C49.5018 70.5856 49.2746 71.3244 48.9004 71.9883C48.5262 72.6522 48.014 73.2252 47.3996 73.6676C47.072 73.96 46.8711 74.3718 46.8404 74.8137C46.8404 78.7898 46.8404 82.7658 46.8404 86.7418C46.9349 87.6312 46.7647 88.529 46.3517 89.3191C45.9388 90.1093 45.3021 90.7555 44.5239 91.1743C44.3304 91.3097 44.1975 91.5176 44.1545 91.7524C44.0156 93.1254 43.4501 94.4178 42.54 95.4426C41.6299 96.4674 40.4224 97.1714 39.0922 97.4527C39.0109 97.4903 38.9366 97.5418 38.8725 97.6049L25.1433 97.6961ZM19.9112 82.7455H43.9348V80.1692H29.4368C29.1244 80.1945 28.8106 80.1945 28.4982 80.1692C28.192 80.1189 27.9112 79.9658 27.7006 79.7343C27.4901 79.5029 27.3619 79.2065 27.3366 78.8924C27.3113 78.5783 27.3904 78.2647 27.5611 78.0015C27.7318 77.7384 27.9844 77.541 28.2786 77.4408C28.6048 77.3579 28.9411 77.3237 29.277 77.3393H43.9249V74.6312H19.9611V77.2683H22.8268C23.8253 77.2683 24.4643 77.8262 24.4643 78.7086C24.4643 79.5911 23.8852 80.1083 22.8368 80.1286H19.9112V82.7455ZM19.9112 85.7174C19.9112 86.0014 19.9112 86.2245 19.9112 86.4375C19.9112 88.6081 20.081 88.8008 22.1778 88.8008H41.4786C43.8949 88.8008 44.1545 88.5067 43.9848 86.0318C43.9712 85.924 43.9444 85.8184 43.9049 85.7174H19.9112ZM22.6471 91.7119C22.7503 92.5451 23.1411 93.3142 23.7498 93.8825C24.3586 94.4507 25.146 94.7814 25.972 94.8156C29.966 94.8697 33.9599 94.8697 37.9539 94.8156C38.7748 94.7875 39.5577 94.4571 40.1565 93.8861C40.7554 93.3151 41.1295 92.5423 41.209 91.7119H22.6471Z" fill="white"/>
<path d="M43.3043 51.7286C42.7982 51.7433 42.2957 51.6382 41.8365 51.4217C41.3773 51.2052 40.9739 50.8831 40.6583 50.481C40.5787 50.3678 40.477 50.2725 40.3595 50.2009C40.2421 50.1293 40.1114 50.0831 39.9756 50.065C39.8398 50.0469 39.7018 50.0574 39.5702 50.0958C39.4386 50.1343 39.3161 50.1998 39.2105 50.2883C38.5257 50.6724 37.8027 50.9818 37.0538 51.2113C36.3848 51.4141 36.215 51.7895 36.215 52.4589C36.215 54.7816 34.897 56.0799 32.5905 56.1002H31.2226C30.7586 56.137 30.2923 56.0727 29.8548 55.9115C29.4173 55.7504 29.0188 55.496 28.686 55.1656C28.3531 54.8352 28.0937 54.4363 27.925 53.9958C27.7563 53.5552 27.6823 53.083 27.7079 52.611C27.7079 51.8503 27.5282 51.404 26.7094 51.2823C26.4308 51.2348 26.1633 51.1351 25.9206 50.9882C24.6426 50.2173 23.5542 49.9739 22.2662 51.2519C21.7898 51.6643 21.1812 51.8849 20.5554 51.8718C19.9297 51.8587 19.3305 51.6129 18.8713 51.1809C17.983 50.4836 17.1876 49.6721 16.5049 48.7669C16.0289 48.1333 15.8166 47.3352 15.9137 46.5443C16.0108 45.7534 16.4095 45.0328 17.0241 44.5373C17.5733 43.9997 17.723 43.523 17.2637 42.9144C17.135 42.7341 17.0402 42.5313 16.9842 42.316C16.5748 40.7946 15.9857 39.6687 14.0686 39.6586C13.4623 39.602 12.8973 39.3223 12.4799 38.8721C12.0624 38.4219 11.8214 37.8322 11.802 37.2141C11.6623 36.1753 11.6422 35.1235 11.7421 34.08C11.7749 33.6644 11.8879 33.2594 12.0748 32.8882C12.2616 32.517 12.5186 32.1868 12.831 31.9165C13.1435 31.6462 13.5053 31.441 13.8958 31.3128C14.2863 31.1845 14.6979 31.1357 15.107 31.169C15.9357 31.169 16.415 30.9661 16.5348 30.1547C16.5622 30.0294 16.6094 29.9095 16.6746 29.7996C17.4734 28.3796 17.9427 27.132 16.425 25.6816C15.4265 24.7282 15.8259 22.9633 16.8144 21.8476C17.3003 21.3134 17.8096 20.7961 18.3421 20.2957C18.6349 19.9704 18.9912 19.7106 19.3883 19.5328C19.7854 19.3551 20.2147 19.2632 20.6486 19.2632C21.0826 19.2632 21.5118 19.3551 21.9089 19.5328C22.306 19.7106 22.6623 19.9704 22.9551 20.2957C23.694 21.097 24.2631 21.0463 25.2117 20.6913C26.7594 20.1233 27.8876 19.5756 27.8277 17.5267C27.8277 16.0864 29.2755 15.0518 30.8232 14.9707C31.5721 14.9707 32.3309 14.9707 33.0798 14.9707C33.4958 14.9733 33.9072 15.0595 34.2904 15.2243C34.6735 15.3891 35.0208 15.6293 35.3121 15.9309C35.6035 16.2326 35.8333 16.5898 35.9883 16.9821C36.1432 17.3743 36.2203 17.7938 36.215 18.2164C36.1571 18.6635 36.2622 19.1165 36.5105 19.4903C36.7588 19.864 37.1332 20.1325 37.563 20.245C39.0707 20.9246 40.199 21.2593 41.5569 19.7886C42.4656 18.7743 44.2728 19.0177 45.3412 19.961C46.0031 20.5593 46.6237 21.2032 47.1984 21.8882C47.4796 22.2009 47.6961 22.5679 47.8351 22.9672C47.9741 23.3666 48.0328 23.7902 48.0077 24.213C47.9825 24.6359 47.8741 25.0492 47.6888 25.4287C47.5034 25.8081 47.245 26.1459 46.9288 26.422C46.5805 26.6873 46.3458 27.0785 46.2734 27.5146C46.2009 27.9506 46.2961 28.3983 46.5394 28.7651C47.1385 30.2257 47.5379 31.3718 49.5348 31.2704C51.0725 31.1892 52.1509 32.7816 52.2008 34.4248C52.2008 35.0638 52.2008 35.6927 52.2008 36.3317C52.2358 36.7951 52.1728 37.2607 52.0159 37.6973C51.859 38.1339 51.6119 38.5312 51.2912 38.8627C50.9706 39.1942 50.5838 39.4522 50.1568 39.6192C49.7299 39.7862 49.2727 39.8584 48.8159 39.831C47.8175 39.831 47.2882 40.115 47.0786 41.1394C46.9488 41.7784 46.5194 42.3566 46.3497 42.9956C46.3053 43.1888 46.3001 43.3891 46.3344 43.5844C46.3687 43.7797 46.4419 43.9659 46.5494 44.1316C48.4864 46.3123 48.4765 47.7932 46.4296 49.8725C45.5109 50.7955 44.6622 51.8097 43.3043 51.7286ZM20.5987 27.3856C20.409 27.9435 20.2492 28.5217 20.0295 29.0694C19.73 29.8402 19.3606 30.5705 19.0311 31.3414C18.8499 32.1448 18.385 32.8529 17.7244 33.3314C17.0637 33.81 16.2533 34.0258 15.4465 33.938C14.6577 33.938 14.3581 34.2118 14.448 34.9522C14.468 35.2054 14.468 35.4598 14.448 35.713C14.3382 36.5954 14.6477 36.9606 15.5863 36.9403C16.3286 36.8826 17.0672 37.0917 17.6732 37.5311C18.2791 37.9705 18.7138 38.6122 18.9013 39.3441C19.2308 40.2671 19.6002 41.18 19.9996 42.0726C20.3396 42.6905 20.4672 43.4058 20.3623 44.1056C20.2574 44.8054 19.926 45.4499 19.4205 45.937C18.3521 47.0426 18.6816 47.002 19.5003 47.8641C19.5951 47.9503 19.6851 48.0417 19.7699 48.138C20.3291 48.9393 20.7684 48.848 21.4674 48.138C21.9558 47.5748 22.6243 47.2048 23.355 47.0935C24.0858 46.9821 24.8317 47.1366 25.4613 47.5295C26.2186 47.9092 26.9952 48.2478 27.7878 48.5438C29.7149 49.2233 30.4038 50.0854 30.4438 52.1749C30.4438 52.9356 30.7333 53.1892 31.4423 53.1892C31.6913 53.1638 31.9421 53.1638 32.1911 53.1892C33.1297 53.321 33.4492 52.9457 33.4193 51.972C33.366 51.2174 33.573 50.4675 34.0049 49.8512C34.4367 49.2348 35.0664 48.7905 35.7857 48.5945C36.4646 48.3409 37.1336 48.0873 37.7826 47.7729C39.9693 46.6775 40.858 46.7586 42.6553 48.4828C43.1146 48.919 43.4341 48.8987 43.8135 48.4828C43.9932 48.2597 44.2129 48.0772 44.4126 47.8743C45.2913 46.9817 45.2913 46.9817 44.4126 46.079C43.8222 45.5676 43.4283 44.861 43.3004 44.0835C43.1726 43.3061 43.3189 42.5077 43.7137 41.8291C44.0831 40.9974 44.3827 40.1251 44.7122 39.263C44.9272 38.6092 45.3386 38.0404 45.8884 37.6365C46.4383 37.2326 47.099 37.0139 47.7775 37.0112C48.0269 36.996 48.277 36.996 48.5264 37.0112C49.1055 37.0112 49.415 36.8084 49.3651 36.1796C49.3651 35.8956 49.3651 35.6115 49.3651 35.3174C49.3651 34.0191 49.3651 34.0191 48.0771 33.9988C47.2889 34.0794 46.4985 33.8698 45.8498 33.4081C45.201 32.9464 44.7371 32.2634 44.5424 31.4834C44.2329 30.6212 43.8535 29.7794 43.5439 28.9375C43.2601 28.3486 43.1615 27.6852 43.2615 27.0374C43.3615 26.3897 43.6554 25.7888 44.1031 25.3165C44.3327 25.0528 44.5823 24.8093 44.832 24.5659C44.9104 24.5075 44.9742 24.4312 45.0181 24.343C45.0621 24.2549 45.085 24.1575 45.085 24.0588C45.085 23.96 45.0621 23.8626 45.0181 23.7745C44.9742 23.6864 44.9104 23.61 44.832 23.5516C44.6622 23.4096 44.5125 23.2372 44.3627 23.085C43.2544 21.9693 43.3642 21.8172 42.206 23.0242C41.7111 23.5758 41.0472 23.9411 40.3221 24.0608C39.5969 24.1805 38.8533 24.0475 38.212 23.6835C37.3633 23.2879 36.4946 22.943 35.6259 22.588C35.0052 22.3651 34.4672 21.9535 34.0849 21.4091C33.7026 20.8647 33.4946 20.2139 33.4892 19.5452C33.4742 19.2614 33.4742 18.9769 33.4892 18.6931C33.4892 18.0744 33.2695 17.8006 32.6604 17.8513C32.4742 17.8615 32.2875 17.8615 32.1013 17.8513C30.5836 17.8513 30.5736 17.8513 30.5336 19.3728C30.5539 20.0635 30.358 20.7429 29.974 21.3134C29.5901 21.8839 29.0379 22.316 28.3969 22.5475C27.3984 22.9735 26.3999 23.369 25.4014 23.7747C24.8417 24.03 24.2203 24.1124 23.6148 24.0113C23.0093 23.9103 22.4465 23.6305 21.9966 23.2067C20.6885 22.0707 20.7285 22.1113 19.4804 23.2777C18.7914 23.9167 18.8314 24.3529 19.4804 24.9412C20.1613 25.583 20.5635 26.4732 20.5987 27.4161V27.3856Z" fill="white"/>
<path d="M21.6685 35.349C21.6963 33.2854 22.3257 31.2765 23.4771 29.5763C24.6286 27.876 26.2504 26.5607 28.1376 25.7965C30.0248 25.0324 32.0927 24.8537 34.0798 25.2831C36.0669 25.7125 37.8841 26.7308 39.3017 28.2091C40.7193 29.6873 41.6736 31.5594 42.0441 33.5885C42.4146 35.6176 42.1845 37.7128 41.3831 39.6092C40.5816 41.5055 39.2447 43.118 37.5413 44.2427C35.8379 45.3674 33.8445 45.9539 31.8131 45.928C29.0897 45.8826 26.4945 44.7448 24.594 42.7628C22.6934 40.7808 21.6417 38.1157 21.6685 35.349ZM24.4942 35.349C24.4669 36.8467 24.8772 38.319 25.6733 39.58C26.4694 40.8409 27.6157 41.8337 28.9671 42.4331C30.3186 43.0325 31.8146 43.2115 33.2661 42.9475C34.7177 42.6835 36.0597 41.9883 37.1224 40.9498C38.1852 39.9113 38.9211 38.5761 39.2371 37.1129C39.5531 35.6498 39.435 34.1243 38.8978 32.7292C38.3606 31.3342 37.4283 30.1322 36.2189 29.2752C35.0094 28.4181 33.577 27.9445 32.1027 27.9142C30.1259 27.8788 28.2158 28.64 26.79 30.0314C25.3642 31.4227 24.5388 33.3309 24.4942 35.3388V35.349Z" fill="white"/>
</g>
<defs>
<clipPath id="clip0_408_757">
<rect width="62.8049" height="97.6965" fill="white" transform="translate(0.539062)"/>
</clipPath>
</defs>
</svg>
