<svg width="102" height="84" viewBox="0 0 102 84" fill="none" xmlns="http://www.w3.org/2000/svg">
<g clip-path="url(#clip0_408_745)">
<path d="M5.4806 73.3988V68.6993C5.3737 63.8535 6.97175 59.1288 9.98538 55.3807C12.999 51.6326 17.229 49.109 21.9095 48.2666C21.9871 48.241 22.0618 48.2067 22.1321 48.1644C22.4771 47.1769 22.1321 46.6661 21.1637 46.2007C14.6523 43.2379 10.4004 38.3341 9.16485 31.0237C7.45073 20.9436 13.6171 9.04729 25.6049 7.18565C26.9879 6.99635 28.3847 6.93176 29.7789 6.99266C31.1368 6.99266 32.4725 7.2878 33.8861 7.45807C33.8861 6.90185 33.9529 6.32294 34.0642 5.73266C34.3317 4.11557 35.1623 2.6512 36.4034 1.60853C37.6446 0.565872 39.213 0.0149421 40.8205 0.0569212C47.3765 0.0569212 53.9436 0.0569212 60.4995 0.0569212H93.7024C98.2326 0.0569212 101.004 2.87207 101.004 7.49212V59.2889C101.004 63.8295 98.2214 66.6901 93.7692 66.6901H69.2817C69.0924 68.1317 69.6712 70.0274 67.3894 70.0955C66.2764 70.0955 65.9536 69.3577 65.8311 66.8036H44.1597L45.2728 73.5464H95.717C96.9906 73.5548 98.2137 74.0555 99.1395 74.9475C100.065 75.8396 100.625 77.0565 100.705 78.3528C100.786 79.6491 100.381 80.9284 99.5733 81.9324C98.7652 82.9364 97.6139 83.5905 96.3515 83.7627H5.64755C4.40871 83.785 3.20556 83.3393 2.26961 82.5113C1.33365 81.6833 0.731012 80.5315 0.577669 79.2776C0.424326 78.0237 0.731095 76.7562 1.43897 75.7191C2.14683 74.6821 3.20579 73.9486 4.41204 73.6599L5.4806 73.3988ZM35.7449 47.8466H67.5119C68.0324 47.7984 68.557 47.8251 69.0702 47.9261C69.3512 48.0126 69.6504 48.0169 69.9337 47.9387C70.217 47.8604 70.4732 47.7027 70.673 47.4834C75.2959 43.5331 79.93 39.5903 84.5752 35.6551C86.2893 34.1908 88.0035 32.7264 89.7287 31.2848C89.8915 31.1081 90.0895 30.9692 90.3095 30.8774C90.5295 30.7856 90.7663 30.7432 91.0038 30.7528C91.2413 30.7625 91.474 30.8242 91.6861 30.9336C91.8982 31.043 92.0847 31.1976 92.2331 31.387C92.3828 31.5739 92.4923 31.7907 92.5547 32.0235C92.6171 32.2563 92.6309 32.4999 92.5952 32.7384C92.5596 32.977 92.4752 33.2052 92.3477 33.4085C92.2201 33.6117 92.0522 33.7854 91.8547 33.9184L91.6209 34.1227L78.7427 45.0542L72.8769 50.0488C73.8236 51.2982 74.2621 52.8714 74.1012 54.4418C73.9524 55.9478 73.2472 57.3396 72.1288 58.3346C71.0105 59.3297 69.5628 59.8535 68.0795 59.7997H44.0818V63.2052H93.5243C96.4628 63.2052 97.6538 61.9906 97.6538 58.9938V7.65106C97.6538 4.65427 96.4517 3.42831 93.5465 3.42831H41.4995C38.5053 3.42831 37.3366 4.64292 37.3032 7.68511C37.2683 7.99152 37.3291 8.30135 37.477 8.57042C37.6249 8.8395 37.8523 9.05407 38.1269 9.18352C45.3729 13.2814 49.1797 19.6042 48.8903 28.0156C48.6009 36.62 44.2599 42.7725 36.5463 46.2688C35.8228 46.598 35.4555 46.9272 35.7449 47.8466ZM45.6178 27.3345C45.6452 25.0782 45.2272 22.8394 44.3887 20.7513C43.5503 18.6631 42.3084 16.7683 40.7372 15.1797C39.1659 13.591 37.2974 12.341 35.2427 11.5039C33.188 10.6669 30.9892 10.2599 28.7771 10.3073C24.3343 10.3073 20.0734 12.1072 16.9319 15.3111C13.7903 18.515 12.0254 22.8603 12.0254 27.3913C12.0254 31.9222 13.7903 36.2676 16.9319 39.4715C20.0734 42.6753 24.3343 44.4752 28.7771 44.4752C30.9987 44.523 33.2068 44.1126 35.269 43.2686C37.3312 42.4245 39.205 41.1643 40.7778 39.5635C42.3506 37.9627 43.59 36.0543 44.4218 33.9528C45.2535 31.8514 45.6603 29.6003 45.6178 27.3345ZM41.8223 73.4442C41.7666 73.0469 41.7332 72.7291 41.6776 72.4113C40.7403 67.8802 40.4553 63.234 40.8316 58.6192C40.9875 56.8143 41.4216 56.3489 43.1802 56.3489H66.0204C66.8218 56.3489 67.6232 56.3489 68.4246 56.3489C68.8146 56.33 69.1948 56.218 69.5346 56.0218C69.8744 55.8256 70.1643 55.5508 70.3809 55.2195C70.5975 54.8882 70.7347 54.5095 70.7816 54.1142C70.8285 53.7189 70.7836 53.3179 70.6507 52.9434C70.433 52.3922 70.0409 51.9308 69.5368 51.6327C69.0327 51.3345 68.4454 51.2165 67.8681 51.2975C57.3607 51.2975 46.8533 51.2975 36.346 51.2975C36.0798 51.2633 35.8104 51.3283 35.5875 51.4806C35.3646 51.6328 35.2031 51.862 35.1327 52.1261C34.6783 53.3926 33.8472 54.4826 32.7555 55.2438C31.6639 56.005 30.3664 56.3993 29.0443 56.3716C27.74 56.4235 26.4513 56.0688 25.3497 55.355C24.248 54.6412 23.3858 53.602 22.8778 52.3759C22.7665 52.1602 22.6775 51.9331 22.5439 51.6494C22.1695 51.7065 21.798 51.7823 21.4309 51.8764C11.135 54.9186 7.84029 63.7614 9.03127 73.4442H18.9487C18.9487 72.3091 18.9487 71.3555 18.9487 70.3679C18.9487 69.2328 19.5943 68.4382 20.5738 68.4155C21.5533 68.3928 22.2768 69.1533 22.2879 70.3907C22.2879 71.4123 22.2879 72.4339 22.2879 73.4896L41.8223 73.4442ZM50.7268 76.8496H6.42669C6.11504 76.8496 5.80338 76.8496 5.49172 76.8496C5.04892 76.8406 4.62073 77.0114 4.30136 77.3243C3.98199 77.6372 3.79758 78.0667 3.78873 78.5183C3.77987 78.9699 3.94728 79.4066 4.25413 79.7323C4.56098 80.058 4.98213 80.2461 5.42494 80.2551C5.70295 80.2722 5.98173 80.2722 6.25974 80.2551H95.3052C95.62 80.2834 95.9365 80.2834 96.2513 80.2551C96.6941 80.2551 97.1188 80.0757 97.4319 79.7564C97.745 79.4371 97.9209 79.004 97.9209 78.5524C97.9209 78.1008 97.745 77.6677 97.4319 77.3484C97.1188 77.029 96.6941 76.8496 96.2513 76.8496C95.9031 76.821 95.5532 76.821 95.205 76.8496H50.7268ZM25.6271 47.6763C25.5158 49.4358 25.3823 51.2294 27.1632 52.3759C27.6846 52.7445 28.304 52.942 28.9385 52.942C29.573 52.942 30.1924 52.7445 30.7139 52.3759C32.4948 51.2407 32.3834 49.4472 32.2499 47.6763H25.6271Z" fill="white"/>
<path d="M68.2808 17.0944C64.207 17.0944 60.122 17.0944 56.0371 17.0944C54.5233 17.0944 53.5883 15.8231 54.3118 14.6766C54.4947 14.4143 54.7302 14.1946 55.0027 14.0321C55.2752 13.8697 55.5785 13.7682 55.8924 13.7344C64.1625 13.6663 72.4214 13.6777 80.6915 13.7344C80.927 13.7066 81.1655 13.73 81.3915 13.8029C81.6175 13.8758 81.8258 13.9966 82.0027 14.1574C82.1797 14.3182 82.3213 14.5153 82.4183 14.7359C82.5153 14.9564 82.5654 15.1954 82.5654 15.4371C82.5654 15.6789 82.5153 15.9178 82.4183 16.1384C82.3213 16.359 82.1797 16.5561 82.0027 16.7169C81.8258 16.8777 81.6175 16.9985 81.3915 17.0714C81.1655 17.1443 80.927 17.1676 80.6915 17.1399L68.2808 17.0944Z" fill="white"/>
<path d="M68.324 22.2148H74.6017C75.904 22.2148 76.6831 22.8732 76.6831 23.9176C76.6831 24.9619 75.8928 25.6203 74.5906 25.6203H62.0574C60.7551 25.6203 59.9648 24.9619 59.9648 23.9176C59.9648 22.8732 60.7551 22.2148 62.0574 22.2148H68.324Z" fill="white"/>
</g>
<defs>
<clipPath id="clip0_408_745">
<rect width="100.488" height="83.7398" fill="white" transform="translate(0.515625)"/>
</clipPath>
</defs>
</svg>
