<svg width="79" height="79" viewBox="0 0 79 79" fill="none" xmlns="http://www.w3.org/2000/svg">
<g clip-path="url(#clip0_408_798)">
<path d="M41.5907 50.1369C41.2474 50.5719 41.0716 50.8395 40.8539 51.057C34.2062 57.7095 27.5584 64.3481 20.9106 70.9727C20.463 71.4087 19.9299 71.7476 19.345 71.9681C13.8275 73.9672 8.30167 75.9245 2.77583 77.8985C2.14789 78.1243 1.55344 78.2916 1.0176 77.7646C0.481764 77.2376 0.632467 76.6354 0.858524 76.0165C2.85118 70.4708 4.81871 64.9169 6.81973 59.3796C7.01873 58.8435 7.32986 58.3558 7.73234 57.9493C14.3801 51.2577 21.0418 44.5941 27.7175 37.9583C27.9352 37.7409 28.178 37.5401 28.4626 37.2891C26.8334 35.1132 24.4833 33.5865 21.8316 32.9815C20.7015 32.7618 19.5474 32.6915 18.3989 32.7724C16.0438 32.9676 13.6744 32.6516 11.453 31.8461C9.23171 31.0405 7.21109 29.7645 5.52979 28.1054C3.84848 26.4464 2.54628 24.4437 1.71252 22.2346C0.878759 20.0256 0.533162 17.6625 0.699445 15.3075C0.92007 13.5178 1.34134 11.7586 1.95532 10.0629C2.3572 8.7581 3.39539 8.59919 4.3666 9.5611C6.87835 12.0704 9.39009 14.5798 11.9018 17.0891C12.0488 17.2659 12.245 17.3953 12.4656 17.4608C12.6861 17.5263 12.9211 17.525 13.141 17.4571C14.3131 17.1727 15.5104 17.0054 16.6825 16.721C16.8293 16.6741 16.9631 16.5937 17.0735 16.4863C17.184 16.3789 17.2679 16.2474 17.3188 16.1021C17.6202 14.8558 17.8798 13.5928 18.0807 12.3297C18.0964 11.9857 17.9761 11.6492 17.7458 11.3929C15.2759 8.88359 12.781 6.37427 10.2943 3.92349C9.16404 2.79429 9.33148 1.91599 10.7883 1.32212C13.4052 0.238201 16.2585 -0.150073 19.0702 0.195083C21.882 0.540238 24.5563 1.60708 26.8327 3.29167C29.1091 4.97626 30.9099 7.22115 32.0598 9.80769C33.2096 12.3942 33.6693 15.2342 33.394 18.051C33.2421 19.599 33.4393 21.1614 33.971 22.6233C34.5028 24.0852 35.3555 25.4096 36.4667 26.4991C36.8602 26.9173 37.304 27.3355 37.6891 27.7202C37.7568 27.7628 37.8267 27.8019 37.8984 27.8374C38.0994 27.645 38.3254 27.4359 38.5431 27.2184L62.7145 3.0703C65.5779 0.209669 68.9687 -0.718794 72.8033 0.652972C74.2194 1.17311 75.4866 2.03135 76.4945 3.15285C77.5025 4.27436 78.2207 5.62511 78.5864 7.08741C78.9521 8.54971 78.9543 10.0792 78.5928 11.5425C78.2313 13.0059 77.5171 14.3587 76.5123 15.4831C76.1774 15.8512 75.8258 16.2024 75.4741 16.5538C67.5482 24.4721 59.6194 32.3904 51.6879 40.3087C51.4437 40.51 51.18 40.6865 50.9009 40.8357C53.6722 44.1062 56.8705 45.8543 60.9479 45.4779C63.3019 45.2659 65.6739 45.5662 67.9005 46.3581C70.1271 47.1501 72.1554 48.4148 73.8457 50.0653C75.5359 51.7158 76.8479 53.7127 77.6913 55.9185C78.5347 58.1243 78.8895 60.4866 78.731 62.8425C78.5137 64.6572 78.0924 66.4417 77.4752 68.1623C77.0733 69.4671 76.0351 69.626 75.0639 68.6641C72.5521 66.1548 70.0404 63.6454 67.5287 61.1361C67.3828 60.958 67.1862 60.8282 66.965 60.764C66.7438 60.6998 66.5082 60.7041 66.2895 60.7765C65.1425 61.0525 63.9787 61.27 62.8149 61.4623C62.6205 61.4702 62.4358 61.5499 62.2967 61.6858C62.1575 61.8217 62.0737 62.0044 62.0614 62.1984C61.8605 63.3862 61.6344 64.5655 61.3581 65.7366C61.2934 65.9453 61.2932 66.1687 61.3574 66.3776C61.4216 66.5864 61.5473 66.7711 61.7181 66.9076C64.188 69.3416 66.6328 71.7924 69.0776 74.2432C70.2999 75.4644 70.1158 76.3176 68.4915 76.9783C65.9051 78.0129 63.0974 78.3718 60.3335 78.0213C57.5697 77.6707 54.9408 76.6223 52.6952 74.9748C50.4496 73.3274 48.6613 71.1354 47.4992 68.6058C46.337 66.0761 45.8394 63.2923 46.0532 60.5172C46.2202 58.8535 46.0054 57.1738 45.4251 55.6056C44.8448 54.0373 43.9142 52.6219 42.7042 51.4669C42.3693 51.0905 42.0679 50.689 41.5907 50.1369ZM75.3904 65.77L75.809 65.5191C75.9514 64.507 76.1774 63.5033 76.2277 62.4912C76.331 60.5101 76.0077 58.5299 75.2796 56.6844C74.5516 54.8388 73.4356 53.1707 72.0072 51.7928C70.5787 50.4149 68.871 49.3592 66.9992 48.6969C65.1275 48.0346 63.1353 47.7812 61.1572 47.9538C59.2037 48.1392 57.2335 47.8888 55.3888 47.2205C53.5441 46.5522 51.871 45.4827 50.4906 44.0894C50.0636 43.6712 49.6534 43.253 49.3436 42.8933L43.4829 48.7066C43.8429 49.0412 44.2699 49.3925 44.655 49.7856C46.0803 51.1699 47.175 52.8574 47.8577 54.7226C48.5405 56.5877 48.7936 58.5826 48.5985 60.559C48.4222 62.5395 48.6748 64.5348 49.3392 66.4091C50.0035 68.2834 51.064 69.9928 52.4485 71.4212C53.833 72.8496 55.5091 73.9635 57.3629 74.6872C59.2166 75.4108 61.2046 75.7272 63.1917 75.6149C64.2131 75.5564 65.2178 75.3222 66.39 75.1465C66.0635 74.7952 65.9128 74.6196 65.7453 74.4523C63.6354 72.3445 61.5591 70.2115 59.3906 68.1204C59.0994 67.8792 58.8844 67.5589 58.7715 67.1982C58.6586 66.8375 58.6526 66.4519 58.7543 66.0879C59.1813 64.2812 59.5246 62.4577 59.8595 60.6259C59.8873 60.2733 60.0385 59.9419 60.2865 59.6895C60.5345 59.4371 60.8635 59.28 61.2158 59.2458C63.0745 58.9028 64.9332 58.5432 66.7668 58.1249C67.1062 58.029 67.4659 58.0316 67.8039 58.1323C68.142 58.233 68.4443 58.4277 68.6757 58.6937C70.7688 60.8183 72.8619 62.876 75.0053 65.0423C75.1632 65.2682 75.2925 65.5126 75.3904 65.77ZM13.0572 3.41322C13.3168 3.54162 13.5612 3.69874 13.7856 3.88163C15.929 5.99783 18.0556 8.13912 20.1906 10.2637C20.4158 10.4463 20.5865 10.6872 20.6839 10.9601C20.7814 11.233 20.8019 11.5274 20.7432 11.8111C20.3329 13.7851 19.9059 15.7591 19.5459 17.7415C19.5083 18.0537 19.3664 18.3442 19.143 18.5658C18.9197 18.7875 18.628 18.9273 18.3152 18.9627C16.4314 19.3224 14.5475 19.6737 12.6889 20.1003C12.3377 20.2002 11.9651 20.1966 11.616 20.0897C11.2669 19.9829 10.9561 19.7774 10.7213 19.498C8.61982 17.3651 6.53508 15.2573 4.38335 13.1494C4.19078 12.957 3.98146 12.7814 3.62145 12.4552C3.454 13.7266 3.21957 14.7805 3.17771 15.8009C3.08367 17.7628 3.40886 19.7222 4.13165 21.5488C4.85443 23.3754 5.95825 25.0273 7.36966 26.3946C8.78107 27.7619 10.4677 28.8134 12.3174 29.4789C14.1672 30.1445 16.1375 30.4089 18.0975 30.2547C20.1683 30.0584 22.2565 30.3394 24.2016 31.0761C26.1466 31.8127 27.8965 32.9854 29.3166 34.5038C29.618 34.8133 29.9278 35.1144 30.1539 35.3403L35.9644 29.4852C35.6127 29.1673 35.169 28.7993 34.7671 28.3894C33.3628 27.0038 32.2843 25.3237 31.6095 23.4706C30.9347 21.6175 30.6806 19.6378 30.8655 17.6746C31.0379 15.801 30.8229 13.9119 30.2338 12.1248C29.6447 10.3377 28.6942 8.69063 27.4412 7.28595C23.9247 3.26267 17.9133 1.52286 13.0572 3.41322ZM10.9223 58.493C11.6842 58.6519 12.4879 58.7523 13.2582 58.9781C13.5121 59.0673 13.7879 59.0732 14.0454 58.995C14.3029 58.9168 14.5287 58.7585 14.6899 58.5432C28.5156 44.7028 42.3442 30.8792 56.1756 17.0723C56.3765 16.8716 56.5607 16.6625 56.6779 16.537L54.836 14.655L10.9223 58.493ZM62.3712 22.0742C62.1786 22.2583 61.9693 22.4423 61.7684 22.6431L36.1486 48.2466L20.2408 64.139C20.0315 64.3481 19.7469 64.6576 19.772 64.8834C19.9059 65.8788 20.1404 66.8658 20.3246 67.7524L64.2048 23.9228L62.3712 22.0742ZM15.8704 62.9512C16.4101 63.0874 16.9771 63.0693 17.507 62.8993C18.0369 62.7292 18.5084 62.4139 18.8677 61.9893C32.5316 48.2717 46.2207 34.5791 59.9348 20.9116C60.1525 20.6942 60.3618 20.4599 60.5041 20.3094L58.4529 18.2684C58.2822 18.5099 58.0947 18.7391 57.8919 18.9543C44.2336 32.6051 30.5585 46.2474 16.8667 59.8815C16.4145 60.2373 16.0761 60.7174 15.8931 61.2628C15.7102 61.8081 15.6906 62.395 15.8369 62.9512H15.8704ZM64.3639 4.94393L73.9169 14.4961C74.8986 13.6763 75.6212 12.5896 75.9972 11.3678C76.3732 10.1459 76.3863 8.84135 76.0351 7.61218C75.7541 6.38623 75.1172 5.27041 74.2042 4.40445C73.2913 3.5385 72.1428 2.96091 70.9028 2.74408C69.7109 2.46256 68.464 2.51936 67.3027 2.90806C66.1414 3.29675 65.1119 4.00188 64.3304 4.94393H64.3639ZM9.0217 60.7012C8.26818 62.8007 7.51466 64.8834 6.803 66.941C6.79092 67.059 6.80409 67.1782 6.84162 67.2906C6.87915 67.4031 6.94018 67.5064 7.02068 67.5935C8.39376 69.0071 9.7836 70.3872 11.2069 71.7757C11.2852 71.8515 11.3786 71.91 11.481 71.9475C11.5834 71.9849 11.6926 72.0005 11.8014 71.9932C13.8945 71.2738 15.9876 70.521 18.0975 69.7682C17.8379 68.4634 17.6119 67.2589 17.3272 66.0126C17.2793 65.9001 17.2048 65.801 17.1099 65.7237C17.0151 65.6465 16.9029 65.5935 16.783 65.5693C16.0797 65.5191 15.368 65.5693 14.6564 65.5693C14.4656 65.5897 14.2726 65.5667 14.092 65.5021C13.9113 65.4374 13.7476 65.3328 13.6131 65.1961C13.4786 65.0593 13.3768 64.894 13.3154 64.7123C13.2539 64.5307 13.2344 64.3376 13.2582 64.1473C13.2582 63.4447 13.2582 62.7337 13.2582 62.0311C13.2421 61.9185 13.1986 61.8115 13.1314 61.7197C13.0643 61.6278 12.9756 61.5537 12.873 61.5042C11.5921 61.203 10.3362 60.9605 9.0217 60.7012ZM71.7568 16.5454L62.3712 7.1354L60.6297 8.80828L70.099 18.2601L71.7568 16.5454ZM67.9891 20.3596L58.5617 10.9496L56.837 12.5472L66.323 22.0157L67.9891 20.3596ZM8.72029 73.0972L5.68107 70.0443C5.17872 71.4411 4.65126 72.8882 4.14054 74.3268C4.1299 74.4353 4.1299 74.5446 4.14054 74.6531C4.22653 74.6665 4.31409 74.6665 4.40008 74.6531L8.72029 73.0972Z" fill="white"/>
<path d="M54.7362 60.5074C54.0245 60.5 53.3301 60.2878 52.7361 59.8961C52.1421 59.5045 51.6738 58.95 51.3872 58.2992C51.0426 57.6406 50.9122 56.8909 51.0143 56.1548C51.1163 55.4186 51.4457 54.7325 51.9565 54.1923C52.8186 53.2097 53.7443 52.2849 54.7278 51.4236C55.4729 50.7637 56.4452 50.4184 57.4401 50.4605C58.4349 50.5026 59.3746 50.9289 60.0611 51.6495C60.7349 52.3607 61.107 53.305 61.0992 54.2843C61.0914 55.2636 60.7043 56.2019 60.0192 56.9023C59.182 57.7388 58.3447 58.6254 57.5075 59.4618C56.7587 60.1631 55.7621 60.5391 54.7362 60.5074ZM54.7362 58.0734C55.1381 57.9312 55.4478 57.9144 55.5734 57.7555C56.5363 56.8354 57.5075 55.9237 58.3866 54.9283C58.4836 54.8101 58.5555 54.6734 58.5981 54.5265C58.6406 54.3796 58.6529 54.2257 58.6341 54.074C58.6153 53.9222 58.5658 53.7759 58.4888 53.6439C58.4117 53.5118 58.3086 53.3967 58.1856 53.3056C58.0848 53.185 57.9602 53.0865 57.8196 53.0161C57.679 52.9456 57.5254 52.9048 57.3684 52.8962C57.2114 52.8876 57.0542 52.9113 56.9067 52.9659C56.7593 53.0205 56.6246 53.1048 56.5111 53.2136C55.5592 54.0656 54.6616 54.9764 53.8236 55.9404C53.7116 56.134 53.6445 56.3502 53.6271 56.5731C53.6097 56.796 53.6425 57.02 53.7231 57.2285C53.9073 57.5882 54.3929 57.8559 54.6943 58.0734H54.7362Z" fill="white"/>
<path d="M28.3622 21.3452C28.3574 22.3939 27.9428 23.3994 27.2068 24.1473C26.3696 24.9837 25.6077 25.8202 24.7788 26.6566C24.085 27.3713 23.136 27.7822 22.1396 27.7995C21.1431 27.8167 20.1805 27.4388 19.4623 26.7486C18.7239 26.0591 18.2858 25.1077 18.2419 24.0989C18.1981 23.0901 18.5521 22.1044 19.2278 21.3535C20.0779 20.3872 20.9807 19.4685 21.9322 18.6017C22.4766 18.073 23.1727 17.7276 23.9233 17.6136C24.6739 17.4996 25.4413 17.6228 26.1184 17.966C26.7819 18.2487 27.3481 18.7194 27.7468 19.3199C28.1456 19.9205 28.3595 20.6245 28.3622 21.3452ZM26.0096 21.3452C25.7375 20.9423 25.4169 20.5743 25.0551 20.2494C24.8284 20.1067 24.557 20.0526 24.2928 20.0973C24.0287 20.1421 23.7903 20.2826 23.6234 20.492C22.7862 21.3285 21.9489 22.1064 21.1954 22.9512C21.0637 23.0813 20.9601 23.2369 20.891 23.4085C20.8218 23.5801 20.7886 23.764 20.7933 23.949C20.798 24.1339 20.8405 24.316 20.9183 24.4839C20.9961 24.6517 21.1075 24.8019 21.2456 24.9252C21.3757 25.0462 21.5296 25.1388 21.6974 25.1972C21.8653 25.2555 22.0435 25.2784 22.2207 25.2643C22.3979 25.2501 22.5702 25.1992 22.7266 25.1149C22.8831 25.0306 23.0203 24.9147 23.1294 24.7746C23.8746 24.0385 24.6197 23.3025 25.323 22.5246C25.5923 22.1445 25.8223 21.7381 26.0096 21.3117V21.3452Z" fill="white"/>
</g>
<defs>
<clipPath id="clip0_408_798">
<rect width="78.1572" height="78.1572" fill="white" transform="translate(0.648438)"/>
</clipPath>
</defs>
</svg>
