<svg width="81" height="87" viewBox="0 0 81 87" fill="none" xmlns="http://www.w3.org/2000/svg">
<path d="M40.6506 0.340198C40.9399 0.566826 41.1649 0.862651 41.3042 1.19929C41.4435 1.53593 41.4923 1.90207 41.446 2.26257C41.446 3.72151 41.446 5.18903 41.446 6.64797C41.4323 7.08798 41.2693 7.51088 40.9827 7.84945C40.8303 8.00074 40.6383 8.10787 40.4279 8.15909C40.2175 8.21031 39.9968 8.20364 39.79 8.1398C39.5832 8.07597 39.3983 7.95744 39.2556 7.79722C39.1129 7.637 39.0179 7.44128 38.981 7.23154C38.8674 5.24052 38.9198 3.24091 38.981 1.22414C38.981 0.915191 39.4181 0.614823 39.6541 0.314453L40.6506 0.340198Z" fill="white"/>
<path d="M66.6544 22.4391L59.7665 34.4539H77.4407C77.12 33.8616 76.764 33.2885 76.3743 32.7375C75.6401 31.8364 74.8271 31.0211 74.0667 30.12C73.3062 29.2189 73.4111 28.6181 74.0667 28.1118C74.7223 27.6055 75.3691 27.7342 76.0247 28.4379C76.6802 29.1416 77.0911 29.6995 77.6767 30.2831C81.4528 33.9733 80.299 38.6677 78.1399 41.5083C74.9757 45.5933 71.8552 49.7041 68.726 53.8063C67.5285 55.3682 66.3571 56.9302 65.1422 58.4664C65.0487 58.6182 64.9233 58.7487 64.7742 58.8491C64.6251 58.9495 64.4559 59.0174 64.2779 59.0483C64.0999 59.0792 63.9173 59.0723 63.7422 59.0282C63.5671 58.9841 63.4037 58.9037 63.2629 58.7924C63.1214 58.6825 63.0046 58.5449 62.9202 58.3883C62.8357 58.2317 62.7853 58.0596 62.7722 57.8829C62.759 57.7062 62.7834 57.5287 62.8438 57.3618C62.9042 57.1948 62.9993 57.042 63.123 56.913C63.2366 56.75 63.359 56.5955 63.4814 56.4324L72.4846 44.6665C73.6908 43.096 74.932 41.5426 76.0771 39.9206C76.6484 38.9877 77.1621 38.0219 77.6155 37.0285H76.6278C70.8238 37.0285 65.0198 37.0285 59.2246 37.0285C59.109 37.0103 58.9908 37.0151 58.8771 37.0427C58.7635 37.0702 58.6566 37.1198 58.5628 37.1886C58.469 37.2575 58.3904 37.3441 58.3314 37.4434C58.2724 37.5427 58.2342 37.6525 58.2193 37.7666C53.5575 52.1671 48.8607 66.562 44.1289 80.9512C44.0259 81.2253 43.9958 81.5207 44.0415 81.8094L46.1481 79.0803L58.971 62.3111C59.1109 62.1223 59.242 61.9335 59.3906 61.7704C59.6039 61.5329 59.9003 61.3828 60.221 61.3499C60.5417 61.317 60.8633 61.4037 61.1219 61.5928C61.3806 61.7819 61.5573 62.0596 61.6171 62.3707C61.6769 62.6818 61.6154 63.0036 61.4447 63.2722C61.0864 63.8129 60.6668 64.3193 60.2647 64.8342L46.1481 83.2769C45.2342 84.5839 44.0102 85.653 42.5817 86.3921C41.6995 86.8552 40.7007 87.0608 39.7033 86.9848C38.7059 86.9088 37.7515 86.5542 36.9526 85.963C35.9175 85.2466 35.0007 84.3782 34.2341 83.3884C23.5294 69.4284 12.8276 55.4398 2.12864 41.4225C1.31484 40.4306 0.731316 39.2762 0.418805 38.04C0.106295 36.8038 0.0723182 35.5155 0.319253 34.2651C0.586175 32.9817 1.20586 31.7945 2.11114 30.8323C4.28764 28.4036 6.48162 26.0007 8.64063 23.5205C9.99315 21.9182 11.7019 20.6418 13.6354 19.7893C15.5689 18.9368 17.6758 18.531 19.7941 18.603C30.9913 18.603 42.1971 18.603 53.3943 18.603C55.8942 18.603 58.3941 18.5515 60.8941 18.603C62.9396 18.5769 64.965 19.003 66.8201 19.8498C68.6751 20.6966 70.3124 21.9423 71.6105 23.4947C72.2835 24.2928 72.3447 24.9708 71.7503 25.5115C71.1559 26.0521 70.4304 25.932 69.67 25.1854C68.7259 24.2843 67.7295 23.4089 66.6544 22.4391ZM55.7631 37.0886H24.5317C29.7005 52.9252 34.8576 68.7161 40.0032 84.4612H40.2829L55.7631 37.0886ZM2.93279 37.0886C3.17105 38.3225 3.74491 39.4701 4.59357 40.4098C14.9778 54.0037 25.365 67.5919 35.7551 81.1743C35.9124 81.3889 36.096 81.5776 36.2621 81.7836L36.4019 81.7064L21.8307 37.08L2.93279 37.0886ZM40.1605 21.641L26.1051 34.514H54.1898L40.1605 21.641ZM16.1229 21.641L23.1157 33.8189L36.804 21.2891C36.6654 21.2592 36.5254 21.2363 36.3844 21.2205C30.6154 21.2205 24.8464 21.2205 19.0861 21.2205C18.0852 21.2719 17.0891 21.3924 16.1054 21.5809L16.1229 21.641ZM43.7268 21.169L43.6307 21.3835L57.2228 33.8189C59.5567 29.7338 61.8293 25.7689 64.2156 21.5466C57.2666 20.7742 50.5186 21.3664 43.7094 21.1003L43.7268 21.169ZM13.7628 22.6966C11.5689 23.838 3.2125 33.158 3.0639 34.5483H20.5458L13.7628 22.6966Z" fill="white"/>
<path d="M54.6957 16.6376C54.3985 16.363 53.8216 16.0798 53.7517 15.6936C53.7042 15.4491 53.7151 15.1971 53.7833 14.9574C53.8515 14.7177 53.9754 14.4968 54.145 14.3119C55.7534 13.2906 57.4316 12.3637 59.1273 11.4712C59.2696 11.3953 59.4271 11.3508 59.5887 11.341C59.7503 11.3311 59.9122 11.3561 60.0629 11.4141C60.2137 11.4722 60.3497 11.5619 60.4614 11.6771C60.573 11.7922 60.6577 11.9299 60.7094 12.0805C60.7914 12.2235 60.8425 12.3815 60.8595 12.5447C60.8764 12.7079 60.8589 12.8727 60.8081 13.029C60.7572 13.1852 60.6741 13.3295 60.5639 13.4528C60.4537 13.576 60.3187 13.6757 60.1675 13.7454C58.6291 14.6323 57.0878 15.4905 55.5436 16.32C55.272 16.4524 54.9881 16.5588 54.6957 16.6376Z" fill="white"/>
<path d="M32.9405 9.41107C32.7132 9.64278 32.4335 10.1663 32.0664 10.2693C31.8297 10.3224 31.5835 10.3198 31.348 10.2616C31.1125 10.2034 30.8944 10.0914 30.7115 9.93456C29.6626 8.32972 28.7011 6.65624 27.7658 4.98276C27.6315 4.72324 27.6077 4.42203 27.6995 4.14527C27.7913 3.86851 27.9912 3.63882 28.2553 3.50665C28.3666 3.41371 28.4958 3.34381 28.6352 3.30114C28.7747 3.25846 28.9215 3.2439 29.0668 3.25833C29.2121 3.27276 29.353 3.31588 29.4809 3.3851C29.6088 3.45432 29.7211 3.5482 29.8112 3.66112C30.9038 5.37752 31.8828 7.09392 32.888 8.81032C32.9287 9.00796 32.9463 9.20952 32.9405 9.41107Z" fill="white"/>
<path d="M52.793 4.35611C52.6508 4.73936 52.4874 5.11468 52.3035 5.48036C51.5255 6.82773 50.7389 8.17509 49.9435 9.5053C49.4452 10.3635 48.711 10.621 48.0292 10.2434C47.3474 9.86575 47.1988 9.12771 47.697 8.26951C48.5187 6.8449 49.349 5.43745 50.1882 3.97851C50.244 3.8396 50.3273 3.7129 50.4333 3.60572C50.5392 3.49853 50.6657 3.41296 50.8054 3.35394C50.9451 3.29492 51.0953 3.2636 51.2474 3.2618C51.3995 3.26 51.5505 3.28774 51.6916 3.34344C52.114 3.61801 52.4862 3.96033 52.793 4.35611Z" fill="white"/>
<path d="M26.6748 15.0923C26.6748 16.1564 25.7307 16.8087 24.9266 16.4396C23.1784 15.5814 21.5264 14.5945 19.8831 13.599C19.745 13.5168 19.6265 13.4065 19.5356 13.2756C19.4447 13.1446 19.3835 12.9959 19.3561 12.8397C19.3288 12.6835 19.3359 12.5233 19.3771 12.37C19.4182 12.2168 19.4924 12.0739 19.5946 11.9512C19.6616 11.8167 19.7561 11.6971 19.8723 11.6C19.9884 11.5028 20.1237 11.4303 20.2697 11.3868C20.4157 11.3433 20.5693 11.3298 20.7208 11.3472C20.8724 11.3646 21.0186 11.4125 21.1505 11.4878C22.8025 12.346 24.4371 13.29 26.0454 14.2598C26.4038 14.4486 26.5524 14.912 26.6748 15.0923Z" fill="white"/>
</svg>
