<svg width="77" height="83" viewBox="0 0 77 83" fill="none" xmlns="http://www.w3.org/2000/svg">
<g clip-path="url(#clip0_408_808)">
<path d="M71.2321 82.345H5.43194C5.3736 82.2934 5.30854 82.2503 5.2386 82.2168C2.19573 81.3393 0.671488 79.3079 0.665884 76.1226C0.665884 64.0653 0.665884 52.0051 0.665884 39.9421C0.65122 39.5149 0.725232 39.0894 0.883098 38.6932C1.04096 38.2971 1.27914 37.9392 1.58211 37.6429C3.3305 35.8565 5.02846 34.0274 6.76845 32.2325C6.95862 32.0555 7.10834 31.8382 7.20709 31.596C7.30584 31.3539 7.35122 31.0927 7.34004 30.8307C7.34004 22.6596 7.34004 14.4855 7.34004 6.30868C7.31973 5.73657 7.35634 5.16385 7.44931 4.59923C7.70724 3.24304 8.43924 2.02762 9.51004 1.17762C10.5808 0.327614 11.918 -0.0995153 13.2745 -0.0248347H63.4988C67.3822 -0.0248347 69.6854 2.31711 69.6854 6.27448C69.6854 14.6337 69.6854 22.9958 69.6854 31.3607C69.7046 31.7945 69.8709 32.2083 70.1561 32.5316C71.7952 34.2411 73.468 35.9505 75.1575 37.66C75.4394 37.9364 75.6602 38.2706 75.8052 38.6406C75.9501 39.0105 76.0159 39.4076 75.9981 39.8053C75.9981 43.5063 75.9981 47.2073 75.9981 50.9168C75.9981 59.333 75.9981 67.7492 75.9981 76.1653C76.0705 77.5435 75.6576 78.9027 74.8335 79.9992C74.0093 81.0957 72.8278 81.8577 71.501 82.1484C71.404 82.2029 71.3137 82.2688 71.2321 82.345ZM40.7108 59.5324L41.232 59.8486L63.7005 73.1481C63.9829 73.2935 64.248 73.4713 64.4907 73.6781C64.685 73.8667 64.8096 74.1177 64.8433 74.3887C64.877 74.6597 64.8177 74.9343 64.6756 75.1662C64.5335 75.398 64.3171 75.573 64.0629 75.6616C63.8088 75.7501 63.5323 75.7469 63.2802 75.6525C62.9681 75.506 62.6649 75.3405 62.3724 75.1568L3.71717 40.4464C3.52384 40.3353 3.3221 40.2498 3.06993 40.1216C3.06993 40.3524 3.06993 40.4891 3.06993 40.6173C3.06993 52.5493 3.06993 64.4784 3.06993 76.4046C3.06993 78.55 4.52412 79.9261 6.73482 79.9261H70.0132C70.5025 79.9704 70.9954 79.9052 71.4572 79.735C71.9191 79.5648 72.3386 79.2938 72.6864 78.941C73.0341 78.5882 73.3016 78.1622 73.4701 77.693C73.6385 77.2238 73.7038 76.7228 73.6613 76.2252C73.6613 64.43 73.6613 52.6348 73.6613 40.8396C73.6613 40.6259 73.6613 40.4037 73.6025 40.1301L73.0981 40.3866C70.7025 41.7968 68.3153 43.2157 65.9196 44.6602C65.7859 44.7624 65.6324 44.8346 65.4692 44.8721C65.306 44.9096 65.1369 44.9116 64.9729 44.8779C64.8089 44.8442 64.6538 44.7756 64.5178 44.6766C64.3818 44.5775 64.2679 44.4503 64.1837 44.3033C64.0994 44.1564 64.0468 43.9929 64.0291 43.8238C64.0115 43.6546 64.0293 43.4836 64.0813 43.3219C64.1333 43.1602 64.2184 43.0115 64.331 42.8857C64.4436 42.7599 64.581 42.6597 64.7344 42.5918C65.3317 42.1999 65.949 41.8404 66.5837 41.5148C66.8327 41.4104 67.0414 41.2262 67.178 40.9901C67.3145 40.7541 67.3715 40.4791 67.3402 40.2071C67.3402 28.919 67.3402 17.6338 67.3402 6.35143C67.3402 3.71888 66.1046 2.45386 63.524 2.45386H13.4846C10.9629 2.45386 9.68524 3.71886 9.68524 6.28304C9.68524 17.6794 9.68524 29.0444 9.68524 40.378C9.66197 40.6489 9.72233 40.9204 9.85792 41.1548C9.99352 41.3892 10.1976 41.5748 10.4418 41.6857C19.5031 47.0249 28.5617 52.3869 37.6175 57.7716C37.8357 57.9303 38.0973 58.0157 38.3656 58.0157C38.6339 58.0157 38.8955 57.9303 39.1137 57.7716C46.0513 53.6405 52.9916 49.5264 59.9347 45.4294C60.1587 45.2878 60.3951 45.1676 60.6408 45.0705C60.891 44.9813 61.1637 44.9819 61.4135 45.0723C61.6632 45.1626 61.875 45.3372 62.0136 45.567C62.1522 45.7969 62.2091 46.068 62.175 46.3354C62.1409 46.6027 62.0177 46.8501 61.826 47.0363C61.5843 47.2401 61.3223 47.4177 61.0443 47.5662L47.0403 55.8571L40.7108 59.5324ZM7.28961 35.6001L4.49049 38.0959L7.32323 39.8053L7.28961 35.6001ZM69.719 35.6941V39.5831L72.2407 38.0703L69.9208 35.8138C69.8561 35.7769 69.7887 35.7455 69.719 35.7198V35.6941Z" fill="white"/>
<path d="M34.541 9.81229C34.541 9.35929 34.541 8.95757 34.541 8.61568C34.5285 8.2323 34.5925 7.85032 34.7292 7.49281C34.866 7.13531 35.0726 6.80971 35.3366 6.53568C35.6006 6.26166 35.9165 6.04489 36.2652 5.8985C36.6138 5.75211 36.9881 5.67912 37.3653 5.68396C38.105 5.68396 38.8447 5.68396 39.576 5.68396C39.9602 5.67773 40.3415 5.75152 40.6966 5.90077C41.0517 6.05002 41.373 6.27157 41.6407 6.5518C41.9084 6.83203 42.1169 7.16502 42.2533 7.53024C42.3897 7.89547 42.4512 8.2852 42.434 8.67549C42.434 9.01738 42.434 9.36784 42.434 9.81229H45.149C45.5235 9.78031 45.9003 9.83133 46.2535 9.96183C46.6067 10.0923 46.9278 10.2992 47.1947 10.5682C47.4617 10.8372 47.668 11.1618 47.7995 11.5198C47.931 11.8777 47.9846 12.2604 47.9565 12.6414C47.9565 15.5389 47.9565 18.4279 47.9565 21.3254C47.9905 21.7023 47.9433 22.0822 47.8183 22.4386C47.6933 22.7951 47.4935 23.1196 47.2328 23.3897C46.972 23.6597 46.6566 23.8687 46.3083 24.0023C45.9601 24.1359 45.5875 24.1908 45.2163 24.1631C40.7332 24.1631 36.2501 24.1631 31.7671 24.1631C31.3944 24.2008 31.0182 24.1535 30.6657 24.0248C30.3132 23.8961 29.9933 23.6892 29.7293 23.4191C29.4653 23.149 29.2637 22.8225 29.1393 22.4633C29.0149 22.1041 28.9707 21.7212 29.01 21.3425C29.01 18.445 29.01 15.556 29.01 12.6585C28.9756 12.2748 29.0242 11.8882 29.1524 11.5256C29.2805 11.163 29.4851 10.8334 29.7518 10.5598C30.0185 10.2861 30.3409 10.0751 30.6963 9.94157C31.0517 9.80801 31.4315 9.75514 31.8091 9.78665L34.541 9.81229ZM38.4076 21.7784C40.5427 21.7784 42.6777 21.7784 44.8044 21.7784C45.3508 21.7784 45.645 21.6759 45.645 21.0348C45.645 18.3339 45.645 15.633 45.645 12.9235C45.645 12.3594 45.4684 12.197 44.9137 12.2055C40.6491 12.2055 36.3846 12.2055 32.1201 12.2055C31.5569 12.2055 31.414 12.3936 31.414 12.9406C31.414 15.6415 31.414 18.3453 31.414 21.0519C31.414 21.616 31.5906 21.787 32.1369 21.7784C34.1963 21.7613 36.3062 21.7784 38.4076 21.7784ZM40.0047 9.76957C40.1644 8.06012 40.1644 8.06012 38.5841 8.06012H37.9537C36.9366 8.06012 36.903 8.10285 36.9114 9.15416V9.73537L40.0047 9.76957Z" fill="white"/>
<path d="M38.4908 46.4805H45.7618C46.7032 46.4805 47.2244 46.9078 47.2412 47.6514C47.258 48.395 46.7284 48.8907 45.745 48.8907H31.203C30.2616 48.8907 29.732 48.4549 29.7152 47.7113C29.6984 46.9677 30.2448 46.4805 31.2198 46.4805H38.4908Z" fill="white"/>
<path d="M60.5739 31.1384H17.007C16.6726 31.1384 16.3518 31.0033 16.1154 30.7629C15.8789 30.5224 15.7461 30.1963 15.7461 29.8563C15.7461 29.5163 15.8789 29.1902 16.1154 28.9497C16.3518 28.7093 16.6726 28.5742 17.007 28.5742H60.5739C60.9083 28.5742 61.229 28.7093 61.4655 28.9497C61.7019 29.1902 61.8348 29.5163 61.8348 29.8563C61.8348 30.1963 61.7019 30.5224 61.4655 30.7629C61.229 31.0033 60.9083 31.1384 60.5739 31.1384Z" fill="white"/>
<path d="M60.5739 38.9587H17.007C16.6726 38.9587 16.3518 38.8236 16.1154 38.5832C15.8789 38.3427 15.7461 38.0166 15.7461 37.6766C15.7461 37.3366 15.8789 37.0105 16.1154 36.77C16.3518 36.5296 16.6726 36.3945 17.007 36.3945H60.5739C60.9083 36.3945 61.229 36.5296 61.4655 36.77C61.7019 37.0105 61.8348 37.3366 61.8348 37.6766C61.8348 38.0166 61.7019 38.3427 61.4655 38.5832C61.229 38.8236 60.9083 38.9587 60.5739 38.9587Z" fill="white"/>
</g>
<defs>
<clipPath id="clip0_408_808">
<rect width="75.3659" height="82.3442" fill="white" transform="translate(0.648438)"/>
</clipPath>
</defs>
</svg>
