<svg width="89" height="85" viewBox="0 0 89 85" fill="none" xmlns="http://www.w3.org/2000/svg">
<path d="M0.0703125 59.2863C0.288633 58.399 0.69183 57.5657 1.25448 56.839C1.81713 56.1123 2.52703 55.5079 3.33942 55.064C1.8622 53.0472 1.79227 50.773 1.83598 48.5417C1.83598 46.8253 1.83598 45.1089 1.83598 43.3925C1.80146 42.6702 1.92225 41.949 2.19049 41.2756C2.45873 40.6022 2.86839 39.9919 3.39283 39.4843C3.91726 38.9767 4.54471 38.5832 5.2343 38.3294C5.92389 38.0757 6.66016 37.9674 7.39521 38.0116H12.9894C13.6962 37.9855 14.4008 38.102 15.0599 38.3538C15.719 38.6056 16.3185 38.9874 16.8215 39.4755C17.3244 39.9637 17.7201 40.5479 17.9841 41.1921C18.2481 41.8362 18.3748 42.5267 18.3564 43.2208C18.3564 45.641 18.3564 48.0697 18.3564 50.4898C18.3592 51.9495 17.9574 53.3824 17.1938 54.6349C18.1641 55.7591 19.1081 56.7718 19.9647 57.8446C21.6371 59.9615 23.2776 62.1012 24.8859 64.2639C25.017 64.4614 25.1997 64.6205 25.415 64.7247C25.6303 64.8289 25.8703 64.8743 26.1096 64.8561C27.5344 64.8132 28.9679 64.8561 30.5325 64.8561C30.6028 63.8045 30.6028 62.7495 30.5325 61.6979C29.9906 57.6987 32.2807 55.5017 35.5586 53.9741L36.2229 53.6566C35.2963 49.9663 35.7334 46.2675 35.7771 42.6029C35.7771 40.1227 38.1459 38.1231 40.8119 38.0802C44.116 38.0287 47.4201 38.0802 50.7242 38.0802C50.9266 38.0488 51.1337 38.0643 51.3289 38.1257C51.5241 38.187 51.7019 38.2924 51.8481 38.4335C51.9943 38.5745 52.1047 38.7472 52.1707 38.9377C52.2366 39.1283 52.2561 39.3313 52.2276 39.5306C52.2276 43.2552 52.2276 46.9712 52.2276 50.6872C52.1537 51.6163 52.0165 52.5395 51.8168 53.4506C52.6909 53.914 53.6087 54.3088 54.4391 54.8838C56.6942 56.2569 58.0665 58.102 57.8305 60.8912C57.7169 62.1785 57.8305 63.4658 57.8305 64.899C59.535 64.899 61.1871 64.899 62.8391 64.899C63.0489 64.899 63.2849 64.5729 63.451 64.3583C65.1992 62.1613 66.825 59.9386 68.5469 57.7502C69.3424 56.7461 70.2427 55.8106 71.1692 54.7465C70.0241 53.0901 69.9455 51.0219 69.9892 48.9107C69.9892 47.057 69.9892 45.1947 69.9892 43.3324C69.971 42.639 70.0972 41.9493 70.3599 41.3054C70.6227 40.6615 71.0165 40.0771 71.5173 39.5878C72.018 39.0986 72.6152 38.7148 73.2723 38.46C73.9294 38.2052 74.6325 38.0847 75.3387 38.106C77.2879 38.106 79.2459 38.106 81.1951 38.106C82.5326 38.0595 83.8346 38.5341 84.8171 39.4264C85.7996 40.3187 86.3828 41.5562 86.4397 42.869C86.597 45.6274 86.597 48.3922 86.4397 51.1506C86.2058 52.5621 85.8311 53.9477 85.3208 55.2871L85.8103 55.639C86.5736 56.1741 87.1967 56.8795 87.6282 57.697C88.0598 58.5146 88.2875 59.4211 88.2928 60.3419C88.2928 63.1397 88.2928 65.9288 88.2928 68.718C88.2928 69.7049 87.7945 70.2541 86.9729 70.237C86.1512 70.2198 85.7142 69.6877 85.7142 68.7437C85.7142 66.0061 85.7142 63.277 85.7142 60.5393C85.7454 59.8714 85.569 59.21 85.2084 58.6428C84.8477 58.0757 84.3199 57.6297 83.695 57.364C83.5339 57.3008 83.361 57.2719 83.1877 57.2793C83.0144 57.2867 82.8447 57.3302 82.6898 57.4069C81.3338 58.2533 79.7561 58.6935 78.1494 58.6737C76.5428 58.6539 74.9768 58.1749 73.6429 57.2953C73.4925 57.2124 73.3259 57.1619 73.1541 57.1471C72.9823 57.1323 72.8092 57.1535 72.6464 57.2095C72.172 57.4349 71.7497 57.7533 71.4052 58.1449C69.2724 60.874 67.1484 63.6031 65.0768 66.3751C64.843 66.7252 64.5175 67.0071 64.1346 67.1913C63.7517 67.3755 63.3254 67.4552 62.9003 67.4221C60.1731 67.3792 57.4372 67.4221 54.71 67.4221C54.2187 67.4197 53.7391 67.5695 53.3396 67.8504C52.9401 68.1312 52.6411 68.5287 52.4852 68.9861C52.3292 69.4436 52.3243 69.9377 52.4711 70.3981C52.6179 70.8584 52.9089 71.2616 53.3027 71.55C53.7539 71.839 54.2766 72.0022 54.8149 72.022C58.3113 72.0649 61.8864 72.022 65.4177 72.022C65.8768 72.0067 66.3247 71.8784 66.7202 71.649C67.1157 71.4196 67.4463 71.0964 67.6816 70.709L72.7601 64.0837L72.9174 63.8863C73.5293 63.1139 74.281 62.9423 74.9016 63.4315C75.0472 63.5477 75.1661 63.6928 75.2504 63.8574C75.3347 64.022 75.3826 64.2022 75.3908 64.3862C75.3991 64.5703 75.3676 64.7539 75.2983 64.9252C75.2291 65.0964 75.1236 65.2512 74.989 65.3796C73.774 66.9844 72.5066 68.5549 71.3265 70.1855C70.9973 70.6573 70.8095 71.2103 70.7846 71.7817C70.7322 74.8283 70.7846 77.8749 70.7846 80.9216V81.8828H85.7317V76.7336C85.7317 76.0298 85.7317 75.3261 85.7317 74.6224C85.734 74.293 85.8682 73.9778 86.1054 73.7449C86.3426 73.5121 86.6637 73.3802 86.9991 73.378C87.1651 73.3746 87.3302 73.4035 87.4848 73.463C87.6394 73.5225 87.7805 73.6114 87.8999 73.7247C88.0194 73.838 88.1148 73.9733 88.1807 74.123C88.2466 74.2726 88.2817 74.4336 88.284 74.5966C88.284 77.4573 88.284 80.3323 88.284 83.2215C88.2912 83.5382 88.1716 83.8449 87.951 84.076C87.7304 84.307 87.4263 84.444 87.104 84.4573C86.9033 84.4744 86.7015 84.4744 86.5009 84.4573H1.89717C1.5417 84.4933 1.183 84.4322 0.860648 84.2808C0.538294 84.1294 0.264811 83.8935 0.0703125 83.5991V74.159C0.524842 73.6269 1.00559 73.1463 1.8185 73.4638C2.63141 73.7813 2.6926 74.425 2.6926 75.1373C2.6926 76.3474 2.6926 77.5574 2.6926 78.7761V81.8656H17.6484V81.0074C17.6484 77.9093 17.6484 74.8112 17.6484 71.7131C17.6316 71.1933 17.4616 70.6895 17.1589 70.2627C15.9177 68.5463 14.6153 66.9243 13.3391 65.2594C13.1361 65.0517 13.0227 64.7749 13.0227 64.487C13.0227 64.1991 13.1361 63.9224 13.3391 63.7147C13.6939 63.4372 14.1354 63.2886 14.589 63.2941C14.9037 63.2941 15.2533 63.6975 15.4631 63.9979C17.2638 66.2978 19.0382 68.615 20.8126 70.9407C21.063 71.3021 21.4031 71.5949 21.8007 71.7916C22.1983 71.9883 22.6403 72.0824 23.0852 72.0649C26.4942 72.0649 29.9119 72.0649 33.3296 72.0649C33.7025 72.0767 34.0747 72.0274 34.431 71.919C34.953 71.7376 35.3907 71.3772 35.6637 70.9042C35.9367 70.4312 36.0266 69.8773 35.917 69.3444C35.842 68.8062 35.5682 68.3138 35.1475 67.961C34.7268 67.6081 34.1887 67.4193 33.6355 67.4307C30.8559 67.4307 28.0676 67.4307 25.2879 67.4307C24.9032 67.4526 24.5194 67.3754 24.1744 67.2068C23.8294 67.0382 23.5353 66.784 23.3212 66.4695C21.2409 63.7147 19.1168 60.977 17.0015 58.2393C16.7885 57.9389 16.5357 57.6676 16.2498 57.4326C16.019 57.2138 15.7167 57.0826 15.3965 57.0621C15.0764 57.0417 14.7593 57.1334 14.5016 57.3211C13.2293 58.1603 11.735 58.6163 10.2023 58.6331C8.66962 58.6498 7.16534 58.2266 5.87429 57.4155C5.65785 57.2587 5.39592 57.1741 5.12693 57.1741C4.85794 57.1741 4.59604 57.2587 4.3796 57.4155C3.84084 57.7208 3.3948 58.1617 3.0875 58.6927C2.78019 59.2237 2.62275 59.8256 2.63141 60.4363C2.63141 63.1139 2.63141 65.7915 2.63141 68.4691C2.63141 69.1986 2.52651 69.8594 1.75731 70.1082C1.42325 70.2087 1.06273 70.1803 0.749252 70.0288C0.435777 69.8773 0.192962 69.6142 0.0703125 69.293V59.2863ZM68.1449 74.6138H20.2619V81.8913H68.1449V74.6138ZM55.2345 64.7617C55.2345 63.1311 55.3131 61.552 55.2345 59.9901C55.2008 59.2731 54.9133 58.5902 54.4216 58.0591C53.3575 57.2636 52.239 56.541 51.0738 55.8965C50.5755 55.5875 50.1997 55.742 49.8238 56.1539C48.4113 57.5644 46.5194 58.4149 44.5089 58.5431C42.4985 58.6713 40.5103 58.0683 38.9239 56.8491C37.4292 55.6991 37.4116 55.6733 35.7596 56.6946C35.0637 57.1113 34.4135 57.5973 33.8191 58.1449C33.4869 58.4147 33.2638 58.7921 33.1898 59.2091C33.1199 61.0542 33.1898 62.8994 33.1898 64.7445C37.0271 64.7445 39.6668 68.0228 38.1284 71.9534H50.2521C48.6787 67.9113 51.4759 64.7102 55.2345 64.7617ZM49.7189 46.6536H38.2945C38.2945 48.0182 38.2945 49.3226 38.2945 50.6099C38.3304 51.9783 38.879 53.2856 39.8354 54.2816C40.7918 55.2776 42.0887 55.8923 43.4779 56.008C44.8224 56.134 46.1674 55.7736 47.2603 54.9945C48.3532 54.2154 49.1188 53.0713 49.413 51.7771C49.6345 50.0782 49.7367 48.3663 49.7189 46.6536ZM72.6027 44.7828C73.7585 44.8978 74.9139 44.5618 75.8194 43.8473C76.0075 43.6785 76.2424 43.5684 76.4944 43.531C76.7464 43.4936 77.004 43.5306 77.2345 43.6373C77.465 43.744 77.6579 43.9156 77.7888 44.1303C77.9198 44.3449 77.9827 44.593 77.9697 44.8428C78.0221 45.3406 78.0658 45.8469 78.162 46.3447C78.7214 49.2111 80.4958 50.3954 83.3629 49.7775C83.5015 49.7291 83.6255 49.6471 83.7233 49.539C83.8211 49.431 83.8896 49.3005 83.9223 49.1596C83.9223 47.1257 83.9835 45.1003 83.9223 43.0664C83.9223 42.3835 83.646 41.7287 83.1543 41.2459C82.6625 40.763 81.9955 40.4918 81.3 40.4918C79.2284 40.4918 77.1655 40.4918 75.0939 40.4918C74.4684 40.4981 73.8667 40.7282 73.4016 41.139C72.9366 41.5498 72.6401 42.113 72.5678 42.7231C72.5503 43.4096 72.6027 44.0619 72.6027 44.7828ZM15.7865 44.7828C15.7865 44.2164 15.7865 43.6929 15.7865 43.1608C15.7866 42.8176 15.7168 42.4778 15.5812 42.1614C15.4456 41.8451 15.247 41.5586 14.997 41.3187C14.747 41.0788 14.4506 40.8904 14.1254 40.7646C13.8001 40.6388 13.4525 40.5782 13.1031 40.5862C11.1276 40.5862 9.14341 40.5862 7.15921 40.5862C6.8141 40.5759 6.47031 40.6326 6.14758 40.7531C5.82485 40.8736 5.52953 41.0555 5.27858 41.2883C5.02763 41.5212 4.82599 41.8004 4.68522 42.1099C4.54444 42.4194 4.46731 42.7532 4.45826 43.0921C4.39708 45.1432 4.45826 47.2029 4.45826 49.2626C4.45826 49.4514 4.65931 49.7775 4.81664 49.8118C6.87951 50.2495 9.02978 50.0264 9.89514 47.4775C10.1405 46.7266 10.3075 45.9531 10.3934 45.169C10.5769 43.5641 11.4598 43.135 12.8146 44.0619C13.6726 44.6706 14.7402 44.9234 15.7865 44.7656V44.7828ZM12.7709 46.9883C11.0227 51.5883 10.2185 52.1805 4.85159 52.4894C4.9827 52.764 5.08762 53.0129 5.22747 53.2532C5.77255 54.171 6.57247 54.9174 7.53371 55.4052C8.49495 55.8931 9.57778 56.1021 10.6556 56.008C11.796 55.9206 12.8798 55.4845 13.7547 54.761C14.6295 54.0375 15.2515 53.063 15.533 51.9745C15.7552 50.494 15.8691 48.9997 15.8739 47.5033L12.7709 46.9883ZM72.594 47.4861C72.594 48.5331 72.594 49.623 72.594 50.7215C72.6421 51.9528 73.106 53.1335 73.9126 54.0775C74.7192 55.0215 75.8228 55.6753 77.0495 55.9358C78.2762 56.1964 79.5563 56.0489 80.6882 55.5166C81.8201 54.9843 82.7395 54.0975 83.3017 52.9957C83.3733 52.8148 83.4288 52.6282 83.4677 52.4379C79.0973 52.9271 76.5711 50.9876 75.6009 47.0141L72.594 47.4861ZM49.6053 40.5518C46.5547 40.5518 43.609 40.4832 40.6546 40.5518C38.9064 40.6119 37.9449 42.2682 38.4169 43.9846H49.6053V40.5518Z" fill="white"/>
<path d="M7.3165 30.1158C3.05965 29.0688 0.778272 26.2024 0.769531 22.023V8.74665C0.769531 3.87208 4.13479 0.59375 9.11713 0.59375H36.5113C41.4762 0.59375 44.8239 3.88066 44.8414 8.76381V10.6519H66.4141C69.7794 10.6519 72.2618 12.5656 72.8824 15.6122C72.9568 16.0835 72.9918 16.56 72.9873 17.0369C72.9873 20.8988 72.9873 24.7607 72.9873 28.6311C73.0687 29.9939 72.6825 31.344 71.8901 32.4658C71.0978 33.5875 69.9453 34.416 68.6168 34.8188C68.4834 34.8884 68.3682 34.9873 68.2803 35.1079C68.1923 35.2285 68.134 35.3675 68.1098 35.5139C68.0574 36.8699 68.1098 38.2172 68.1098 39.5732C68.1098 40.234 67.9875 40.8347 67.2882 41.1008C66.9866 41.2016 66.6597 41.2034 66.357 41.1059C66.0543 41.0083 65.7921 40.8168 65.6099 40.5601C63.9492 38.9124 62.2709 37.299 60.6276 35.6426C60.4488 35.4467 60.2266 35.2937 59.978 35.1955C59.7295 35.0973 59.4613 35.0565 59.1941 35.0762C57.2449 35.0762 55.2869 35.0762 53.3377 35.0762C52.28 35.0762 51.6594 34.5699 51.6943 33.7632C51.7293 32.9565 52.3149 32.5445 53.3289 32.5445C55.6278 32.5445 57.9267 32.5016 60.2255 32.5445C60.7808 32.5818 61.3085 32.7957 61.7289 33.1538C62.9702 34.2781 64.1327 35.4881 65.5313 36.5866C65.5313 35.7971 65.5313 34.999 65.5313 34.2008C65.5313 32.9221 65.8285 32.6218 67.1047 32.4844C68.0037 32.4177 68.8443 32.0215 69.4597 31.3744C70.075 30.7274 70.42 29.8768 70.4262 28.9916C70.4262 24.8722 70.4262 20.7557 70.4262 16.6421C70.4266 15.7492 70.0727 14.8913 69.4395 14.2504C68.8063 13.6095 67.9437 13.2361 67.0347 13.2093C66.4578 13.2093 65.8809 13.2093 65.2865 13.2093H44.8414V14.1876C44.8414 16.7622 44.7715 19.2596 44.8414 21.7999C45.025 27.3782 40.5322 30.5192 36.5113 30.2188C36.4269 30.2141 36.3422 30.2141 36.2578 30.2188C36.4436 30.9111 36.8666 31.5194 37.4557 31.9414C38.0447 32.3634 38.7638 32.5734 39.492 32.5359C41.7646 32.5359 44.0285 32.5359 46.3012 32.5359C46.5285 32.5359 46.7557 32.5359 46.9917 32.5359C47.1632 32.5243 47.3352 32.547 47.4975 32.6026C47.6597 32.6583 47.8088 32.7458 47.9355 32.8598C48.0622 32.9738 48.164 33.1119 48.2347 33.2657C48.3053 33.4195 48.3434 33.5859 48.3465 33.7546C48.3587 33.932 48.3315 34.1098 48.2668 34.2758C48.2021 34.4418 48.1014 34.5921 47.9717 34.7161C47.842 34.8402 47.6864 34.9351 47.5157 34.9943C47.345 35.0535 47.1632 35.0756 46.983 35.059C45.4271 35.059 43.8799 35.059 42.3328 35.059C41.4062 35.059 40.4884 35.059 39.5706 35.059C38.2354 35.0752 36.9308 34.6657 35.8528 33.892C34.7747 33.1183 33.9813 32.0221 33.5918 30.768C33.5594 30.5705 33.4502 30.393 33.2871 30.2729C33.1241 30.1529 32.92 30.0996 32.7177 30.1244C27.1497 30.1244 21.5817 30.1244 16.005 30.1244C15.6197 30.1475 15.2547 30.3023 14.9736 30.5621C13.2254 32.2098 11.5471 33.8919 9.85137 35.5826C9.66189 35.8494 9.38605 36.0456 9.06866 36.1391C8.75128 36.2325 8.41101 36.2179 8.10318 36.0975C7.43013 35.8057 7.32526 35.2393 7.334 34.5355C7.32526 33.1367 7.3165 31.6434 7.3165 30.1158ZM9.89509 31.7464L10.0961 31.8408C11.2324 30.7166 12.3863 29.6181 13.4789 28.4595C13.7327 28.173 14.0495 27.9469 14.4053 27.7982C14.7612 27.6495 15.1468 27.5822 15.533 27.6013C22.6306 27.6013 29.7254 27.6013 36.8172 27.6013C37.5309 27.626 38.2422 27.5074 38.9076 27.2526C39.5729 26.9979 40.1782 26.6124 40.6865 26.1199C41.1947 25.6273 41.5951 25.038 41.8632 24.3881C42.1312 23.7383 42.2613 23.0415 42.2454 22.3405C42.2803 17.6891 42.2803 13.0348 42.2454 8.37762C42.266 7.67605 42.1402 6.97774 41.8759 6.3256C41.6116 5.67347 41.2144 5.08126 40.7085 4.58537C40.2026 4.08947 39.5987 3.70036 38.9341 3.44192C38.2694 3.18349 37.558 3.06118 36.8435 3.08253C27.479 3.08253 18.1174 3.08253 8.75875 3.08253C8.04345 3.06112 7.33127 3.18368 6.66602 3.44264C6.00077 3.70159 5.39654 4.09148 4.89052 4.5883C4.38449 5.08513 3.98739 5.67837 3.72363 6.33152C3.45988 6.98467 3.33505 7.68391 3.35685 8.3862C3.35685 13.009 3.35685 17.6319 3.35685 22.2547C3.32283 22.9409 3.42901 23.6267 3.66911 24.272C3.9092 24.9172 4.27837 25.5088 4.75487 26.0118C5.23138 26.5148 5.80557 26.9192 6.44366 27.201C7.08175 27.4828 7.77083 27.6364 8.47031 27.6528C9.48426 27.73 9.90383 28.1505 9.92131 29.1546C9.90383 30.0214 9.89509 30.8796 9.89509 31.7464Z" fill="white"/>
<path d="M22.7825 16.6581C18.9278 16.6581 15.0818 16.6581 11.2358 16.6581C10.8115 16.6733 10.3921 16.5659 10.0295 16.3492C9.85547 16.2222 9.71956 16.0514 9.63604 15.8549C9.55252 15.6584 9.52447 15.4435 9.55489 15.2327C9.58531 15.0219 9.67305 14.823 9.80887 14.657C9.94469 14.4911 10.1236 14.3641 10.3267 14.2895C10.6489 14.177 10.9903 14.1274 11.3319 14.1436H34.5916C34.7785 14.1295 34.9665 14.1533 35.1436 14.2137C35.3207 14.274 35.4833 14.3696 35.6211 14.4945C35.759 14.6193 35.869 14.7707 35.9446 14.9392C36.0201 15.1077 36.0594 15.2897 36.0601 15.4738C36.0496 15.6502 36.0022 15.8225 35.9209 15.9802C35.8396 16.1378 35.7262 16.2773 35.5876 16.39C35.449 16.5027 35.2883 16.5862 35.1154 16.6353C34.9426 16.6844 34.7613 16.698 34.5828 16.6753H22.7825V16.6581Z" fill="white"/>
<path d="M22.7624 10.0007H11.3991C11.067 10.0007 10.6125 10.0521 10.4114 9.86334C10.0106 9.54724 9.72779 9.10963 9.60723 8.61896C9.59896 8.47793 9.61986 8.33671 9.66864 8.20381C9.71742 8.07091 9.79309 7.94908 9.89108 7.84565C9.98908 7.74222 10.1074 7.65933 10.2388 7.60197C10.3703 7.5446 10.5123 7.51396 10.6562 7.51188C10.9123 7.49474 11.1693 7.49474 11.4254 7.51188H34.1518C34.4081 7.49902 34.6648 7.49902 34.9211 7.51188C35.2135 7.53288 35.4878 7.6593 35.6911 7.86683C35.8944 8.07435 36.0124 8.34834 36.0224 8.63612C36.0659 8.91899 36.0004 9.20763 35.8388 9.44566C35.6772 9.6837 35.431 9.85403 35.1483 9.92342C34.816 9.99848 34.4751 10.0302 34.1343 10.0178L22.7624 10.0007Z" fill="white"/>
<path d="M16.7926 20.8222C18.6806 20.8222 20.5774 20.8222 22.4655 20.8222C23.5144 20.8222 24.0563 21.2513 24.0738 22.0494C24.0913 22.8475 23.5143 23.3539 22.4305 23.3539C18.6777 23.3539 14.9249 23.3539 11.1721 23.3539C10.1582 23.3539 9.57254 22.8819 9.55506 22.1009C9.53758 21.3199 10.1407 20.8222 11.2071 20.8222C13.0689 20.8136 14.9307 20.8222 16.7926 20.8222Z" fill="white"/>
</svg>
