<svg width="70" height="88" viewBox="0 0 70 88" fill="none" xmlns="http://www.w3.org/2000/svg">
<path d="M36.9714 0.792969C38.5885 1.24781 40.2493 1.59109 41.8052 2.19183C44.0474 3.10428 46.0215 4.55282 47.548 6.4056C48.2298 7.19514 48.2385 7.98468 47.5917 8.48244C46.9448 8.98019 46.2805 8.79997 45.59 8.05334C41.7527 3.86532 36.9976 2.32056 31.5083 3.89107C26.019 5.46158 22.8286 9.22049 21.8933 14.713C21.472 17.4411 21.938 20.2302 23.2249 22.6832C24.5118 25.1362 26.554 27.1282 29.0609 28.3755C29.9773 28.7844 30.7872 29.3924 31.4292 30.1536C32.0713 30.9148 32.5287 31.8093 32.767 32.7695C32.8632 33.1814 32.8981 33.6277 32.9681 34.074H33.9908V33.2587C33.9908 29.9031 33.9908 26.5475 33.9908 23.192C34.0055 22.942 33.9574 22.6922 33.8507 22.4648C33.744 22.2373 33.582 22.0391 33.3789 21.8875C32.5048 21.2181 31.7094 20.5058 30.9052 19.7935C30.7533 19.6965 30.6241 19.569 30.526 19.4195C30.4278 19.2699 30.363 19.1017 30.3358 18.9258C30.3085 18.75 30.3195 18.5704 30.3679 18.399C30.4163 18.2276 30.5011 18.0682 30.6167 17.9312C30.7406 17.7926 30.8932 17.6816 31.0643 17.6055C31.2354 17.5294 31.421 17.49 31.6088 17.49C31.7967 17.49 31.9823 17.5294 32.1534 17.6055C32.3245 17.6816 32.4771 17.7926 32.6009 17.9312C33.475 18.6521 34.3491 19.3987 35.2232 20.1797C36.0973 19.4416 36.9714 18.7208 37.7843 18.017C38.5972 17.3133 39.3052 17.3391 39.8297 17.9226C40.3542 18.5062 40.258 19.2185 39.4888 19.9051C38.9792 20.4018 38.4329 20.8607 37.8543 21.2782C37.3688 21.5803 36.981 22.012 36.7364 22.5227C36.4918 23.0334 36.4005 23.6019 36.4732 24.1618C36.5781 27.1483 36.4732 30.1691 36.4732 33.1299V34.0825H37.4609C37.5515 33.505 37.6711 32.9321 37.8193 32.3661C38.1127 31.4956 38.5853 30.6936 39.2079 30.01C39.8304 29.3264 40.5895 28.7759 41.438 28.3927C43.1907 27.5276 44.7234 26.2874 45.923 24.7635C47.1227 23.2396 47.9587 21.4708 48.3696 19.5875C48.8154 17.6553 48.8154 15.6497 48.3696 13.7175C48.3259 13.5544 48.2909 13.3913 48.256 13.2283C48.0899 12.3701 48.457 11.6835 49.2262 11.5119C49.9954 11.3402 50.5199 11.8037 50.7559 12.6619C51.3124 14.6542 51.4316 16.7399 51.1055 18.7808C50.7657 21.3267 49.7897 23.7505 48.2646 25.8363C46.7396 27.9221 44.7127 29.6052 42.3646 30.7356C41.7076 31.0231 41.1462 31.4861 40.7444 32.0719C40.3425 32.6576 40.1165 33.3424 40.0919 34.0482C43.1163 34.5374 43.1163 34.5374 43.4659 37.9873L52.2069 40.3989C55.7033 41.3687 59.1997 42.3041 62.696 43.3253C63.3079 43.5257 63.842 43.9062 64.2257 44.4153C65.9739 46.7753 67.5822 49.1869 69.243 51.5898C70.7465 53.7868 69.951 56.0353 67.3812 56.8677C66.5595 57.1338 65.7554 57.4256 64.9163 57.623C64.3044 57.7774 64.1296 58.0692 64.1383 58.6785C64.1383 64.7975 64.1383 70.9165 64.1383 77.0354C64.1383 78.4772 64.0159 78.6488 62.6174 79.0779C53.7541 81.807 44.8878 84.5218 36.0186 87.2223C35.4762 87.3767 34.9003 87.3767 34.3579 87.2223C25.4596 84.5275 16.5642 81.807 7.67173 79.0608C6.23821 78.6145 6.13331 78.4772 6.13331 76.9496C6.13331 70.8907 6.13331 64.8232 6.13331 58.7644C6.13331 58.095 5.99346 57.7431 5.25922 57.5801C4.38512 57.3827 3.51103 57.0651 2.63693 56.7819C2.13044 56.6406 1.66623 56.3812 1.28377 56.0258C0.901324 55.6705 0.611957 55.2296 0.440303 54.7409C0.268648 54.2522 0.219779 53.7299 0.297857 53.2187C0.375934 52.7074 0.578641 52.2222 0.888741 51.8044C2.63693 49.2183 4.4201 46.6609 6.23821 44.1321C6.55588 43.7442 6.99032 43.4648 7.47943 43.3339C13.6593 41.6175 19.8391 39.9011 26.0277 38.1847C26.2987 38.1161 26.5609 38.0217 26.8057 37.953C27.2165 34.4516 27.2165 34.4516 30.1797 34.031C30.1679 33.3256 29.9499 32.6383 29.5517 32.051C29.1534 31.4637 28.5916 31.0012 27.9333 30.7184C25.787 29.6703 23.9216 28.1417 22.4876 26.2558C18.8776 21.4584 18.0647 16.1805 20.3461 10.6794C22.6275 5.17837 26.9718 1.92579 32.9768 0.956026C33.167 0.914733 33.3539 0.860245 33.5362 0.792969H36.9714ZM33.9208 56.8506H33.7635C32.5048 58.7272 31.2432 60.6038 29.9787 62.4804C29.5923 63.1863 28.9529 63.7263 28.1842 63.9958C27.4156 64.2654 26.5724 64.2452 25.818 63.9393C23.8163 63.3386 21.8233 62.7035 19.8304 62.077C18.8252 61.7681 18.4144 61.2188 18.6329 60.455C18.8514 59.6912 19.5594 59.3651 20.5734 59.6826C22.4614 60.2576 24.367 60.7983 26.2288 61.442C26.3921 61.5245 26.5712 61.5729 26.7546 61.5841C26.9379 61.5952 27.1217 61.5689 27.2942 61.5068C27.4667 61.4447 27.6242 61.3482 27.7568 61.2233C27.8894 61.0984 27.9941 60.9478 28.0644 60.7811C29.1832 59.0132 30.3807 57.2883 31.5608 55.5461C32.094 54.7566 32.6272 53.9584 33.1866 53.1088C32.9331 53.023 32.7495 52.9544 32.5572 52.9029C24.6146 50.7059 16.672 48.5032 8.72938 46.2947C8.63543 46.2519 8.53372 46.2279 8.4302 46.2242C8.32669 46.2205 8.22347 46.2371 8.12658 46.2731C8.0297 46.309 7.9411 46.3636 7.86599 46.4337C7.79089 46.5037 7.73079 46.5878 7.68922 46.6809C6.26444 48.7663 4.81344 50.826 3.37992 52.9029C2.75057 53.8211 2.8642 54.1558 3.92185 54.4819L12.523 57.1595C13.2511 57.3193 13.958 57.5612 14.6295 57.8804C14.8402 58.0207 15.0151 58.2067 15.1409 58.4239C15.2667 58.6412 15.34 58.8839 15.355 59.1334C15.3026 59.5282 14.7606 59.9401 14.3411 60.189C14.1138 60.3177 13.6768 60.189 13.3534 60.0602C11.8761 59.6226 10.4164 59.202 8.89546 58.7043C8.89546 58.9618 8.83428 59.1248 8.83428 59.2879C8.83428 64.9005 8.83428 70.5131 8.83428 76.1172C8.83428 76.675 9.09651 76.8209 9.5423 76.9754L29.9787 83.2402L33.947 84.4503L33.9208 56.8506ZM36.5431 84.3645C36.6815 84.3468 36.8187 84.321 36.9539 84.2872C44.9723 81.8328 52.9878 79.3783 61.0003 76.9239C61.5859 76.7522 61.6471 76.4347 61.6471 75.9369C61.6471 70.4702 61.6471 64.9949 61.6471 59.5282C61.6471 59.2793 61.6471 59.0304 61.6471 58.67C61.2887 58.7644 60.9916 58.8416 60.7031 58.936L44.6285 63.9136C43.8968 64.1982 43.0849 64.2134 42.3426 63.9563C41.6004 63.6992 40.9779 63.1872 40.5902 62.5147C40.1531 61.8882 39.7161 61.2446 39.3053 60.6095L36.5956 56.5759L36.5431 84.3645ZM37.2599 53.0402C39.1042 55.8122 40.8786 58.4382 42.6268 61.0815C43.0114 61.6565 43.5009 61.6393 44.0429 61.4591L66.5683 54.4476C67.6085 54.1215 67.7221 53.7696 67.084 52.8599C65.6854 50.8346 64.2607 48.8264 62.8884 46.7753C62.8347 46.659 62.758 46.5544 62.6628 46.4676C62.5675 46.3807 62.4556 46.3134 62.3336 46.2694C62.2115 46.2255 62.0818 46.2058 61.9519 46.2117C61.8221 46.2175 61.6947 46.2486 61.5772 46.3033C55.6217 47.9682 49.6691 49.6188 43.7194 51.2551L37.2599 53.0402ZM12.4618 44.6641L12.8726 44.8015C20.1509 46.8154 27.435 48.8178 34.725 50.8088C35.1377 50.8928 35.5657 50.8691 35.9662 50.7402C40.628 49.4815 45.2637 48.2085 49.8731 46.9212L58.0546 44.647C57.5913 44.4839 57.3378 44.3724 57.0669 44.3037C52.8188 43.128 48.5707 41.9694 44.3313 40.7851C43.702 40.6134 43.16 40.416 42.7317 41.1541C42.6295 41.2939 42.4992 41.4118 42.3489 41.5003C42.1986 41.5889 42.0314 41.6463 41.8576 41.669C41.2195 41.7377 41.0447 42.1153 40.8611 42.6216C40.442 43.746 39.6865 44.7198 38.6938 45.4152C37.701 46.1106 36.5173 46.4951 35.298 46.5183C34.0787 46.5415 32.8808 46.2023 31.8613 45.5452C30.8418 44.8881 30.0485 43.9438 29.5853 42.8362C29.3318 42.2097 29.1046 41.7034 28.3179 41.5918C27.9837 41.5104 27.6951 41.3041 27.5137 41.0168C27.199 40.4933 26.8232 40.5705 26.3599 40.6993L12.96 44.4153C12.8027 44.494 12.6509 44.5829 12.5055 44.6813L12.4618 44.6641ZM29.5591 39.2661H40.8437V36.6915H29.6028L29.5591 39.2661ZM32.0852 41.8407C32.3428 42.5263 32.8275 43.1071 33.4615 43.49C34.0955 43.8728 34.8422 44.0355 35.5816 43.9518C36.9452 43.7545 38.0903 42.8877 38.2039 41.8407H32.0852Z" fill="white"/>
<path d="M12.6375 16.8582C12.2971 16.8839 11.9552 16.8839 11.6148 16.8582C11.3041 16.8426 11.012 16.708 10.8012 16.4834C10.5904 16.2588 10.4777 15.962 10.4872 15.6567C10.4664 15.5082 10.4761 15.3572 10.5156 15.2124C10.5552 15.0677 10.6238 14.9321 10.7174 14.8138C10.8111 14.6955 10.9279 14.5967 11.061 14.5233C11.1941 14.45 11.3408 14.4035 11.4924 14.3865C12.2876 14.2878 13.0923 14.2878 13.8875 14.3865C14.0419 14.3991 14.1921 14.4424 14.3288 14.514C14.4656 14.5857 14.5859 14.684 14.6825 14.8029C14.7791 14.9219 14.85 15.059 14.8906 15.2058C14.9312 15.3526 14.9409 15.5061 14.9189 15.6567C14.9235 15.8114 14.8968 15.9655 14.8402 16.1099C14.7837 16.2544 14.6984 16.3864 14.5894 16.4982C14.4804 16.61 14.3499 16.6994 14.2053 16.7612C14.0608 16.823 13.9052 16.856 13.7476 16.8582C13.375 16.8796 13.0014 16.8796 12.6288 16.8582H12.6375Z" fill="white"/>
<path d="M57.7157 16.8675C57.4012 16.8847 57.0861 16.8847 56.7716 16.8675C56.6129 16.8664 56.4559 16.8344 56.3099 16.7732C56.1639 16.712 56.0318 16.6229 55.9212 16.5111C55.8105 16.3993 55.7236 16.267 55.6656 16.1219C55.6075 15.9768 55.5794 15.8219 55.5829 15.6661C55.5635 15.5107 55.5768 15.353 55.6221 15.2029C55.6674 15.0528 55.7437 14.9135 55.8461 14.7936C55.9486 14.6736 56.0751 14.5757 56.2178 14.5058C56.3605 14.4359 56.5163 14.3956 56.6755 14.3873C57.4161 14.3058 58.1638 14.3058 58.9044 14.3873C59.0639 14.3946 59.2202 14.4339 59.3636 14.5027C59.5071 14.5714 59.6347 14.6682 59.7387 14.7872C59.8426 14.9061 59.9207 15.0447 59.9682 15.1944C60.0156 15.344 60.0314 15.5016 60.0145 15.6575C60.018 15.8137 59.99 15.9691 59.932 16.1146C59.874 16.2602 59.7873 16.393 59.6768 16.5055C59.5663 16.618 59.4342 16.7079 59.2881 16.77C59.1421 16.8322 58.9849 16.8653 58.8258 16.8675C58.4586 16.8933 58.0828 16.8675 57.7157 16.8675Z" fill="white"/>
<path d="M14.6906 4.09668C15.5647 4.09668 17.4178 5.33249 17.4789 5.93323C17.5501 6.16226 17.5515 6.40674 17.4829 6.63653C17.4143 6.86633 17.2788 7.0714 17.0929 7.22648C16.9071 7.38157 16.6791 7.47989 16.4371 7.50933C16.195 7.53877 15.9495 7.49804 15.7307 7.39217C15.0996 7.13139 14.5397 6.72865 14.0962 6.21643C13.9582 6.02113 13.8649 5.79882 13.8226 5.56476C13.7804 5.33071 13.7902 5.09045 13.8514 4.86048C13.9651 4.50003 14.4983 4.25116 14.6906 4.09668Z" fill="white"/>
<path d="M53.9499 7.5647C53.7838 7.43597 53.2856 7.23859 53.1457 6.89531C53.0631 6.68394 53.0296 6.45712 53.0478 6.23142C53.0659 6.00572 53.1352 5.78686 53.2506 5.59084C53.795 5.01523 54.4481 4.5489 55.1736 4.21772C55.3973 4.16338 55.631 4.1631 55.8548 4.21691C56.0786 4.27072 56.2858 4.37701 56.4585 4.52668C56.5914 4.69694 56.6872 4.89225 56.7398 5.10044C56.7925 5.30862 56.8008 5.52523 56.7645 5.73674C56.6334 6.33748 54.824 7.5647 53.9499 7.5647Z" fill="white"/>
<path d="M14.744 27.1479C14.5342 26.9934 14.001 26.7703 13.8699 26.4098C13.801 26.1816 13.7834 25.9415 13.8181 25.7059C13.8528 25.4703 13.939 25.245 14.0709 25.0453C14.547 24.5066 15.146 24.0861 15.8191 23.818C16.0513 23.7519 16.2959 23.7392 16.5339 23.7808C16.7719 23.8225 16.9969 23.9175 17.1915 24.0583C17.3281 24.24 17.4257 24.447 17.4783 24.6668C17.5309 24.8867 17.5374 25.1147 17.4974 25.3371C17.4012 25.8949 15.5831 27.1221 14.744 27.1479Z" fill="white"/>
<path d="M53.8941 23.6475C54.7682 23.6475 56.6475 24.8833 56.7174 25.484C56.7471 25.7079 56.7315 25.9353 56.6715 26.1533C56.6115 26.3712 56.5083 26.5754 56.3678 26.7541C56.183 26.8909 55.9681 26.9831 55.7403 27.0234C55.5126 27.0636 55.2784 27.0508 55.0566 26.9859C54.3899 26.6871 53.7944 26.2544 53.3084 25.7157C53.1722 25.5295 53.0809 25.3152 53.0416 25.0892C53.0022 24.8632 53.0157 24.6314 53.0812 24.4113C53.2036 24.0422 53.7193 23.8019 53.8941 23.6475Z" fill="white"/>
</svg>
