<svg width="83" height="83" viewBox="0 0 83 83" fill="none" xmlns="http://www.w3.org/2000/svg">
<path d="M12.5705 51.6371C13.6107 50.6159 14.6159 49.6118 15.6211 48.6163C17.0615 47.1509 18.7932 45.9918 20.7088 45.2109C22.6245 44.4299 24.6831 44.0438 26.7571 44.0764C35.3407 44.0764 43.933 44.1365 52.5167 44.0764C55.4624 44.0764 57.9623 44.7029 59.7454 47.2861C61.144 46.0245 62.4813 44.8059 63.8274 43.5786C66.5284 41.1328 69.1769 38.6268 71.9303 36.241C72.8686 35.3644 74.0641 34.7998 75.3474 34.6273C76.6306 34.4548 77.9367 34.6831 79.0804 35.2799C80.2751 35.797 81.2776 36.6643 81.9505 37.7629C82.6234 38.8614 82.9338 40.1374 82.839 41.416C82.8047 42.656 82.3803 43.8551 81.624 44.8488C77.306 50.7189 73.0404 56.6319 68.6437 62.4505C67.2553 64.3534 65.4151 65.8951 63.2827 66.9419C61.1503 67.9887 58.7899 68.5091 56.4064 68.4579C49.0815 68.4579 41.7565 68.4579 34.4316 68.4579C33.8068 68.4254 33.1825 68.5294 32.6036 68.7624C32.0247 68.9954 31.5057 69.3516 31.0838 69.8052C31.18 69.9597 31.2674 70.1056 31.3548 70.2343C31.909 71.0083 32.1665 71.9497 32.0817 72.8921C31.9969 73.8344 31.5753 74.717 30.8915 75.3835C28.8549 77.4518 26.7658 79.4686 24.6854 81.4939C24.5637 81.6489 24.4094 81.7764 24.233 81.8677C24.0566 81.959 23.8623 82.0119 23.6632 82.0229C23.4641 82.034 23.265 82.0028 23.0793 81.9316C22.8935 81.8604 22.7256 81.7507 22.5868 81.6101C22.4481 81.4696 22.3418 81.3013 22.2751 81.1168C22.2084 80.9323 22.183 80.7359 22.2005 80.5409C22.2179 80.3459 22.278 80.1569 22.3764 79.9866C22.4749 79.8164 22.6095 79.669 22.7712 79.5544C24.7117 77.632 26.6696 75.7182 28.6101 73.8044C29.5716 72.8518 29.5804 72.2253 28.6101 71.2899C22.7828 65.54 16.9322 59.7958 11.0583 54.0573C10.1055 53.1133 9.4587 53.1133 8.4972 54.0573L3.01661 59.4382C2.86802 59.5841 2.7369 59.7214 2.5883 59.8587C2.4623 60.0056 2.30613 60.1248 2.13 60.2084C1.95386 60.292 1.76175 60.3381 1.5662 60.3438C1.37065 60.3494 1.17608 60.3145 0.995229 60.2413C0.814377 60.168 0.651316 60.0581 0.516701 59.9188C0.385682 59.7859 0.284125 59.6278 0.218431 59.4545C0.152738 59.2811 0.124328 59.0963 0.135004 58.9117C0.14568 58.7271 0.195213 58.5466 0.280465 58.3817C0.365716 58.2167 0.484844 58.0709 0.630338 57.9535C1.38206 57.1811 2.16875 56.4345 2.93795 55.6793L6.43433 52.2465C8.33112 50.4013 10.1492 50.2039 12.5705 51.6371ZM29.1783 67.8142C30.9265 66.0978 33.0768 65.7116 35.4718 65.7288C42.4646 65.7889 49.4573 65.7717 56.4501 65.7288C58.4147 65.7781 60.3616 65.3522 62.1191 64.4886C63.8766 63.6251 65.3909 62.3504 66.5284 60.777C70.8552 55.0099 75.1033 49.1913 79.3601 43.3727C79.9516 42.6291 80.2337 41.6929 80.1493 40.753C80.065 39.8132 79.6205 38.9398 78.9056 38.3093C78.1861 37.6666 77.2457 37.3148 76.273 37.3243C75.3003 37.3339 74.3673 37.7041 73.661 38.3608C69.4916 42.1197 65.3571 45.9044 61.2139 49.6976C60.9972 49.9034 60.869 50.1829 60.8555 50.4786C60.8979 51.4318 60.7375 52.3832 60.3844 53.2721C60.0314 54.161 59.4935 54.968 58.8052 55.6414C58.1168 56.3149 57.293 56.8401 56.3863 57.1835C55.4797 57.5269 54.51 57.681 53.5393 57.6359C49.2825 57.5501 45.0344 57.6359 40.7863 57.6359C40.5274 57.6575 40.2672 57.6575 40.0083 57.6359C39.6803 57.5911 39.3799 57.4313 39.1625 57.1861C38.945 56.9408 38.8253 56.6266 38.8253 56.3015C38.8253 55.9763 38.945 55.6621 39.1625 55.4169C39.3799 55.1716 39.6803 55.0118 40.0083 54.967C40.2643 54.9455 40.5216 54.9455 40.7775 54.967H53.7928C54.5146 55.001 55.2326 54.8446 55.872 54.5141C56.5114 54.1835 57.0491 53.691 57.4291 53.0875C57.852 52.4919 58.0923 51.79 58.1218 51.0645C58.1512 50.3391 57.9685 49.6206 57.5951 48.9939C57.2488 48.3213 56.7129 47.7607 56.0511 47.3787C55.3894 46.9968 54.6297 46.8098 53.8628 46.8398H26.32C25.8876 46.8468 25.4558 46.8754 25.0264 46.9256C20.3587 47.3719 17.4829 50.5043 14.6071 53.5681L29.1783 67.8142Z" fill="white"/>
<path d="M66.3076 22.9555C65.2674 24.0025 64.3496 24.938 63.4143 25.8562C62.479 26.7745 61.8497 26.7144 60.9144 25.8562C59.9791 24.998 59.0701 24.0111 58.0474 22.9984C57.0684 23.9682 56.1331 24.8693 55.2328 25.8047C55.0053 26.0558 54.7226 26.2527 54.4061 26.3806C54.0895 26.5085 53.7475 26.564 53.4059 26.5428C50.3553 26.5428 47.2873 26.5428 44.2716 26.5428C44.064 26.5245 43.8556 26.5689 43.6743 26.6701C43.4931 26.7714 43.3477 26.9246 43.2577 27.1092C39.5515 33.1166 34.0884 36.1375 26.9471 36.0002C23.8432 35.8761 20.8255 34.9614 18.1904 33.3461C15.5554 31.7308 13.3936 29.4704 11.9173 26.7868C10.441 24.1032 9.70103 21.0888 9.77005 18.0395C9.83906 14.9903 10.7147 12.0111 12.3109 9.39456C13.9072 6.77802 16.1692 4.61409 18.8747 3.11531C21.5802 1.61653 24.6363 0.83443 27.7428 0.845826C30.8492 0.857222 33.8993 1.66172 36.5933 3.18031C39.2874 4.6989 41.5328 6.87936 43.1091 9.50754C43.2383 9.77745 43.4501 10.001 43.7149 10.1472C43.9797 10.2933 44.2843 10.3547 44.5863 10.3228C53.0039 10.3228 61.4126 10.3228 69.8302 10.3228C70.2158 10.3087 70.5998 10.3783 70.9549 10.5266C71.31 10.675 71.6273 10.8984 71.8843 11.181C73.886 13.1978 75.9401 15.1716 78.003 17.1884C79.0169 18.1839 79.0257 18.7932 78.003 19.763L71.727 25.9249C70.7567 26.8689 70.1361 26.8689 69.1659 25.9249L66.3076 22.9555ZM75.2758 18.2698C73.7549 16.7765 72.1553 15.2403 70.6081 13.6612C70.3898 13.4214 70.1193 13.2329 69.8167 13.1096C69.514 12.9863 69.1871 12.9314 68.8599 12.9489C60.3637 12.9489 51.8588 12.9489 43.3626 12.9489C42.9098 12.9969 42.4534 12.899 42.0623 12.6698C41.6713 12.4407 41.3668 12.0928 41.1948 11.6788C39.6706 8.6829 37.1605 6.28017 34.0715 4.85999C30.9825 3.43982 27.4955 3.08541 24.1757 3.85423C20.8559 4.62304 17.8978 6.47001 15.7808 9.09581C13.6638 11.7216 12.5119 14.9724 12.5119 18.3212C12.5119 21.6701 13.6638 24.9209 15.7808 27.5467C17.8978 30.1725 20.8559 32.0195 24.1757 32.7883C27.4955 33.5571 30.9825 33.2027 34.0715 31.7825C37.1605 30.3623 39.6706 27.9596 41.1948 24.9637C41.3509 24.5734 41.6327 24.2439 41.9972 24.0255C42.3618 23.807 42.7891 23.7116 43.214 23.7537C46.3433 23.7966 49.4813 23.7537 52.6105 23.7537C53.0186 23.7319 53.407 23.5745 53.7119 23.3074C54.6821 22.4492 55.5999 21.488 56.5352 20.5697C57.7152 19.4112 58.2834 19.4026 59.3935 20.5697C60.2676 21.4279 61.1417 22.3462 62.1119 23.3503C63.0997 22.3376 63.965 21.4365 64.8479 20.5612C65.9667 19.4455 66.5261 19.4455 67.6449 20.5612L70.2672 23.1358L75.2758 18.2698Z" fill="white"/>
<path d="M22.1938 11.6104C23.5608 11.6104 24.897 12.0094 26.0326 12.7565C27.1682 13.5036 28.052 14.5652 28.5719 15.8064C29.0918 17.0477 29.2242 18.4127 28.9524 19.728C28.6805 21.0433 28.0167 22.2497 27.0452 23.1938C26.0737 24.138 24.8383 24.7774 23.4959 25.0309C22.1535 25.2844 20.7647 25.1405 19.5058 24.6174C18.2469 24.0944 17.1747 23.2158 16.4254 22.0933C15.676 20.9708 15.2834 19.655 15.2972 18.3129C15.3179 16.5297 16.0534 14.8263 17.3443 13.5717C18.6351 12.3172 20.3775 11.6125 22.1938 11.6104ZM26.3196 18.4245C26.3282 17.6195 26.0929 16.8301 25.6435 16.1568C25.1941 15.4834 24.551 14.9565 23.7958 14.6429C23.0406 14.3293 22.2075 14.2433 21.4024 14.3957C20.5973 14.5482 19.8565 14.9322 19.2743 15.499C18.692 16.0659 18.2946 16.7898 18.1325 17.579C17.9704 18.3681 18.0509 19.1868 18.3638 19.9309C18.6768 20.675 19.208 21.3109 19.89 21.7578C20.572 22.2047 21.3739 22.4425 22.1938 22.4409C23.2806 22.4364 24.3221 22.0129 25.0939 21.2616C25.8656 20.5103 26.3058 19.4914 26.3196 18.4245Z" fill="white"/>
</svg>
