<svg width="80" height="80" viewBox="0 0 80 80" fill="none" xmlns="http://www.w3.org/2000/svg">
<g clip-path="url(#clip0_408_767)">
<path d="M29.5067 58.5151L27.0316 61.0744L29.0373 62.6612C28.7471 62.9939 28.6532 63.1134 28.5423 63.2243C23.7969 67.9676 19.0601 72.728 14.2891 77.4542C13.6735 78.1186 12.93 78.6519 12.1033 79.0223C11.2765 79.3926 10.3835 79.5925 9.47774 79.6098C8.57194 79.6271 7.67195 79.4615 6.83166 79.123C5.99138 78.7844 5.2281 78.2798 4.58748 77.6395C3.94686 76.9991 3.44208 76.2362 3.10339 75.3963C2.76471 74.5563 2.59905 73.6567 2.61636 72.7513C2.63367 71.8459 2.83357 70.9533 3.20412 70.1269C3.57466 69.3006 4.10822 68.5574 4.77285 67.942C7.47838 65.2035 10.2181 62.4906 12.9407 59.7691C13.1455 59.5644 13.3333 59.3511 13.632 59.044H0.164062V0H79.7169V59.0184H50.2633C49.8425 59.0118 49.4255 59.0993 49.0428 59.2744C42.5905 62.5162 36.2406 62.3797 29.9761 58.771L29.5067 58.5151ZM25.2905 29.7908C27.1037 27.6827 29.351 25.9908 31.8787 24.831C34.4064 23.6712 37.1549 23.0708 39.9362 23.0708C42.7175 23.0708 45.466 23.6712 47.9937 24.831C50.5214 25.9908 52.7687 27.6827 54.5819 29.7908L56.6132 28.8011C55.0525 27.4854 54.0785 25.6039 53.9057 23.5704C53.7328 21.537 54.3752 19.5181 55.6915 17.9581C57.0077 16.398 58.8901 15.4245 60.9244 15.2517C62.9588 15.0789 64.9784 15.721 66.5392 17.0367C67.3344 17.6543 67.9967 18.426 68.4865 19.3055C68.9764 20.1851 69.2836 21.1544 69.3898 22.1554C69.5382 23.3784 69.39 24.6192 68.9578 25.7729C68.5255 26.9266 67.8218 27.9594 66.9062 28.7841C72.6672 31.9747 75.2703 36.1721 74.4936 41.0348H59.131C59.2986 43.8847 58.839 46.7366 57.7847 49.3897C56.7303 52.0429 55.1069 54.4327 53.0286 56.3908H77.0711V12.8309H2.7245V56.4506C7.1626 56.4506 11.5495 56.4506 15.9364 56.4506C16.2169 56.4093 16.4738 56.2703 16.6618 56.0581C17.5153 55.205 18.3688 54.2581 19.4186 53.1917L21.2023 55.2562L23.703 52.8078C21.2365 48.1156 20.8097 46.9383 20.622 41.0348H5.25934C5.08864 35.1654 7.65762 31.1302 12.9407 28.8353C12.1757 28.1709 11.5491 27.3624 11.0968 26.4561C10.6444 25.5497 10.375 24.5631 10.3041 23.5527C10.2332 22.5422 10.3621 21.5277 10.6834 20.567C11.0047 19.6064 11.5121 18.7184 12.1768 17.9538C12.8414 17.1892 13.6502 16.5629 14.557 16.1107C15.4638 15.6585 16.4508 15.3893 17.4616 15.3184C18.4725 15.2475 19.4875 15.3763 20.4485 15.6975C21.4096 16.0186 22.298 16.5259 23.0629 17.1903C23.8302 17.8215 24.464 18.5993 24.927 19.4782C25.3901 20.357 25.6733 21.3194 25.7599 22.3089C25.8859 23.517 25.7234 24.7376 25.2857 25.8707C24.848 27.0037 24.1476 28.0168 23.2421 28.8267L25.2905 29.7908ZM2.7245 2.55085V10.1521H77.1565V2.55085H2.7245ZM39.9277 59.0184C43.2311 59.0201 46.4609 58.0426 49.2086 56.2095C51.9562 54.3764 54.0984 51.77 55.3641 48.72C56.6299 45.6699 56.9623 42.3132 56.3195 39.0743C55.6767 35.8353 54.0875 32.8596 51.7528 30.5235C49.418 28.1875 46.4427 26.5959 43.2031 25.95C39.9634 25.3042 36.6049 25.6331 33.5523 26.8952C30.4996 28.1572 27.89 30.2958 26.0532 33.0404C24.2165 35.785 23.2353 39.0124 23.2336 42.3145C23.2404 46.7396 25.0008 50.9818 28.1296 54.1125C31.2584 57.2431 35.5007 59.0072 39.9277 59.0184ZM19.2735 57.0733L16.0473 60.3066C12.8894 63.4717 9.72302 66.6196 6.57368 69.7932C6.16966 70.1727 5.84568 70.6292 5.62081 71.1357C5.39593 71.6423 5.27474 72.1887 5.26431 72.7428C5.25389 73.2969 5.35446 73.8474 5.56012 74.3621C5.76578 74.8767 6.07235 75.345 6.46181 75.7394C6.85127 76.1338 7.31575 76.4464 7.82788 76.6586C8.34 76.8709 8.88943 76.9787 9.44383 76.9755C9.99824 76.9723 10.5464 76.8583 11.0561 76.6402C11.5657 76.422 12.0266 76.1042 12.4115 75.7054C16.6049 71.5422 20.787 67.3647 24.9576 63.1731C25.0263 63.1069 25.0865 63.0324 25.1369 62.9513L19.2735 57.0733ZM7.89659 38.4669H10.457C13.7685 38.4669 17.0886 38.4669 20.4001 38.4669C20.6476 38.4669 21.0828 38.2792 21.1255 38.1086C21.6649 35.8967 22.5614 33.7874 23.7798 31.8638C23.1173 31.5332 22.4184 31.2813 21.6973 31.1131C20.0347 30.8847 18.3567 30.7877 16.6789 30.823C15.4242 30.8775 14.1909 31.1669 13.0431 31.6761C11.6772 32.2755 10.4873 33.2141 9.58654 34.4027C8.68577 35.5913 8.10402 36.9903 7.89659 38.4669ZM71.9076 38.4669C71.8904 38.2292 71.8591 37.9928 71.8137 37.7588C71.4798 36.2439 70.7514 34.8441 69.7023 33.7011C68.6532 32.558 67.3206 31.7123 65.8393 31.2496C63.6456 30.6326 61.3407 30.5189 59.0968 30.9169C58.0436 31.1089 57.0097 31.3944 56.0072 31.77C57.2291 33.6825 58.1341 35.7797 58.6871 37.9806C58.7393 38.0954 58.8186 38.1958 58.9182 38.2731C59.0178 38.3504 59.1348 38.4023 59.259 38.4243C63.4752 38.4755 67.6487 38.4669 71.9246 38.4669H71.9076ZM23.208 23.0256C23.1979 22.0154 22.889 21.0308 22.3202 20.1958C21.7514 19.3608 20.9481 18.7127 20.0116 18.3331C19.075 17.9536 18.047 17.8595 17.0571 18.0627C16.0671 18.266 15.1595 18.7575 14.4484 19.4753C13.7374 20.1932 13.2547 21.1053 13.0612 22.0968C12.8677 23.0883 12.9721 24.1149 13.3611 25.0472C13.7502 25.9795 14.4065 26.776 15.2475 27.3362C16.0885 27.8964 17.0765 28.1954 18.0871 28.1954C18.7654 28.1977 19.4373 28.0653 20.064 27.8059C20.6906 27.5465 21.2594 27.1652 21.7374 26.6842C22.2154 26.2032 22.5931 25.6322 22.8485 25.0041C23.1039 24.376 23.2319 23.7035 23.2251 23.0256H23.208ZM66.8976 23.0768C66.8976 22.0666 66.5985 21.0789 66.038 20.2383C65.4776 19.3977 64.6808 18.7417 63.7481 18.3528C62.8153 17.9639 61.7883 17.8596 60.7964 18.053C59.8045 18.2464 58.892 18.7288 58.1738 19.4396C57.4556 20.1503 56.9639 21.0576 56.7606 22.0471C56.5573 23.0367 56.6514 24.0642 57.0311 25.0004C57.4109 25.9365 58.0593 26.7395 58.8946 27.308C59.73 27.8766 60.715 28.1853 61.7255 28.1954C62.4037 28.2045 63.077 28.0787 63.7062 27.8255C64.3354 27.5724 64.908 27.1968 65.3908 26.7206C65.8735 26.2444 66.2569 25.677 66.5185 25.0515C66.7801 24.4259 66.9148 23.7547 66.9147 23.0768H66.8976ZM23.2933 56.988L25.0601 58.8905L27.0828 56.9453L25.3161 55.0685L23.2933 56.988Z" fill="white"/>
<path d="M18.0518 43.6621V46.1361H5.30078V43.6621H18.0518Z" fill="white"/>
<path d="M61.8203 46.1185V43.6445H74.5628V46.1185H61.8203Z" fill="white"/>
<path d="M5.30078 48.7734H18.0347V51.2731H5.30078V48.7734Z" fill="white"/>
<path d="M74.5947 48.7988V51.2729H61.8438V48.7988H74.5947Z" fill="white"/>
<path d="M33.5508 15.3906H36.0173V17.8732H33.5508V15.3906Z" fill="white"/>
<path d="M41.1921 15.416V17.873H38.6914V15.416H41.1921Z" fill="white"/>
<path d="M46.322 15.4062V17.8803H43.8555V15.4062H46.322Z" fill="white"/>
<path d="M7.76808 7.61736H5.29297V5.13477H7.76808V7.61736Z" fill="white"/>
<path d="M10.4219 5.11914H12.8884V7.60173H10.4219V5.11914Z" fill="white"/>
<path d="M15.5625 5.11914H18.0291V7.60173H15.5625V5.11914Z" fill="white"/>
<path d="M25.8008 42.2887C25.8075 39.4953 26.6427 36.7666 28.2005 34.4475C29.7584 32.1283 31.9691 30.3229 34.5533 29.2593C37.1374 28.1958 39.979 27.9219 42.7189 28.4722C45.4588 29.0225 47.9739 30.3725 49.9464 32.3513C51.919 34.3301 53.2603 36.8491 53.801 39.5898C54.3416 42.3304 54.0573 45.1698 52.984 47.749C51.9106 50.3281 50.0964 52.5314 47.7707 54.0802C45.4449 55.629 42.712 56.4538 39.9174 56.4505C36.1673 56.4414 32.5742 54.9448 29.9273 52.2895C27.2805 49.6342 25.7963 46.0372 25.8008 42.2887ZM39.9856 30.7632C37.6966 30.753 35.456 31.4222 33.5477 32.6859C31.6393 33.9495 30.1491 35.7508 29.2657 37.8617C28.3823 39.9725 28.1454 42.2979 28.5852 44.5434C29.0249 46.7889 30.1214 48.8534 31.7358 50.4755C33.3503 52.0977 35.41 53.2043 37.6542 53.6555C39.8983 54.1067 42.2259 53.882 44.3422 53.0099C46.4585 52.1378 48.2683 50.6576 49.5423 48.7566C50.8164 46.8557 51.4974 44.6195 51.4991 42.3314C51.4969 39.2743 50.285 36.3422 48.128 34.175C45.971 32.0077 43.044 30.7812 39.9856 30.7632Z" fill="white"/>
<path d="M46.3206 35.959V38.4245H33.5781V35.959H46.3206Z" fill="white"/>
<path d="M33.543 43.5522V41.0781H46.294V43.5522H33.543Z" fill="white"/>
<path d="M46.3295 46.2383V48.6953H33.5273V46.2383H46.3295Z" fill="white"/>
</g>
<defs>
<clipPath id="clip0_408_767">
<rect width="79.5528" height="79.5528" fill="white" transform="translate(0.164062)"/>
</clipPath>
</defs>
</svg>
