<svg width="80" height="89" viewBox="0 0 80 89" fill="none" xmlns="http://www.w3.org/2000/svg">
<g clip-path="url(#clip0_445_564)">
<path d="M26.6779 73.6265H18.7856C17.0912 73.7133 15.4056 73.3328 13.9149 72.5271C12.5347 71.7773 11.3901 70.6623 10.6079 69.3056C9.82557 67.9489 9.43616 66.4035 9.48268 64.8403C9.48268 61.921 9.48268 58.9922 9.48268 56.0635V54.8029C7.57633 54.8029 5.78436 54.8029 4.00192 54.8029C0.74206 54.8029 -0.763974 52.6513 0.379836 49.6088C3.56344 40.9742 6.6136 32.2922 9.96878 23.7334C15.1922 10.3787 25.048 2.44547 39.3075 0.360274C58.0374 -2.38839 76.3098 11.0422 79.4267 29.553C81.2663 40.4624 78.5974 50.2534 72.0968 59.1249C71.7034 59.6818 71.4815 60.3404 71.4581 61.0206C71.4581 69.5509 71.4581 78.0054 71.4581 86.4979C71.4581 88.4788 70.9815 88.9717 68.9894 88.9717H29.1276C27.1641 88.9717 26.6779 88.4788 26.6779 86.4789V73.6265ZM67.9886 85.5311V84.2136C67.9886 76.3278 67.9886 68.442 67.9886 60.5182C67.9602 59.3504 68.3523 58.2108 69.0942 57.3051C75.4424 48.9643 78.0064 39.6283 75.8999 29.3066C74.4551 22.3848 70.7794 16.1205 65.4304 11.4638C60.0815 6.80718 53.3511 4.01229 46.2603 3.50314C39.1695 2.99398 32.1052 4.79835 26.1389 8.64253C20.1726 12.4867 15.63 18.1609 13.2001 24.8045C10.0228 33.3285 6.87733 41.8588 3.76363 50.3955C3.65878 50.6799 3.58252 50.9832 3.4586 51.3433C5.93686 51.3433 8.30073 51.3433 10.6646 51.3433C12.3994 51.3433 12.9236 51.8552 12.9236 53.5612C12.9236 57.1629 12.9236 60.7646 12.9236 64.3758C12.9236 67.987 14.992 70.1291 18.7285 70.148C21.8072 70.148 24.8955 70.148 27.9838 70.148C29.5565 70.148 30.1189 70.7262 30.1284 72.2806C30.1284 76.2804 30.1284 80.2802 30.1284 84.28V85.4742L67.9886 85.5311Z" fill="white"/>
<path d="M64.5759 30.9743C64.4689 32.0669 64.139 33.1262 63.6063 34.0877C63.0737 35.0492 62.3495 35.8926 61.4781 36.5664C60.3152 37.5143 60.2961 37.8744 61.4781 38.8412C63.0425 40.1277 64.0974 41.9243 64.4551 43.9114C64.8129 45.8985 64.4504 47.9473 63.4321 49.6937C62.4367 51.4303 60.8534 52.759 58.9646 53.4429C57.0757 54.1269 55.004 54.1216 53.1187 53.4281C51.8415 52.9447 51.2124 53.2196 51.0027 54.6224C50.6788 56.5575 49.6852 58.3194 48.1937 59.6035C46.7022 60.8876 44.8064 61.6133 42.834 61.6552C40.9169 61.7124 39.0358 61.1293 37.4912 59.9988C35.9465 58.8683 34.8274 57.2557 34.3126 55.4185C33.6358 53.0679 33.6358 53.0679 31.3005 53.684C29.4149 54.1737 27.4178 54.0103 25.638 53.2207C23.8582 52.4312 22.4018 51.0626 21.5086 49.3402C20.6153 47.6179 20.3385 45.6444 20.7236 43.7447C21.1088 41.845 22.1329 40.1323 23.6275 38.8886C24.8476 37.8555 24.8476 37.5711 23.6275 36.5475C22.051 35.2574 20.9889 33.4506 20.6321 31.4516C20.2752 29.4527 20.647 27.3927 21.6807 25.642C22.7144 23.8912 24.3421 22.5644 26.2714 21.9C28.2006 21.2357 30.3049 21.2773 32.2061 22.0175C33.4643 22.4914 33.8265 22.2828 34.1124 20.9654C34.4292 18.9632 35.4526 17.1385 36.9992 15.8184C38.5458 14.4982 40.5147 13.7688 42.553 13.7608C44.5913 13.7528 46.5658 14.4668 48.1229 15.7748C49.6799 17.0828 50.7177 18.8994 51.0503 20.899C51.3172 22.3018 51.6604 22.4914 52.9567 22.008C58.6185 19.8849 64.5664 23.9984 64.5759 30.9743ZM61.1349 30.5762C61.1349 26.112 57.0839 23.6667 53.6239 25.477C53.1489 25.7952 52.5842 25.9548 52.0119 25.9327C51.4395 25.9105 50.8891 25.7078 50.4403 25.3538C50.0922 25.1009 49.7184 24.8849 49.3251 24.7093C48.8101 24.5053 48.3751 24.1414 48.0848 23.6717C47.7946 23.2021 47.6646 22.6518 47.7142 22.1028C47.6909 20.8207 47.1754 19.596 46.2734 18.6797C45.3713 17.7634 44.1511 17.2247 42.8626 17.1741C42.2068 17.1212 41.5469 17.1986 40.9215 17.4019C40.2961 17.6052 39.7177 17.9303 39.22 18.3581C38.7223 18.786 38.3152 19.3082 38.0225 19.8941C37.7298 20.4801 37.5574 21.1181 37.5152 21.771C37.5506 22.4792 37.3543 23.1796 36.9556 23.7675C36.5569 24.3553 35.9774 24.7988 35.3039 25.0315C35.0109 25.1685 34.7302 25.3302 34.4651 25.5149C34.0726 25.8013 33.5984 25.9558 33.1116 25.9558C32.6247 25.9558 32.1506 25.8013 31.7581 25.5149C31.1946 25.1676 30.5645 24.941 29.908 24.8497C29.2515 24.7583 28.5831 24.8041 27.9454 24.9841C26.9681 25.2275 26.0845 25.7518 25.405 26.4914C24.7255 27.2311 24.2802 28.1534 24.1246 29.1432C23.969 30.1331 24.1101 31.1465 24.5303 32.0571C24.9504 32.9676 25.631 33.735 26.487 34.2632C26.9906 34.4975 27.4052 34.8865 27.6695 35.3729C27.9338 35.8593 28.0338 36.4173 27.9549 36.9645C27.9167 37.3934 27.9167 37.8247 27.9549 38.2536C28.0395 38.8174 27.9385 39.3933 27.6671 39.8955C27.3957 40.3976 26.9684 40.7991 26.4489 41.0401C25.3143 41.7263 24.4977 42.8298 24.1765 44.1111C23.8553 45.3923 24.0553 46.7479 24.7332 47.8834C25.359 49.0206 26.4079 49.8688 27.6551 50.2462C28.9023 50.6236 30.2486 50.5001 31.4054 49.9022C31.9417 49.5487 32.5786 49.3771 33.2211 49.4129C33.8635 49.4488 34.4771 49.6902 34.9703 50.1013C35.2879 50.3332 35.6299 50.5302 35.9902 50.6889C36.454 50.8798 36.8451 51.2119 37.1071 51.6377C37.3692 52.0635 37.4887 52.5609 37.4485 53.0585C37.5056 54.3765 38.0723 55.6218 39.0305 56.5344C39.9886 57.447 41.2641 57.9565 42.5909 57.9565C43.9177 57.9565 45.1932 57.447 46.1513 56.5344C47.1095 55.6218 47.6762 54.3765 47.7333 53.0585C47.7127 52.5776 47.8405 52.102 48.0994 51.6955C48.3584 51.2889 48.7362 50.9707 49.1821 50.7837C49.6678 50.5542 50.1333 50.2847 50.5737 49.9781C50.9995 49.6533 51.5181 49.4719 52.0546 49.4599C52.591 49.448 53.1173 49.6062 53.5572 49.9117C54.7365 50.5867 56.1371 50.7681 57.451 50.4162C58.7648 50.0642 59.8843 49.2077 60.563 48.035C61.2418 46.8624 61.4243 45.4696 61.0703 44.1631C60.7164 42.8567 59.855 41.7435 58.6757 41.0686C58.1891 40.8391 57.7879 40.4625 57.5294 39.9927C57.271 39.5229 57.1684 38.9838 57.2364 38.4526C57.2841 37.9545 57.2841 37.4531 57.2364 36.9551C57.1658 36.4406 57.2616 35.9171 57.5101 35.4604C57.7586 35.0037 58.1468 34.6375 58.6185 34.4149C59.336 34.046 59.9449 33.4984 60.386 32.8256C60.827 32.1528 61.0851 31.3778 61.1349 30.5762Z" fill="white"/>
<path d="M52.9031 37.7138C52.9031 39.7463 52.2969 41.7331 51.1611 43.4229C50.0254 45.1127 48.4111 46.4296 46.5225 47.2069C44.634 47.9843 42.556 48.1872 40.5514 47.79C38.5469 47.3928 36.7058 46.4133 35.2612 44.9755C33.8166 43.5376 32.8333 41.706 32.4357 39.7124C32.0381 37.7187 32.244 35.6526 33.0275 33.7754C33.811 31.8982 35.1369 30.2942 36.8373 29.1664C38.5377 28.0386 40.5363 27.4376 42.5803 27.4395C45.3143 27.4569 47.9312 28.5452 49.8636 30.4686C51.796 32.3919 52.8881 34.9951 52.9031 37.7138ZM49.4526 37.638C49.44 35.823 48.7028 34.0874 47.4033 32.8129C46.1037 31.5385 44.3482 30.8295 42.523 30.8421C40.6978 30.8547 38.9524 31.5877 37.6708 32.88C36.3891 34.1722 35.6761 35.9178 35.6888 37.7327C35.7014 39.5477 36.4386 41.2833 37.7382 42.5578C38.3816 43.1888 39.1438 43.6877 39.9811 44.0258C40.8185 44.364 41.7146 44.5348 42.6184 44.5286C43.5221 44.5224 44.4158 44.3392 45.2483 43.9895C46.0809 43.6399 46.836 43.1306 47.4707 42.4907C48.1053 41.8509 48.607 41.093 48.947 40.2604C49.2871 39.4277 49.4589 38.5366 49.4526 37.638Z" fill="white"/>
</g>
<defs>
<clipPath id="clip0_445_564">
<rect width="80" height="89" fill="white"/>
</clipPath>
</defs>
</svg>
