<svg width="79" height="100" viewBox="0 0 79 100" fill="none" xmlns="http://www.w3.org/2000/svg">
<g clip-path="url(#clip0_408_737)">
<path d="M5.67814 99.1024L4.96127 98.8547C3.81016 98.5295 2.78218 97.8642 2.01004 96.9446C1.23789 96.0251 0.757002 94.8935 0.629439 93.6958C0.51858 92.5058 0.494645 91.3092 0.557777 90.1156C0.53882 89.9117 0.564739 89.706 0.633689 89.5133C0.702638 89.3206 0.812892 89.1456 0.956649 89.0007C1.10041 88.8559 1.27412 88.7448 1.46537 88.6754C1.65663 88.6059 1.86075 88.5797 2.06316 88.5988C2.89266 88.5988 3.38419 89.1767 3.41492 90.1568C3.44564 91.137 3.41492 91.9108 3.41492 92.7775C3.39339 93.2411 3.46975 93.704 3.6389 94.1357C3.80805 94.5674 4.06614 94.958 4.39617 95.2817C4.72621 95.6055 5.12066 95.855 5.55347 96.0138C5.98629 96.1726 6.44762 96.2371 6.90701 96.2031H13.0514V93.1077C13.0514 92.1378 13.0514 91.168 13.0514 90.1981C13.0514 89.2282 13.6557 88.4854 14.5056 88.4854C15.3556 88.4854 15.9291 89.1457 15.9291 90.1981C15.9291 92.1585 15.9291 94.1292 15.9291 96.1515H63.2617V91.3124C63.2617 90.9616 63.2617 90.6005 63.2617 90.2806C63.2617 89.2489 63.8147 88.5576 64.6647 88.5369C65.5147 88.5163 66.1393 89.1973 66.1495 90.3116C66.1495 91.9006 66.1495 93.4792 66.1495 95.0681V96.265H72.294C72.7306 96.2992 73.1695 96.2418 73.583 96.0964C73.9965 95.9509 74.3754 95.7206 74.696 95.42C75.0165 95.1193 75.2717 94.7549 75.4452 94.3498C75.6187 93.9447 75.7069 93.5077 75.7042 93.0665C75.7042 88.0211 75.8476 82.9654 75.612 77.9303C75.4621 75.5375 74.5772 73.251 73.0799 71.3875C71.5827 69.524 69.5472 68.1759 67.2556 67.5299C65.6887 67.045 64.1219 66.56 62.5449 66.1576C62.0989 66.0545 61.6312 66.113 61.2238 66.3228C54.5059 70.3157 47.7982 74.3087 41.1213 78.3636C40.6737 78.6878 40.1364 78.8621 39.5851 78.8621C39.0339 78.8621 38.4966 78.6878 38.049 78.3636C31.4335 74.3397 24.7361 70.388 18.1308 66.3847C17.8873 66.2101 17.6051 66.0981 17.3088 66.0585C17.0125 66.019 16.7111 66.053 16.4309 66.1576C14.9972 66.6323 13.543 67.014 12.0991 67.4577C9.56988 68.1671 7.34554 69.7014 5.77418 71.8205C4.20281 73.9395 3.37309 76.5236 3.41492 79.1684C3.41492 80.52 3.41492 81.8819 3.41492 83.2955C3.4285 83.6731 3.29263 84.0407 3.0372 84.3174C2.78177 84.5941 2.42772 84.7572 2.05291 84.7709C1.6781 84.7846 1.31326 84.6477 1.03862 84.3904C0.763991 84.133 0.602078 83.7763 0.588498 83.3987C0.537295 80.3034 0.281277 77.208 1.35655 74.1746C2.12785 71.8806 3.44925 69.814 5.20354 68.1581C6.95783 66.5022 9.09072 65.3083 11.4129 64.6822C12.5701 64.3211 13.7785 64.0734 14.9153 63.6504C16.1739 63.2027 17.3877 62.6362 18.5405 61.9583C21.9916 59.7709 25.3813 57.4907 28.7812 55.2414C29.0076 55.0901 29.196 54.8878 29.3314 54.6506C29.4668 54.4133 29.5456 54.1475 29.5615 53.8743C29.5774 53.601 29.53 53.3278 29.423 53.0762C29.316 52.8246 29.1524 52.6015 28.9451 52.4246C25.6778 49.7314 23.5386 45.896 22.9542 41.6838C22.9166 41.5138 22.8419 41.3544 22.7357 41.217C22.6294 41.0796 22.4942 40.9677 22.3398 40.8894C21.5202 40.6249 20.8114 40.0928 20.3255 39.3771C19.8396 38.6615 19.6043 37.8031 19.6567 36.9376C19.6567 33.378 19.6567 29.8184 19.6567 26.2587C19.5711 25.7453 19.4088 25.2478 19.1754 24.7833C18.8642 24.092 18.6406 23.3641 18.5098 22.6165C18.4074 20.9451 18.5097 19.2529 18.4585 17.5711C18.4585 17.3132 18.1923 16.8592 17.9875 16.8179C15.8164 16.4052 13.6352 16.0544 11.372 15.6727V22.1832C12.2432 22.6014 13.0391 23.1628 13.7273 23.8443C14.1921 24.6421 14.4064 25.563 14.3418 26.4857C14.1984 30.4478 15.2942 34.2241 15.8369 38.0932C15.9496 38.9599 16.1441 39.806 16.267 40.6727C16.3894 41.1718 16.3929 41.6929 16.2772 42.1936C16.1616 42.6943 15.93 43.1604 15.6015 43.5538C15.273 43.9471 14.8568 44.2566 14.3869 44.457C13.9171 44.6575 13.4068 44.7431 12.8978 44.7069H6.82509C6.30823 44.7413 5.79068 44.6509 5.31542 44.4434C4.84017 44.2358 4.42091 43.917 4.09246 43.5135C3.76402 43.1099 3.53585 42.6332 3.42692 42.123C3.31798 41.6128 3.33144 41.0837 3.46614 40.5798C4.08058 37.0511 4.72575 33.5224 5.25826 29.9731C5.37278 28.6868 5.40014 27.394 5.34018 26.1039C5.34018 23.9475 6.24136 22.8641 8.41239 22.4927C8.41239 19.9958 8.41239 17.4783 8.41239 14.9607C8.36861 14.7164 8.25467 14.4904 8.08468 14.3107C7.70878 13.9159 7.44345 13.4278 7.31569 12.8961C7.18793 12.3644 7.20231 11.8081 7.35738 11.2838C7.51245 10.7595 7.80267 10.286 8.19847 9.91153C8.59427 9.53702 9.08151 9.27486 9.61057 9.1518C18.4688 6.30409 27.3577 3.53893 36.175 0.588043C38.4266 -0.222056 40.8871 -0.222056 43.1387 0.588043C51.8638 3.5183 60.6605 6.2422 69.4266 9.06927C70.0642 9.26764 70.6537 9.59799 71.1573 10.0391C71.564 10.4147 71.8504 10.9038 71.9799 11.4441C72.1094 11.9845 72.0762 12.5514 71.8844 13.0726C71.7434 13.6259 71.4422 14.1245 71.0191 14.5048C70.5961 14.8852 70.0702 15.13 69.5085 15.2083C66.9176 15.683 64.3267 16.1163 61.7358 16.5703L60.7937 16.756C60.7937 18.5307 60.7937 20.2641 60.7937 22.0078C60.8439 22.5433 60.7783 23.0835 60.6015 23.5911C60.4248 24.0988 60.1409 24.5618 59.7696 24.9483C59.5824 25.2384 59.4993 25.5843 59.5341 25.9286C59.5341 29.4263 59.5341 32.924 59.5341 36.4114C59.6342 37.3528 59.41 38.3003 58.8991 39.0949C58.3882 39.8895 57.6218 40.483 56.7281 40.7758C56.6014 40.847 56.4911 40.9446 56.4045 41.062C56.318 41.1794 56.2573 41.314 56.2263 41.4568C55.6527 45.7694 53.4521 49.6936 50.0819 52.4143C49.9217 52.5939 49.7991 52.8041 49.7214 53.0325C49.6437 53.2609 49.6125 53.5028 49.6297 53.7436C49.6469 53.9844 49.7122 54.2192 49.8215 54.434C49.9309 54.6488 50.0821 54.8392 50.2662 54.9938C54.1577 57.5629 58.0287 60.1526 61.9714 62.6496C63.0045 63.1613 64.0991 63.5359 65.2279 63.7639C67.87 64.5584 70.5531 65.2394 72.7958 67.0037C74.6625 68.4225 76.1673 70.2684 77.1858 72.3891C78.2044 74.5097 78.7075 76.8441 78.6535 79.1993C78.6535 83.636 78.6535 88.0692 78.6535 92.499C78.743 93.986 78.2972 95.4556 77.3981 96.6382C76.4989 97.8208 75.2067 98.6371 73.7585 98.9373C73.6703 98.9737 73.5875 99.0223 73.5126 99.0818L5.67814 99.1024ZM28.8426 25.7531C28.8426 26.7849 28.8426 27.7342 28.8426 28.7247C28.8292 29.9344 28.3434 31.0901 27.4905 31.9417C26.6377 32.7932 25.4863 33.2722 24.2855 33.2748C23.7428 33.2748 23.2102 33.2748 22.5855 33.2748C22.5855 34.6161 22.5241 35.8749 22.5855 37.113C22.5855 37.4329 23.159 37.8662 23.5379 37.9591C25.0126 38.3512 25.5861 38.9084 25.709 40.3838C25.9984 43.8799 27.579 47.1394 30.1384 49.5181C32.6978 51.8968 36.0497 53.2216 39.5318 53.2307C43.0138 53.2398 46.3725 51.9325 48.9441 49.5671C51.5157 47.2018 53.113 43.9505 53.4203 40.456C53.5739 38.8774 54.086 38.3925 55.6221 37.9591C55.9908 37.8559 56.5233 37.4123 56.5438 37.0924C56.6565 35.8543 56.5438 34.5955 56.5438 33.2748H55.2739C54.6135 33.321 53.9509 33.2236 53.3311 32.9892C52.7114 32.7548 52.1488 32.3888 51.6817 31.9162C51.2145 31.4436 50.8537 30.8753 50.6236 30.2499C50.3935 29.6245 50.2996 28.9565 50.3482 28.2913C50.3482 27.4659 50.3482 26.6302 50.3482 25.7428L28.8426 25.7531ZM21.3771 22.7197H57.7829V16.8282C56.8817 16.7044 56.0215 16.6219 55.1818 16.4465C54.9965 16.4257 54.8176 16.3664 54.6561 16.2726C54.4947 16.1787 54.3542 16.0523 54.2436 15.9011C54.133 15.7499 54.0547 15.5774 54.0134 15.3942C53.9722 15.2111 53.969 15.0214 54.0041 14.8369C54.0253 14.6517 54.0835 14.4728 54.1751 14.3109C54.2667 14.1489 54.3899 14.0073 54.5372 13.8945C54.6845 13.7818 54.8529 13.7002 55.0323 13.6547C55.2117 13.6092 55.3984 13.6007 55.5812 13.6297C56.0932 13.6297 56.6052 13.7432 57.107 13.7948C57.96 13.933 58.8245 13.9849 59.6877 13.9496C62.2581 13.5884 64.808 13.1138 67.3682 12.6702C67.9314 12.567 68.4844 12.4226 69.0374 12.2987C68.857 12.0631 68.6055 11.8928 68.3206 11.8138C58.947 8.80101 49.5698 5.80197 40.1893 2.81669C39.7388 2.67799 39.2574 2.67799 38.8068 2.81669C29.9316 5.63689 21.0563 8.47428 12.181 11.3289L9.90753 12.113C10.1797 12.2363 10.4604 12.3398 10.7473 12.4226C12.7954 12.7734 14.8197 13.1173 16.82 13.4543C17.9735 13.76 19.1604 13.9194 20.3531 13.9289C23.6096 13.6504 26.8559 13.1654 30.1022 12.7424C35.2226 12.0718 40.2815 11.3392 45.4633 12.2678C46.5591 12.4742 47.6856 12.536 48.8018 12.6908C49.0032 12.6999 49.2008 12.7497 49.3828 12.8372C49.5648 12.9246 49.7274 13.0481 49.8612 13.2001C49.9949 13.3522 50.0969 13.5297 50.1612 13.7223C50.2255 13.9148 50.2508 14.1185 50.2355 14.321C50.2072 14.5217 50.1388 14.7145 50.0343 14.8877C49.9298 15.0609 49.7915 15.2109 49.6278 15.3286C49.464 15.4463 49.2782 15.5293 49.0816 15.5725C48.8851 15.6157 48.6819 15.6182 48.4843 15.5798C48.1669 15.5798 47.8494 15.4972 47.532 15.4663C44.4597 15.229 41.3875 14.8163 38.3153 14.8163C35.8172 14.9254 33.3278 15.1838 30.8601 15.5901C27.7366 15.9615 24.6235 16.3743 21.4693 16.7767L21.3771 22.7197ZM46.7229 54.5501C44.4868 55.6034 42.0484 56.1492 39.58 56.1492C37.1116 56.1492 34.6733 55.6034 32.4371 54.5501C32.2959 57.1999 32.583 59.8552 33.2871 62.4123C33.3383 62.598 33.707 62.7734 33.9425 62.8147C37.6678 63.4869 41.482 63.4869 45.2073 62.8147C45.3481 62.781 45.4803 62.7176 45.595 62.6287C45.7098 62.5397 45.8045 62.4273 45.873 62.2988C46.5611 59.7772 46.8548 57.1629 46.7434 54.5501H46.7229ZM49.5596 58.0375C49.0618 63.2897 47.3465 68.3506 44.5519 72.8126L58.8889 64.2076L49.5596 58.0375ZM29.58 58.0375L20.2302 64.2282L34.5672 72.8333C31.7848 68.3662 30.0738 63.3075 29.5697 58.0582L29.58 58.0375ZM13.3075 41.787C13.3541 41.6222 13.3817 41.4526 13.3894 41.2814C12.8466 38.0416 12.3141 34.7915 11.7406 31.5517C11.6916 31.4349 11.6144 31.3322 11.516 31.2529C11.4177 31.1737 11.3013 31.1203 11.1774 31.0978C10.1533 31.0462 9.07804 31.0978 7.99252 31.0978C7.4088 34.4923 6.84558 37.794 6.28234 41.106C6.16969 41.7045 6.48715 41.8179 6.98895 41.8076C8.13591 41.8076 9.29308 41.8076 10.4503 41.8076L13.3075 41.787ZM44.6543 66.0338H34.5365C35.7142 69.1292 37.7418 71.8221 39.6056 74.773C41.4489 71.8221 43.5074 69.1704 44.6543 66.0751V66.0338ZM22.6265 25.7016V30.3239C23.2512 30.3239 23.794 30.3239 24.3265 30.3239C24.7191 30.3308 25.0999 30.1879 25.3924 29.9238C25.6848 29.6598 25.8674 29.2941 25.9036 28.9001C25.9957 27.8683 25.9036 26.8365 25.9036 25.7119L22.6265 25.7016ZM56.595 30.3136V25.7119H53.2668C53.2668 26.7437 53.2053 27.7754 53.2668 28.8072C53.2899 29.2016 53.4599 29.5726 53.7428 29.8461C54.0257 30.1197 54.4006 30.2756 54.7926 30.2827C55.3918 30.3384 55.9934 30.3625 56.595 30.3549V30.3136ZM11.4027 25.5365H8.26904V28.1056H11.4027V25.5365Z" fill="white"/>
</g>
<defs>
<clipPath id="clip0_408_737">
<rect width="78.1572" height="99.0921" fill="white" transform="translate(0.515625)"/>
</clipPath>
</defs>
</svg>
