<svg width="76" height="77" viewBox="0 0 76 77" fill="none" xmlns="http://www.w3.org/2000/svg">
<path d="M34.5316 68.5529C34.5316 67.8162 34.5316 67.1995 34.5316 66.5913C34.5077 66.2359 34.6283 65.8856 34.8671 65.6174C35.1059 65.3492 35.4434 65.185 35.8054 65.1608C35.9837 65.1429 36.1639 65.1618 36.3343 65.2165C36.5048 65.2711 36.6616 65.3602 36.7948 65.4781C36.928 65.5959 37.0345 65.7399 37.1075 65.9006C37.1806 66.0614 37.2184 66.2354 37.2187 66.4114C37.2588 67.1104 37.2588 67.8111 37.2187 68.51L40.438 68.2359C40.8044 68.2359 41.1708 68.116 41.546 68.1074C41.8929 68.0764 42.2382 68.1816 42.5063 68.3999C42.7745 68.6182 42.9436 68.9319 42.9768 69.2724C43.0056 69.4316 43.002 69.5949 42.9661 69.7527C42.9303 69.9106 42.863 70.06 42.7681 70.1921C42.6732 70.3243 42.5526 70.4368 42.4132 70.5229C42.2739 70.6091 42.1185 70.6674 41.956 70.6943C40.9157 70.8997 39.8641 71.0456 38.8065 71.1311C31.2054 71.7054 23.6136 69.9087 17.1137 65.9973C10.6138 62.0858 5.5377 56.2593 2.6092 49.3486C-5.74001 29.1507 6.76198 5.98045 28.5205 1.47489C34.1081 0.336403 39.8914 0.519811 45.3924 2.00996C50.8935 3.5001 55.9544 6.2542 60.1569 10.0446C64.3594 13.8351 67.5827 18.553 69.5606 23.8086C71.5385 29.0641 72.2141 34.7063 71.5316 40.2689C71.392 41.4767 70.79 42.0592 69.9089 41.8964C69.0277 41.7337 68.7136 41.2454 68.766 40.2775C68.8183 39.3096 68.9405 38.4359 69.0452 37.3823C68.4083 37.3823 67.8499 37.3823 67.3003 37.3823C66.2534 37.3823 65.5554 36.7998 65.6078 35.9775C65.6601 35.1552 66.2446 34.6927 67.2828 34.6755H69.0277C68.6832 26.9208 65.545 19.5382 60.1725 13.8438C59.7275 14.3748 59.3698 14.8545 58.9511 15.2742C58.8368 15.4203 58.6931 15.5416 58.5288 15.6305C58.3645 15.7194 58.1833 15.774 57.9965 15.7909C57.8097 15.8078 57.6214 15.7866 57.4434 15.7286C57.2653 15.6707 57.1014 15.5772 56.9619 15.4541C56.3163 14.8973 56.3076 14.2378 56.9619 13.4497C57.1612 13.21 57.3769 12.9839 57.6075 12.773C57.8431 12.5675 58.1048 12.3962 58.48 12.1478C52.6804 6.88668 45.1685 3.81518 37.2798 3.47926C37.2798 4.13026 37.2798 4.71273 37.2798 5.29519C37.2798 6.26312 36.7563 6.81989 35.945 6.84558C35.1336 6.87128 34.6363 6.40017 34.5403 5.38085C34.5403 5.07249 34.5403 4.76412 34.5403 4.45575V3.47926C26.697 3.82334 19.2293 6.87503 13.4536 12.0964C13.977 12.5846 14.4481 12.9529 14.8756 13.4326C15.0168 13.5536 15.1311 13.7018 15.2116 13.8679C15.2921 14.0341 15.3369 14.2147 15.3435 14.3985C15.35 14.5824 15.3181 14.7656 15.2496 14.9369C15.1811 15.1081 15.0776 15.2638 14.9454 15.3942C14.8222 15.5241 14.6729 15.6278 14.5071 15.6986C14.3412 15.7695 14.1623 15.8061 13.9814 15.8061C13.8005 15.8061 13.6216 15.7695 13.4557 15.6986C13.2898 15.6278 13.1406 15.5241 13.0174 15.3942C12.5113 14.983 12.0664 14.5376 11.5168 14.0065C5.61102 20.3294 2.47705 28.6803 2.79241 37.2538C3.96147 37.2538 5.04329 37.2538 6.11639 37.2538C7.18948 37.2538 7.86126 37.7335 7.86126 38.5986C7.86126 39.4638 7.25928 39.9434 6.11639 39.952C4.9735 39.9606 4.11851 39.952 3.02797 39.952C3.9058 46.7993 6.9584 53.2011 11.7523 58.2483C12.1131 57.7281 12.5065 57.2303 12.9301 56.7579C13.0489 56.608 13.1986 56.4846 13.3695 56.3956C13.5404 56.3067 13.7285 56.2543 13.9215 56.2418C14.1145 56.2294 14.308 56.2573 14.4892 56.3235C14.6705 56.3898 14.8354 56.493 14.973 56.6264C15.1107 56.7598 15.2181 56.9202 15.2881 57.0973C15.358 57.2743 15.389 57.4639 15.379 57.6535C15.369 57.8431 15.3182 58.0285 15.2299 58.1975C15.1416 58.3665 15.0179 58.5151 14.8669 58.6338C14.4481 59.0535 13.9945 59.4218 13.4448 59.8844C19.2138 65.1232 26.6819 68.1932 34.5316 68.5529Z" fill="white"/>
<path d="M75.0214 60.2092C75.0214 63.8925 74.9691 67.5843 75.0214 71.2675C75.093 71.9175 74.9424 72.5723 74.5934 73.129C74.2443 73.6857 73.7166 74.1126 73.0934 74.3426C71.5174 75.0005 69.8734 75.4888 68.1903 75.7988C62.3875 76.815 56.4358 76.6752 50.6892 75.3876C49.504 75.0798 48.3636 74.625 47.2954 74.0342C46.8308 73.7886 46.4504 73.4136 46.2021 72.9564C45.9537 72.4993 45.8485 71.9802 45.8995 71.4645C45.8995 64.0038 45.8995 56.5431 45.8995 49.0824C45.831 48.4483 45.9743 47.8096 46.308 47.2626C46.6416 46.7156 47.1475 46.2901 47.7491 46.0501C49.2952 45.391 50.9101 44.8998 52.5649 44.5854C58.4768 43.5432 64.542 43.6831 70.3975 44.9965C71.4482 45.2709 72.4616 45.6678 73.4161 46.1786C73.9352 46.4241 74.3664 46.8182 74.653 47.309C74.9395 47.7998 75.068 48.3643 75.0214 48.9282C74.9865 52.7057 75.0214 56.4574 75.0214 60.2092ZM72.2645 51.4979C64.5496 53.5342 56.4237 53.5342 48.7088 51.4979V53.8192C48.7088 56.5945 48.7699 56.663 51.5442 57.2455L51.8845 57.3054C57.0032 58.1871 62.2303 58.2824 67.3789 57.5881C68.8122 57.3465 70.2219 56.9855 71.5928 56.5088C71.7653 56.4289 71.9156 56.3093 72.031 56.1602C72.1465 56.0111 72.2236 55.8368 72.2558 55.6523C72.3082 54.3246 72.2645 52.9112 72.2645 51.4979ZM48.7088 67.096V69.6657C48.7088 72.0898 48.7088 72.107 51.1778 72.6894C56.3529 73.8496 61.7048 74.0385 66.9514 73.2462C68.4981 72.9816 70.0231 72.6066 71.5142 72.1241C71.8109 72.047 72.2384 71.6958 72.2471 71.4474C72.3169 69.9741 72.2471 68.5008 72.2471 67.0618C64.5374 69.1257 56.4072 69.1375 48.6913 67.096H48.7088ZM48.7088 59.2927V61.6568C48.7088 64.3721 48.8571 64.5434 51.5791 65.0831C51.6343 65.079 51.6897 65.079 51.7449 65.0831C56.9956 65.9962 62.3604 66.0887 67.6406 65.3572C68.9616 65.1332 70.2606 64.7979 71.523 64.355C71.8196 64.2608 72.2384 63.901 72.2471 63.6441C72.3169 62.1793 72.2471 60.6975 72.2471 59.267C64.5349 61.3154 56.4081 61.3242 48.6913 59.2927H48.7088ZM49.0316 48.4913C53.2629 50.984 68.4607 50.8383 71.933 48.4913C68.3124 46.0929 52.9488 46.0844 49.0141 48.4913H49.0316Z" fill="white"/>
<path d="M37.2822 34.7184H49.2956C50.4036 34.7184 51.0405 35.2152 50.9881 36.0718C50.9358 36.9283 50.3687 37.4166 49.2433 37.4166C47.2628 37.4166 45.2824 37.4166 43.3107 37.4166H36.4534C34.9702 37.4166 34.534 36.9969 34.534 35.5835C34.534 28.7995 34.534 22.0155 34.534 15.24C34.482 14.8266 34.571 14.4079 34.787 14.0494C34.9545 13.8595 35.1625 13.7082 35.3962 13.6061C35.6298 13.5039 35.8835 13.4535 36.1393 13.4583C36.3634 13.5248 36.5716 13.635 36.7515 13.7821C36.9313 13.9293 37.0792 14.1105 37.1862 14.3149C37.3328 14.6793 37.3809 15.0747 37.3258 15.4627C37.3258 21.5101 37.3258 27.5603 37.3258 33.6134L37.2822 34.7184Z" fill="white"/>
</svg>
