<svg width="94" height="85" viewBox="0 0 94 85" fill="none" xmlns="http://www.w3.org/2000/svg">
<path d="M66.2959 19.6414C66.6812 19.6332 67.0617 19.7266 67.3978 19.9119C67.7338 20.0972 68.0131 20.3676 68.2065 20.6949C68.4379 21.1839 68.5627 21.7148 68.573 22.2539C68.634 24.4724 68.6253 26.7595 68.573 28.9694C68.573 29.826 68.573 30.7339 68.573 31.6162V32.7126C68.5753 33.5358 68.9099 34.3245 69.5036 34.9057C70.0973 35.487 70.9015 35.8134 71.7399 35.8134H87.9497C89.5288 35.8134 90.1134 36.3445 90.567 37.1925C90.6194 37.3038 90.6979 37.5608 90.7764 37.7749V38.3146C90.7764 38.4002 90.7154 38.4773 90.6805 38.5544C90.5662 38.8857 90.4232 39.2066 90.253 39.5138C89.9214 39.9849 89.3805 40.4217 87.9323 40.4217H66.7757C64.7517 40.4217 63.9229 39.5652 63.9229 37.5437V35.3851C63.9212 34.771 63.7348 34.1711 63.3871 33.6606C63.0394 33.1501 62.546 32.7518 61.9686 32.5156C61.5831 32.3634 61.1715 32.2849 60.7559 32.2843C59.9185 32.2851 59.1154 32.6116 58.5225 33.1923L56.6468 35.0339L49.8505 41.7066C49.497 42.0522 49.2319 42.4751 49.077 42.9407C48.9221 43.4063 48.8817 43.9013 48.9591 44.3852C49.0366 44.869 49.2297 45.328 49.5226 45.7245C49.8155 46.1209 50.2 46.4436 50.6444 46.6661L50.8189 46.7432C54.5704 50.4093 58.3044 54.084 61.925 57.6388C63.5041 59.1892 63.5041 60.2856 61.925 61.836L58.8889 64.8168C53.8288 69.7849 48.6029 74.9329 43.4468 79.9695C42.9177 80.5466 42.1775 80.8946 41.3879 80.9375C41.0426 80.9237 40.7053 80.8314 40.4026 80.6679C40.0998 80.5044 39.8398 80.2741 39.643 79.9952C39.3504 79.6073 39.1925 79.1374 39.1925 78.6547C39.1925 78.172 39.3504 77.7021 39.643 77.3142C39.8979 77.0149 40.1687 76.7289 40.4544 76.4576L54.4133 62.7525L54.5267 62.684L54.9106 62.427C55.5545 61.9751 56.0027 61.3028 56.1669 60.5426L56.2542 60.1485C56.3896 59.5122 56.3186 58.8502 56.051 58.2556C55.7834 57.661 55.3327 57.1637 54.7623 56.8336C54.6217 56.7482 54.476 56.6709 54.3261 56.6023C50.4001 52.7735 46.4742 48.8932 43.1066 45.5954C41.5624 44.0793 41.5449 42.9572 43.1066 41.4668C45.3138 39.2911 47.5385 37.1154 49.7545 34.9482C54.5616 30.2457 59.5258 25.3804 64.3765 20.5493C64.629 20.2717 64.9363 20.0474 65.2797 19.8898C65.6231 19.7323 65.9956 19.6448 66.3744 19.6328M66.3744 16.5234C65.5754 16.5353 64.7869 16.7045 64.0556 17.0208C63.3244 17.3371 62.6651 17.7942 62.1169 18.3651C55.0851 25.3889 47.9573 32.3015 40.8644 39.2654C38.1162 41.9721 38.1337 45.0729 40.8644 47.8311C44.6682 51.5657 48.4749 55.2975 52.2846 59.0264C52.5527 59.2324 52.8458 59.405 53.157 59.5404L53.0698 59.9344C52.7809 60.1097 52.5067 60.3074 52.2497 60.5254C47.5967 65.0938 42.9263 69.6764 38.2384 74.2734C37.8669 74.6295 37.5173 75.0071 37.1915 75.404C36.5789 76.1913 36.1997 77.1292 36.0956 78.1146C35.9916 79.0999 36.1666 80.0944 36.6015 80.9882C37.0364 81.8821 37.7143 82.6407 38.5604 83.1804C39.4065 83.7201 40.388 84.0199 41.3966 84.0468C42.2022 84.029 42.9962 83.8548 43.7328 83.5343C44.4695 83.2138 45.1343 82.7534 45.689 82.1795C51.86 76.1436 58.0223 70.0962 64.1759 64.0374C66.9764 61.2792 66.9677 58.2127 64.1759 55.4717C60.3721 51.737 56.5653 48.0052 52.7557 44.2763C52.5625 44.1212 52.3402 44.0048 52.1014 43.9337L60.7734 35.4194V37.5865C60.7734 41.3211 62.9894 43.5825 66.7845 43.5825H87.9846C88.9316 43.6533 89.8811 43.4832 90.7415 43.0886C91.6019 42.6939 92.3441 42.0882 92.8965 41.3297C93.3299 40.5835 93.6948 39.8009 93.987 38.9913V37.3638C93.8283 36.8547 93.6419 36.3543 93.4286 35.8648C92.9445 34.8719 92.1671 34.0451 91.1977 33.4921C90.2282 32.939 89.1117 32.6853 87.9934 32.764H71.7661V31.6676C71.7661 28.5154 71.8271 25.3632 71.7661 22.2453C71.7487 21.23 71.4982 20.2315 71.0332 19.3244C70.5719 18.4973 69.8912 17.8082 69.0633 17.3302C68.2354 16.8521 67.2912 16.603 66.3308 16.6091L66.3744 16.5234Z" fill="white"/>
<path d="M32.7464 51.5657C33.6851 52.794 34.7301 53.9403 35.8697 54.992L33.5403 57.2791L10.4731 79.9268C9.94902 80.5059 9.21797 80.8648 8.43161 80.929C7.89342 80.9189 7.37786 80.7146 6.98336 80.3551C6.52647 79.9798 6.23898 79.4426 6.18343 78.8603C6.12788 78.278 6.30876 77.6977 6.68674 77.2457C6.86995 77.0316 7.07933 76.8003 7.33234 76.5519L32.7813 51.5657M33.7322 46.2979C33.3571 46.6405 33.1302 46.8375 32.9209 47.0516L5.06401 74.3591C4.75518 74.6506 4.46388 74.9595 4.19157 75.2842C3.29447 76.3669 2.86514 77.7516 2.99561 79.1415C3.12608 80.5314 3.80597 81.8157 4.88952 82.7192C5.86417 83.5737 7.12494 84.0463 8.43161 84.0469C9.24413 84.0236 10.0439 83.8428 10.7851 83.515C11.5262 83.1872 12.194 82.7188 12.7502 82.1367L39.8393 55.5145C40.005 55.3518 40.1534 55.1719 40.3366 54.9663C37.8763 52.2853 34.6832 50.2209 33.7235 46.2979H33.7322Z" fill="white"/>
<path d="M48.2968 7.44334C49.0193 7.52963 49.7041 7.80803 50.2773 8.2485L56.1051 12.2059C55.2327 12.9853 54.4388 13.7991 53.6972 14.5614L52.8248 15.4865L50.7658 14.0475C50.2302 13.6675 49.5858 13.4636 48.925 13.465C48.7169 13.4638 48.5093 13.4838 48.3055 13.525C47.8817 13.6057 47.4793 13.7713 47.1235 14.0115C46.7678 14.2517 46.4663 14.5614 46.2379 14.9212C46.1506 15.0582 46.0721 15.2039 45.9849 15.3495C42.5475 18.7758 38.8832 22.3648 35.2103 25.9452C34.6954 26.4963 33.9816 26.8282 33.2211 26.8703C32.6456 26.8596 32.0961 26.6328 31.6857 26.2365C31.2747 25.8512 31.0226 25.3308 30.9775 24.7747C30.9324 24.2185 31.0976 23.6656 31.4414 23.2213C31.6246 22.9986 31.8427 22.7674 32.1306 22.4761L46.203 8.66823C46.7247 8.02972 47.4723 7.60766 48.2968 7.48615M48.2968 4.37682C47.4628 4.41395 46.6454 4.61857 45.8952 4.97805C45.1449 5.33752 44.4776 5.84422 43.9346 6.46683L29.8099 20.3433C29.4836 20.6609 29.1749 20.9954 28.8851 21.3454C28.0378 22.4047 27.6275 23.7382 27.7358 25.0808C27.8441 26.4235 28.4631 27.677 29.4697 28.592C30.4611 29.5115 31.7701 30.0287 33.1339 30.0397C33.926 30.022 34.7067 29.8509 35.4313 29.5364C36.1559 29.2218 36.8101 28.7699 37.3565 28.2066C41.0207 24.6375 44.6704 21.0514 48.3055 17.4481C48.5154 17.1816 48.6966 16.8945 48.8465 16.5915L53.0167 19.5124C55.9045 17.1397 57.9983 13.9704 61.5142 12.1802C61.1914 11.9489 60.9559 11.769 60.7029 11.5977L52.0483 5.69593C50.9588 4.87049 49.6367 4.39491 48.2619 4.33398L48.2968 4.37682Z" fill="white"/>
<path d="M74.5203 3.41699C75.864 3.41921 77.1524 3.94255 78.1051 4.87303C79.0577 5.80352 79.5974 7.06581 79.6066 8.38509C79.5909 9.69659 79.0557 10.9506 78.1143 11.8812C77.173 12.8118 75.8995 13.3459 74.5639 13.3703H74.5115C73.1672 13.3703 71.8779 12.846 70.9273 11.9127C69.9767 10.9794 69.4427 9.71355 69.4427 8.39365C69.4427 7.07376 69.9767 5.80793 70.9273 4.87463C71.8779 3.94132 73.1672 3.41699 74.5115 3.41699M74.5115 0.307646C72.3273 0.301966 70.2302 1.14843 68.6816 2.66083C67.133 4.17324 66.2597 6.2277 66.2539 8.37224C66.2482 10.5168 67.1103 12.5758 68.6507 14.0962C70.1911 15.6166 72.2836 16.474 74.4679 16.4797H74.5639C76.7481 16.474 78.8407 15.6166 80.3811 14.0962C81.9215 12.5758 82.7836 10.5168 82.7779 8.37224C82.7721 6.2277 81.8988 4.17324 80.3502 2.66083C78.8016 1.14843 76.7045 0.301966 74.5203 0.307646H74.5115Z" fill="white"/>
<path d="M15.163 13.8066C12.9034 13.8066 10.6438 13.858 8.38415 13.8066C7.9338 13.8202 7.48703 13.7239 7.08394 13.5263C6.68085 13.3286 6.33403 13.0358 6.0746 12.6741C5.81517 12.3124 5.65125 11.8932 5.59754 11.454C5.54382 11.0147 5.602 10.5693 5.76684 10.1576C5.91726 9.70653 6.19445 9.30638 6.56646 9.00327C6.93846 8.70017 7.39014 8.50646 7.86941 8.44446C8.23369 8.39577 8.60106 8.37287 8.96868 8.37593C13.1825 8.37593 17.4051 8.37593 21.619 8.37593C22.1677 8.35757 22.7158 8.427 23.2417 8.5815C23.8213 8.78627 24.3112 9.18089 24.629 9.69888C24.9469 10.2169 25.0731 10.8266 24.9866 11.4253C24.9195 12.0296 24.6364 12.591 24.1875 13.0098C23.7387 13.4285 23.1532 13.6774 22.535 13.7124C20.0922 13.7809 17.6494 13.7124 15.1979 13.7124L15.163 13.8066Z" fill="white"/>
<path d="M9.84147 19.2036C12.1011 19.2036 14.3694 19.1608 16.629 19.2036C17.079 19.1884 17.5258 19.2833 17.9291 19.4799C18.3324 19.6765 18.6795 19.9685 18.9392 20.3297C19.1989 20.6909 19.3629 21.1098 19.4165 21.5488C19.4701 21.9877 19.4116 22.4328 19.2463 22.844C19.0906 23.292 18.8118 23.6891 18.4408 23.9914C18.0698 24.2937 17.6209 24.4895 17.1438 24.5572C16.7822 24.6028 16.4177 24.6228 16.0532 24.6171C11.8306 24.6171 7.61676 24.6171 3.39418 24.6171C2.84549 24.6355 2.29742 24.5661 1.77145 24.4116C1.19191 24.2068 0.701962 23.8122 0.384137 23.2942C0.0663128 22.7762 -0.0599668 22.1665 0.0265753 21.5677C0.09366 20.9634 0.376782 20.402 0.82563 19.9833C1.27448 19.5646 1.85999 19.3156 2.47812 19.2807C4.92094 19.2122 7.36376 19.2807 9.80658 19.2807L9.84147 19.2036Z" fill="white"/>
<path d="M15.3186 30.0132C17.587 30.0132 19.8466 29.9703 22.1062 30.0132C22.5591 29.9888 23.011 30.0762 23.4206 30.2675C23.8302 30.4588 24.1844 30.7479 24.4508 31.1084C24.7172 31.4688 24.8874 31.889 24.9457 32.3307C25.004 32.7723 24.9486 33.2213 24.7846 33.6364C24.6235 34.0939 24.3342 34.4974 23.9499 34.8004C23.5655 35.1035 23.1019 35.2939 22.6122 35.3496C22.2793 35.3881 21.9441 35.4052 21.6089 35.401H8.86262C8.34376 35.4089 7.82649 35.3426 7.32714 35.204C6.75114 34.9968 6.26432 34.603 5.94709 34.0875C5.62985 33.572 5.50116 32.9657 5.58227 32.3687C5.66929 31.7797 5.95289 31.2356 6.38863 30.8217C6.82437 30.4078 7.38764 30.1476 7.99019 30.0817C8.11218 30.0733 8.23462 30.0733 8.35661 30.0817L15.3186 30.0132Z" fill="white"/>
</svg>
