<svg width="89" height="54" viewBox="0 0 89 54" fill="none" xmlns="http://www.w3.org/2000/svg">
<path d="M88.1725 25.7537C87.9402 26.2627 87.596 26.7148 87.1646 27.0777C86.7332 27.4405 86.2253 27.705 85.6774 27.8523C83.7667 28.5204 81.8823 29.2742 80.0065 30.0366C79.4981 30.3151 78.9173 30.44 78.3369 30.3958C77.7565 30.3517 77.2022 30.1403 76.7436 29.7882C76.6422 29.7377 76.5301 29.7115 76.4165 29.7115C76.3028 29.7115 76.1907 29.7377 76.0893 29.7882C74.5538 30.7218 73.0445 31.6897 71.5439 32.632C72.5385 37.4202 70.2963 40.0584 65.5416 39.7501C64.5819 43.1763 63.2209 44.2556 59.3647 44.3927C59.3247 45.1931 59.0945 45.9733 58.6926 46.6709C58.2907 47.3685 57.7282 47.9642 57.0501 48.4103C56.3719 48.8564 55.5969 49.1406 54.7869 49.2402C53.977 49.3398 53.1545 49.252 52.3852 48.9839C52.2418 50.0599 51.7552 51.0637 50.9952 51.8515C50.2351 52.6393 49.2405 53.1707 48.1539 53.3695C45.7111 53.8835 44.0273 52.453 42.2214 51.0825C41.8113 51.5364 41.4362 51.9819 41.0349 52.4102C40.4685 53.0745 39.7165 53.5615 38.8716 53.8111C38.0266 54.0608 37.1258 54.0621 36.2801 53.8149C35.4259 53.6072 34.6507 53.1623 34.0473 52.5334C33.4439 51.9045 33.0378 51.1183 32.8776 50.2687C32.8339 50.1323 32.7583 50.0077 32.6568 49.9051C32.5553 49.8025 32.4307 49.7246 32.293 49.6777C29.6059 49.3779 28.2711 48.2558 27.643 45.7118C27.643 45.609 27.5732 45.5062 27.547 45.412C24.2492 45.0094 22.9231 43.8959 22.3735 41.0692C17.8717 40.3839 16.153 37.7285 17.863 33.9254C17.5663 33.7198 17.2697 33.4714 16.9382 33.2658C15.2718 32.2294 13.6055 31.1758 11.913 30.1822C11.5996 30.0861 11.2667 30.0685 10.9445 30.1308C10.2092 30.2764 9.45424 30.2995 8.71111 30.1993C6.36426 29.4027 4.06103 28.4862 1.73163 27.5439C1.39329 27.4298 1.08302 27.2475 0.82072 27.0086C0.558425 26.7698 0.349913 26.4797 0.208594 26.157C0.0672749 25.8344 -0.00371624 25.4862 0.000149828 25.135C0.0040159 24.7838 0.0826496 24.4373 0.231038 24.1177C3.13916 16.8197 6.06764 9.53029 9.01647 2.24944C9.13924 1.92194 9.32868 1.62241 9.57322 1.36914C9.81775 1.11587 10.1122 0.914156 10.4388 0.776299C10.7653 0.638442 11.117 0.567335 11.4725 0.567306C11.8279 0.567278 12.1797 0.638337 12.5062 0.776142C14.8094 1.63271 17.0865 2.54068 19.3723 3.43151C19.9183 3.62178 20.3876 3.97917 20.7112 4.45104C21.0347 4.92292 21.1954 5.48434 21.1695 6.05262C21.1817 6.18491 21.2252 6.31258 21.2963 6.42556C21.3675 6.53854 21.4644 6.63373 21.5795 6.70359C23.2059 7.49797 24.9977 7.91139 26.8141 7.91136C30.4086 7.97988 34.0379 7.91137 37.5451 9.02491C37.8753 9.0176 38.189 8.88207 38.4175 8.64802C39.5779 7.50022 40.7644 6.29245 42.4656 6.07831C43.827 5.98303 45.1947 6.02033 46.5487 6.18967C47.5432 6.26676 48.5291 6.48947 49.5149 6.64365C50.5008 6.79783 51.0417 7.33746 50.9457 8.0998C50.8497 8.86215 50.1692 9.30758 49.1223 9.15339C47.6828 8.94782 46.2346 8.7251 44.7601 8.4767C44.0536 8.34595 43.3246 8.39715 42.6442 8.62533C41.9638 8.85351 41.3553 9.25089 40.8778 9.7787C37.8407 12.8079 34.5551 15.5868 31.0542 18.0874C30.426 18.5243 29.7717 18.944 29.1436 19.3808C28.3147 19.9462 28.3235 20.3916 29.1436 21.0254C29.8267 21.5469 30.6353 21.8863 31.4913 22.0109C32.3472 22.1354 33.2214 22.0409 34.0292 21.7364C36.1988 20.9955 38.1847 19.8134 39.8571 18.2673C41.7154 16.7083 43.0327 16.7512 44.7863 18.4129C46.4327 20.0742 48.4593 21.3256 50.6975 22.0631C52.9357 22.8006 55.3209 23.0028 57.6547 22.6529C57.9759 22.6035 58.3041 22.6207 58.6182 22.7033C58.9322 22.7859 59.2251 22.9322 59.4781 23.1326C62.9068 25.6424 66.3442 28.1179 69.8165 30.6276L75.3477 27.1414L68.0193 8.89641C67.524 9.03346 67.0375 9.19937 66.5623 9.39323C63.3795 10.8895 59.75 11.194 56.3548 10.2498C56.0495 10.1727 55.7267 10.1642 55.4213 10.0956C55.0906 10.043 54.7947 9.86377 54.5984 9.59721C54.4021 9.33064 54.3215 8.99853 54.3744 8.67372C54.3898 8.5106 54.4397 8.35241 54.5207 8.2092C54.6018 8.06599 54.7122 7.94089 54.8451 7.84182C54.978 7.74276 55.1304 7.67188 55.2927 7.63372C55.455 7.59556 55.6236 7.59093 55.7877 7.62013C57.0353 7.75718 58.2829 7.94564 59.5218 8.16834C60.8569 8.39073 62.2285 8.25457 63.4913 7.7743L66.9811 6.48945C66.9811 4.5536 67.4086 3.91974 69.2232 3.20022C71.2909 2.38648 73.3673 1.57276 75.4437 0.784716C75.7915 0.607617 76.1753 0.509402 76.5668 0.497354C76.9584 0.485307 77.3477 0.559731 77.7061 0.715104C78.0645 0.870478 78.3827 1.10285 78.6374 1.3951C78.8921 1.68734 79.0768 2.03198 79.1777 2.40362C80.2421 5.00759 81.2948 7.62012 82.3359 10.2412C82.7373 11.2348 82.5366 11.9115 81.7689 12.2285C81.0011 12.5454 80.3555 12.1771 79.9542 11.192C78.8636 8.51097 77.7818 5.82132 76.6651 3.03747L69.546 5.78708L78.4885 27.8951L85.6076 25.1455C84.5956 22.6187 83.6184 20.1603 82.6326 17.7105C82.537 17.5066 82.4525 17.2979 82.3796 17.0852C82.2666 16.7769 82.2788 16.4377 82.4136 16.1379C82.5484 15.8381 82.7955 15.6007 83.1037 15.4749C83.4138 15.3503 83.7615 15.3516 84.0707 15.4784C84.3798 15.6053 84.625 15.8474 84.7526 16.1516C85.0667 16.8197 85.3109 17.505 85.625 18.1816C86.4916 20.2545 87.3641 22.3274 88.2423 24.4003L88.1725 25.7537ZM43.8877 49.198C44.7203 49.7795 45.5951 50.3006 46.505 50.757C47.062 50.9636 47.6774 50.9587 48.2309 50.7432C48.7844 50.5277 49.236 50.1172 49.4975 49.592C49.8043 49.094 49.9004 48.4977 49.765 47.931C49.6297 47.3642 49.2737 46.872 48.7734 46.5598L47.0808 45.2064C46.2084 44.5297 46.0252 43.853 46.5225 43.202C47.0197 42.551 47.7788 42.551 48.6338 43.202C49.7069 44.0072 50.7625 44.8295 51.8443 45.609C52.3348 45.9958 52.8744 46.3183 53.4496 46.5684C54.0214 46.7743 54.6502 46.7678 55.2175 46.5501C55.7848 46.3324 56.2514 45.9184 56.5293 45.3863C56.8061 44.8741 56.8853 44.2809 56.7522 43.716C56.6192 43.151 56.2829 42.6522 55.8052 42.3112C54.8368 41.566 53.8509 40.8379 52.8738 40.0927C51.8967 39.3475 51.5826 38.6194 52.0973 37.9341C52.6121 37.2489 53.3536 37.266 54.4791 38.1054C55.9361 39.1933 57.3669 40.324 58.8413 41.3604C59.1099 41.5689 59.4187 41.7218 59.7491 41.81C60.0795 41.8983 60.4247 41.92 60.7639 41.8738C61.103 41.8277 61.4292 41.7147 61.7227 41.5416C62.0162 41.3685 62.2711 41.1389 62.4719 40.8666C62.6727 40.5943 62.8153 40.2849 62.8911 39.957C62.967 39.6292 62.9745 39.2897 62.9133 38.959C62.852 38.6282 62.7233 38.313 62.5348 38.0324C62.3462 37.7517 62.1018 37.5115 61.8163 37.326C60.4989 36.4694 59.2949 35.4672 58.0561 34.5164C57.5675 34.1395 57.2272 33.617 57.5675 33.0603C57.8203 32.6431 58.2261 32.3366 58.7017 32.2037C59.0332 32.1266 59.513 32.4178 59.8358 32.6577C61.5807 33.934 63.3256 35.2274 65.0704 36.5379C66.4838 37.5744 68.0018 37.3945 68.9353 36.1953C69.1395 35.9044 69.2815 35.5757 69.3526 35.2294C69.4237 34.883 69.4226 34.5261 69.3492 34.1802C69.2758 33.8343 69.1317 33.5066 68.9256 33.2169C68.7195 32.9272 68.4557 32.6816 68.1501 32.4949C64.9861 30.1822 61.8017 27.8837 58.597 25.5995C58.256 25.3636 57.8446 25.2461 57.4279 25.2655C54.8092 25.5377 52.1617 25.2245 49.6838 24.3493C47.2059 23.4741 44.9618 22.0595 43.12 20.2117C42.5529 19.6806 42.2475 19.6806 41.6543 20.2117C39.7749 21.9564 37.5425 23.2931 35.1023 24.1348C33.9058 24.587 32.6125 24.7354 31.3421 24.5662C30.0717 24.397 28.8654 23.9157 27.8349 23.1669C25.427 21.4537 25.5404 18.884 27.9745 17.1709C30.4086 15.4577 32.7729 13.5305 35.1808 11.7145C35.3948 11.5795 35.6229 11.4675 35.8613 11.3805L35.6257 10.9607C33.8809 10.8151 32.136 10.6438 30.3911 10.541C28.2537 10.404 26.09 10.4382 23.97 10.1641C22.696 9.87305 21.4541 9.45991 20.2622 8.93068C17.7757 15.1237 15.298 21.2996 12.7854 27.5439L19.7649 31.8268C20.4715 31.0216 21.1346 30.2079 21.8675 29.4541C22.4532 28.8539 23.1931 28.42 24.0091 28.1984C24.8251 27.9768 25.6869 27.9755 26.5036 28.1948C27.3202 28.4142 28.0614 28.8459 28.649 29.4444C29.2365 30.043 29.6485 30.7861 29.8415 31.5955C29.9026 31.8353 29.9636 32.0752 30.0334 32.3322C31.2959 32.2526 32.5423 32.6442 33.5232 33.4286C34.4841 34.2445 35.0898 35.391 35.2157 36.6321C38.2169 36.6835 39.9356 38.174 40.4503 41.0092C41.4092 40.9079 42.3763 41.1057 43.2142 41.5747C44.0521 42.0437 44.7182 42.76 45.1178 43.6218C45.9205 45.6604 45.4494 47.4678 43.8877 49.198ZM11.5378 3.08886L2.67387 25.137L9.79295 27.8951C12.7592 20.5115 15.6906 13.2135 18.6569 5.84702L11.5378 3.08886ZM22.2426 38.4395C22.6421 38.3252 23.0154 38.1362 23.3419 37.8828C24.572 36.5551 25.7847 35.2017 26.9014 33.7798C27.1619 33.3583 27.2587 32.8586 27.174 32.3727C27.0894 31.8867 26.8289 31.4471 26.4406 31.1345C26.0522 30.822 25.562 30.6575 25.0601 30.6714C24.5581 30.6853 24.0781 30.8766 23.7083 31.2101C22.4956 32.5121 21.3265 33.8654 20.2185 35.2531C19.9799 35.5588 19.8434 35.9296 19.8278 36.3145C19.8122 36.6994 19.9182 37.0796 20.1313 37.4031C20.3464 37.7551 20.6593 38.0395 21.0332 38.2231C21.4072 38.4067 21.8267 38.4817 22.2426 38.4395ZM32.4501 37.2917C32.4957 36.8385 32.3936 36.3827 32.1584 35.9902C31.9232 35.5976 31.5671 35.2885 31.1414 35.1074C30.7437 34.9345 30.2999 34.8919 29.8756 34.986C29.4513 35.0801 29.0692 35.3059 28.7859 35.63C27.6691 36.872 26.5611 38.1311 25.5055 39.416C25.3296 39.622 25.1976 39.8606 25.1171 40.1176C25.0367 40.3745 25.0095 40.6448 25.0371 40.9122C25.0648 41.1797 25.1467 41.439 25.2781 41.6749C25.4095 41.9107 25.5877 42.1184 25.8021 42.2855C26.0008 42.4602 26.2327 42.5944 26.4846 42.6804C26.7364 42.7665 27.0032 42.8025 27.2694 42.7866C27.5355 42.7707 27.7958 42.703 28.0352 42.5876C28.2745 42.4722 28.4882 42.3113 28.6637 42.1142C29.8241 40.8722 30.9233 39.5445 32.0051 38.2596C32.2038 37.9617 32.3539 37.6351 32.4501 37.2917ZM42.9717 45.7289C42.9328 45.3053 42.7787 44.8997 42.5255 44.5546C42.2722 44.2095 41.9291 43.9376 41.5322 43.7674C41.1199 43.5953 40.6618 43.56 40.2273 43.6666C39.7927 43.7733 39.4055 44.0162 39.1242 44.3584C38.0773 45.5148 37.0565 46.6968 36.0532 47.8875C35.8454 48.0901 35.6826 48.3327 35.5751 48.6002C35.4675 48.8676 35.4176 49.1541 35.4284 49.4414C35.4392 49.7287 35.5105 50.0108 35.6379 50.2697C35.7652 50.5286 35.9459 50.7589 36.1684 50.9458C36.3908 51.1328 36.6504 51.2725 36.9306 51.3561C37.2108 51.4397 37.5056 51.4654 37.7964 51.4315C38.0873 51.3977 38.3678 51.3051 38.6203 51.1595C38.8729 51.0139 39.092 50.8185 39.2638 50.5857C40.2846 49.4464 41.2966 48.2986 42.2563 47.1594C42.5438 46.7078 42.7835 46.2284 42.9717 45.7289ZM37.7371 41.3861C37.7012 40.9639 37.5491 40.5591 37.2971 40.2151C37.045 39.8711 36.7026 39.6009 36.3062 39.4331C35.9086 39.26 35.4642 39.2189 35.0406 39.3163C34.617 39.4137 34.2374 39.6442 33.9594 39.9728C32.8776 41.1634 31.8132 42.3883 30.7837 43.6218C30.5842 43.8259 30.4303 44.0688 30.332 44.3348C30.2337 44.6007 30.1931 44.8839 30.2128 45.1662C30.2325 45.4485 30.3121 45.7237 30.4465 45.974C30.5809 46.2243 30.7671 46.4442 30.9931 46.6197C31.2098 46.7934 31.4594 46.9232 31.7274 47.0017C31.9954 47.0802 32.2766 47.1058 32.5547 47.0772C32.8329 47.0485 33.1025 46.9661 33.3481 46.8346C33.5937 46.7032 33.8103 46.5254 33.9856 46.3114C35.0499 45.1379 36.0969 43.9387 37.0914 42.7138C37.3646 42.2982 37.5871 41.8526 37.7545 41.3861H37.7371Z" fill="white"/>
</svg>
