<svg width="69" height="43" viewBox="0 0 69 43" fill="none" xmlns="http://www.w3.org/2000/svg">
<g clip-path="url(#clip0_67_54)">
<path d="M68.9931 20.2722C68.811 20.682 68.5414 21.0461 68.2034 21.3383C67.8654 21.6305 67.4675 21.8435 67.0382 21.9621C65.5413 22.5001 64.065 23.1071 62.5954 23.721C62.1971 23.9453 61.7421 24.0459 61.2874 24.0103C60.8326 23.9747 60.3984 23.8045 60.0391 23.521C59.9597 23.4804 59.8719 23.4592 59.7828 23.4592C59.6937 23.4592 59.6059 23.4804 59.5265 23.521C58.3235 24.2728 57.141 25.0523 55.9654 25.811C56.7446 29.6668 54.988 31.7913 51.2629 31.543C50.511 34.302 49.4447 35.1711 46.4236 35.2815C46.3923 35.9261 46.212 36.5544 45.8971 37.1161C45.5822 37.6778 45.1415 38.1575 44.6102 38.5167C44.079 38.8759 43.4718 39.1048 42.8372 39.185C42.2026 39.2652 41.5583 39.1945 40.9556 38.9786C40.8432 39.8451 40.462 40.6534 39.8665 41.2878C39.271 41.9222 38.4919 42.3501 37.6406 42.5102C35.7268 42.9241 34.4076 41.7722 32.9927 40.6686C32.6715 41.0341 32.3776 41.3928 32.0632 41.7377C31.6195 42.2727 31.0303 42.6648 30.3684 42.8659C29.7064 43.0669 29.0006 43.0679 28.3381 42.8689C27.6689 42.7016 27.0616 42.3434 26.5888 41.837C26.1161 41.3305 25.7979 40.6974 25.6724 40.0133C25.6382 39.9034 25.5789 39.8031 25.4994 39.7205C25.4199 39.6378 25.3223 39.5751 25.2144 39.5373C23.1092 39.2959 22.0635 38.3923 21.5713 36.3437C21.5713 36.261 21.5167 36.1782 21.4962 36.1023C18.9125 35.7781 17.8736 34.8814 17.443 32.6052C13.9161 32.0534 12.5696 29.9151 13.9092 26.8525C13.6769 26.687 13.4445 26.487 13.1847 26.3214C11.8792 25.4868 10.5737 24.6384 9.24772 23.8383C9.00218 23.7609 8.74139 23.7467 8.48902 23.7969C7.91295 23.9141 7.32144 23.9328 6.73924 23.8521C4.90061 23.2106 3.09615 22.4725 1.27119 21.7138C1.00612 21.6219 0.763036 21.4751 0.557542 21.2827C0.352047 21.0904 0.188689 20.8568 0.077973 20.597C-0.0327429 20.3371 -0.0883607 20.0568 -0.0853318 19.774C-0.082303 19.4912 -0.0206977 19.2121 0.0955571 18.9547C2.37391 13.0779 4.66822 7.20803 6.97847 1.34502C7.07466 1.08129 7.22308 0.840088 7.41466 0.636138C7.60624 0.432188 7.83696 0.269757 8.09278 0.158745C8.34861 0.0477335 8.62416 -0.00952667 8.90263 -0.0095496C9.1811 -0.00957252 9.45666 0.0476493 9.7125 0.158619C11.517 0.848385 13.3009 1.57954 15.0917 2.2969C15.5195 2.45011 15.8872 2.7379 16.1407 3.11789C16.3941 3.49787 16.52 3.94997 16.4997 4.40758C16.5093 4.51411 16.5433 4.61692 16.5991 4.7079C16.6548 4.79888 16.7308 4.87553 16.821 4.93179C18.0951 5.57148 19.4989 5.90438 20.922 5.90436C23.7381 5.95954 26.5815 5.90437 29.3292 6.80107C29.5878 6.79518 29.8336 6.68604 30.0127 6.49757C30.9217 5.57328 31.8513 4.60071 33.1841 4.42827C34.2507 4.35154 35.3222 4.38158 36.3829 4.51794C37.1621 4.58002 37.9345 4.75936 38.7069 4.88352C39.4792 5.00768 39.903 5.44222 39.8278 6.05611C39.7526 6.67 39.2195 7.02869 38.3993 6.90453C37.2715 6.73898 36.1369 6.55964 34.9817 6.35961C34.4282 6.25432 33.8571 6.29555 33.324 6.4793C32.791 6.66304 32.3142 6.98304 31.9402 7.40806C29.5608 9.84738 26.9866 12.0851 24.2439 14.0988C23.7517 14.4506 23.2391 14.7886 22.747 15.1403C22.0976 15.5956 22.1045 15.9542 22.747 16.4647C23.2822 16.8846 23.9157 17.1579 24.5863 17.2582C25.2569 17.3585 25.9418 17.2824 26.5746 17.0372C28.2744 16.4406 29.8302 15.4886 31.1404 14.2436C32.5963 12.9883 33.6284 13.0227 35.0023 14.3609C36.2921 15.6987 37.8798 16.7064 39.6334 17.3003C41.3869 17.8941 43.2555 18.057 45.084 17.7752C45.3356 17.7355 45.5927 17.7493 45.8388 17.8158C46.0848 17.8823 46.3143 18.0001 46.5125 18.1615C49.1987 20.1825 51.8917 22.1759 54.6121 24.197L58.9455 21.3896L53.204 6.69758C52.816 6.80795 52.4349 6.94155 52.0626 7.09766C49.569 8.30253 46.7255 8.54779 44.0656 7.78743C43.8263 7.72535 43.5734 7.71846 43.3342 7.66327C43.0751 7.62092 42.8433 7.47657 42.6895 7.26191C42.5357 7.04726 42.4726 6.77982 42.514 6.51826C42.5261 6.38691 42.5652 6.25952 42.6286 6.1442C42.6921 6.02888 42.7787 5.92814 42.8828 5.84837C42.9869 5.76859 43.1063 5.71152 43.2335 5.68079C43.3606 5.65005 43.4926 5.64633 43.6213 5.66984C44.5987 5.7802 45.5761 5.93196 46.5467 6.1113C47.5927 6.29038 48.6673 6.18073 49.6566 5.79399L52.3907 4.75935C52.3907 3.20047 52.7256 2.69005 54.1473 2.11065C55.7672 1.45537 57.3939 0.800108 59.0207 0.165523C59.2931 0.0229115 59.5938 -0.0561782 59.9006 -0.0658793C60.2074 -0.0755805 60.5124 -0.0156501 60.7931 0.109467C61.0739 0.234584 61.3233 0.421709 61.5228 0.65704C61.7224 0.892372 61.867 1.1699 61.9461 1.46917C62.78 3.56606 63.6047 5.66984 64.4204 7.78052C64.7348 8.58065 64.5776 9.12557 63.9761 9.38078C63.3746 9.636 62.8688 9.3394 62.5544 8.54617C61.7 6.38721 60.8525 4.22133 59.9776 1.97959L54.4002 4.19375L61.4061 21.9966L66.9835 19.7824C66.1907 17.7476 65.4251 15.768 64.6528 13.7953C64.5779 13.6311 64.5117 13.463 64.4546 13.2918C64.3661 13.0434 64.3756 12.7703 64.4812 12.5289C64.5868 12.2875 64.7804 12.0963 65.0219 11.995C65.2648 11.8947 65.5373 11.8957 65.7795 11.9979C66.0216 12.1 66.2138 12.295 66.3137 12.5399C66.5598 13.0779 66.7511 13.6298 66.9972 14.1747C67.6762 15.8439 68.3597 17.5131 69.0477 19.1824L68.9931 20.2722ZM34.2982 39.1511C34.9506 39.6193 35.6359 40.0389 36.3488 40.4065C36.7851 40.5728 37.2673 40.5688 37.7009 40.3953C38.1345 40.2218 38.4884 39.8913 38.6932 39.4684C38.9336 39.0673 39.0088 38.5871 38.9028 38.1308C38.7968 37.6744 38.5179 37.278 38.1259 37.0266L36.7999 35.9368C36.1164 35.3919 35.9728 34.8469 36.3624 34.3227C36.752 33.7985 37.3467 33.7985 38.0165 34.3227C38.8572 34.9711 39.6843 35.6333 40.5318 36.261C40.916 36.5724 41.3388 36.8321 41.7895 37.0335C42.2375 37.1994 42.7301 37.1941 43.1745 37.0188C43.619 36.8435 43.9845 36.5101 44.2022 36.0816C44.4191 35.6691 44.4812 35.1915 44.3769 34.7366C44.2727 34.2816 44.0092 33.8799 43.6349 33.6054C42.8763 33.0053 42.1039 32.419 41.3384 31.8189C40.5728 31.2188 40.3268 30.6325 40.73 30.0807C41.1333 29.5289 41.7143 29.5426 42.596 30.2186C43.7375 31.0946 44.8584 32.0051 46.0136 32.8397C46.224 33.0076 46.466 33.1307 46.7248 33.2018C46.9837 33.2728 47.2541 33.2903 47.5198 33.2532C47.7855 33.216 48.0411 33.125 48.271 32.9856C48.501 32.8462 48.7006 32.6613 48.8579 32.4421C49.0153 32.2228 49.127 31.9736 49.1864 31.7096C49.2458 31.4456 49.2518 31.1723 49.2038 30.9059C49.1558 30.6396 49.0549 30.3858 48.9072 30.1598C48.7595 29.9338 48.568 29.7403 48.3443 29.5909C47.3122 28.9011 46.369 28.0941 45.3984 27.3285C45.0156 27.025 44.7491 26.6042 45.0156 26.1559C45.2137 25.8199 45.5316 25.5732 45.9042 25.4661C46.1639 25.404 46.5398 25.6386 46.7927 25.8317C48.1598 26.8595 49.5268 27.901 50.8938 28.9563C52.0011 29.791 53.1904 29.6461 53.9217 28.6804C54.0817 28.4461 54.1929 28.1815 54.2486 27.9026C54.3044 27.6237 54.3035 27.3363 54.2459 27.0577C54.1884 26.7792 54.0755 26.5153 53.9141 26.282C53.7526 26.0488 53.5459 25.851 53.3066 25.7006C50.8277 23.8383 48.3329 21.9874 45.8222 20.148C45.555 19.9581 45.2327 19.8634 44.9063 19.879C42.8546 20.0983 40.7804 19.8461 38.8391 19.1413C36.8978 18.4365 35.1398 17.2974 33.6968 15.8094C33.2525 15.3818 33.0132 15.3818 32.5485 15.8094C31.0761 17.2143 29.3271 18.2907 27.4153 18.9685C26.478 19.3327 25.4647 19.4522 24.4694 19.3159C23.4741 19.1797 22.5291 18.7921 21.7217 18.1891C19.8352 16.8096 19.9241 14.7403 21.8311 13.3607C23.7381 11.9812 25.5904 10.4292 27.4768 8.96692C27.6445 8.85819 27.8232 8.76802 28.01 8.69792L27.8254 8.35992C26.4584 8.24266 25.0914 8.10472 23.7244 8.02194C22.0498 7.91158 20.3547 7.93917 18.6938 7.71845C17.6956 7.48404 16.7227 7.15136 15.7889 6.72518C13.8409 11.7122 11.8997 16.6854 9.93123 21.7138L15.3993 25.1626C15.9529 24.5142 16.4724 23.859 17.0465 23.252C17.5054 22.7686 18.0851 22.4193 18.7244 22.2408C19.3637 22.0623 20.0389 22.0613 20.6787 22.2379C21.3185 22.4145 21.8992 22.7622 22.3595 23.2442C22.8198 23.7262 23.1425 24.3246 23.2938 24.9764C23.3416 25.1695 23.3895 25.3627 23.4441 25.5696C24.4332 25.5055 25.4097 25.8208 26.1782 26.4525C26.931 27.1095 27.4056 28.0328 27.5042 29.0322C29.8554 29.0736 31.202 30.2738 31.6052 32.5569C32.3565 32.4753 33.1142 32.6346 33.7706 33.0123C34.427 33.3899 34.9489 33.9667 35.262 34.6607C35.8908 36.3023 35.5217 37.7578 34.2982 39.1511V39.1511ZM8.95382 2.02097L2.00939 19.7756L7.58681 21.9966C9.91073 16.0508 12.2073 10.174 14.5312 4.24202L8.95382 2.02097ZM17.3404 30.4876C17.6535 30.3956 17.9459 30.2434 18.2017 30.0393C19.1654 28.9701 20.1155 27.8803 20.9904 26.7353C21.1944 26.3959 21.2703 25.9935 21.204 25.6022C21.1376 25.2109 20.9336 24.8568 20.6293 24.6052C20.3251 24.3535 19.941 24.2211 19.5478 24.2322C19.1545 24.2434 18.7785 24.3974 18.4887 24.666C17.5387 25.7144 16.6228 26.8043 15.7547 27.9217C15.5677 28.1679 15.4608 28.4665 15.4486 28.7764C15.4364 29.0864 15.5194 29.3926 15.6863 29.653C15.8549 29.9364 16.1 30.1655 16.393 30.3133C16.686 30.4612 17.0146 30.5216 17.3404 30.4876V30.4876ZM25.3375 29.5633C25.3732 29.1984 25.2932 28.8314 25.1089 28.5152C24.9247 28.1991 24.6457 27.9502 24.3122 27.8044C24.0006 27.6651 23.6529 27.6308 23.3205 27.7066C22.9881 27.7824 22.6887 27.9643 22.4667 28.2252C21.5919 29.2254 20.7238 30.2393 19.8967 31.2739C19.759 31.4399 19.6555 31.632 19.5925 31.8389C19.5295 32.0458 19.5081 32.2634 19.5298 32.4788C19.5515 32.6942 19.6157 32.903 19.7186 33.0929C19.8215 33.2829 19.9611 33.4501 20.1291 33.5847C20.2848 33.7253 20.4665 33.8334 20.6638 33.9027C20.8611 33.972 21.0701 34.001 21.2787 33.9882C21.4872 33.9753 21.6911 33.9209 21.8786 33.8279C22.0661 33.735 22.2335 33.6054 22.3711 33.4467C23.2801 32.4466 24.1413 31.3774 24.9889 30.3428C25.1445 30.1028 25.2621 29.8399 25.3375 29.5633V29.5633ZM33.5806 36.3575C33.5501 36.0164 33.4294 35.6898 33.231 35.4119C33.0326 35.134 32.7638 34.9151 32.4528 34.778C32.1298 34.6394 31.7709 34.6109 31.4305 34.6968C31.09 34.7827 30.7866 34.9783 30.5663 35.2539C29.7461 36.1851 28.9464 37.137 28.1603 38.0957C27.9975 38.2589 27.87 38.4543 27.7857 38.6697C27.7015 38.885 27.6623 39.1157 27.6708 39.3471C27.6793 39.5784 27.7352 39.8056 27.8349 40.0141C27.9347 40.2226 28.0762 40.408 28.2505 40.5585C28.4248 40.7091 28.6282 40.8216 28.8477 40.8889C29.0672 40.9562 29.2982 40.9769 29.526 40.9497C29.7539 40.9224 29.9737 40.8478 30.1715 40.7306C30.3694 40.6134 30.5411 40.456 30.6757 40.2685C31.4754 39.3511 32.2682 38.4268 33.0201 37.5094C33.2453 37.1457 33.4331 36.7598 33.5806 36.3575V36.3575ZM29.4795 32.8604C29.4514 32.5204 29.3322 32.1945 29.1348 31.9175C28.9374 31.6405 28.6691 31.4228 28.3586 31.2878C28.047 31.1483 27.6988 31.1153 27.367 31.1937C27.0351 31.2721 26.7377 31.4577 26.5199 31.7223C25.6724 32.6811 24.8385 33.6674 24.032 34.6607C23.8756 34.8251 23.7551 35.0207 23.6781 35.2349C23.601 35.449 23.5692 35.6771 23.5847 35.9044C23.6001 36.1317 23.6625 36.3533 23.7678 36.5549C23.873 36.7564 24.0189 36.9336 24.196 37.0749C24.3658 37.2147 24.5613 37.3192 24.7713 37.3824C24.9812 37.4456 25.2015 37.4663 25.4195 37.4432C25.6374 37.4201 25.8486 37.3538 26.041 37.2479C26.2334 37.1421 26.4031 36.9989 26.5404 36.8266C27.3743 35.8816 28.1945 34.9159 28.9737 33.9295C29.1877 33.5949 29.3621 33.2361 29.4932 32.8604H29.4795Z" fill="white"/>
</g>
<defs>
<clipPath id="clip0_67_54">
<rect width="69" height="43" fill="white"/>
</clipPath>
</defs>
</svg>
